<?xml version="1.0" encoding="utf-8"?>
<!-- Generator: Adobe Illustrator 21.0.1, SVG Export Plug-In . SVG Version: 6.00 Build 0)  -->
<svg version="1.2" baseProfile="tiny" id="Слой_1"
	 xmlns="http://www.w3.org/2000/svg" xmlns:xlink="http://www.w3.org/1999/xlink" x="0px" y="0px" viewBox="0 0 792 612"
	 xml:space="preserve">
<g id="Слой_1_1_">
	<g>
		<path fill="#FFE9C8" d="M618.9,326c-6.3,0-8.9,4.1-8.1,8.3c0.9,4.5,5.5,4.1,2.3,7.4c-3.2,3.4-7,10.9,2.5,14.8
			c10.5,4.4,31.4,0.2,25.4-16.2c-0.3-0.7-1.2-0.9-1.8-0.4c-0.8,0.6-1.8,1.3-2.9,1.1c-2-0.3-5.4-2.4-11.6,0.6c-6.7,3.3,1-5,1-9.2
			C625.8,329.8,624,326,618.9,326z"/>
		<path fill="#FFDCA7" d="M615.7,354.5c-3.9-1.6-5.6-3.9-5.9-6.2c-0.4,3,0.9,6.1,5.9,8.2c9.5,3.9,27.5,0.9,26.4-11.8
			C641.2,355.7,624.7,358.2,615.7,354.5z"/>
		<path fill="#FFCF86" d="M626.2,350.9c-1.7,0-3-0.4-3.9-0.8c-1.6-0.7-2.3-1.7-2.4-1.8c-0.2-0.3-0.1-0.6,0.2-0.8
			c0.3-0.2,0.7-0.1,0.9,0.2c0,0,0.6,0.8,2,1.4c1.8,0.8,4,0.9,6.5,0.2c3.4-0.9,5-3.6,5.4-4.9c0.1-0.3,0.4-0.5,0.8-0.4
			c0.3,0.1,0.5,0.4,0.4,0.7c-0.5,1.5-2.4,4.6-6.2,5.7C628.4,350.7,627.2,350.9,626.2,350.9z"/>
		<path fill="#FFA812" d="M612.2,333.3c0.1,0.9,1.6,0.7,1.7,1.8c0,1.1-1.2,3.3-6.5,2.6c-6.1-0.8-7.4-8.2-4-8.5
			c2.3-0.2,1.2,2.5,4.1,2.7c2.9,0.1,3.6-1.8,4.5-1C612.9,331.6,612.1,332.5,612.2,333.3z"/>
		<path fill="#FF9A00" d="M613.5,334.4c-0.7,1-2.4,1.9-6.1,1.4c-3.3-0.4-5.2-2.9-5.7-5c-0.6,2.3,1.3,6.4,5.7,7
			c5.2,0.7,6.5-1.5,6.5-2.6C613.9,334.8,613.7,334.5,613.5,334.4z"/>
		<g>
			<path fill="#433F43" d="M609.2,333.2c-0.5,0.1-1,0.1-1,0.1c-0.3,0-0.6,0.2-0.6,0.5s0.3,0.6,0.6,0.6l0,0c0.1,0,0.7,0,1.3-0.1
				c0.3-0.1,0.5-0.4,0.5-0.7C609.9,333.3,609.5,333.1,609.2,333.2z"/>
			<path fill="#433F43" d="M618.6,330.3c-0.7,0-1.2,0.6-1.2,1.4s0.5,1.4,1.2,1.4s1.2-0.6,1.2-1.4S619.3,330.3,618.6,330.3z"/>
		</g>
	</g>
</g>
<g id="Слой_2">
	<g>
		<path fill="#AEE295" d="M699,209.4c-7.3-2.5-12.7-0.2-12.7-0.2s0.8-5.8-1.4-7.3c-2.2-1.4-8,0.3-12.8,4.8s-7.2,11.3-4,12.4
			c1.2,0.4,2.2,0.2,3-0.2c0,0,3.2,2.8,7.3,1.8c0.8-0.2,1.5-0.4,2-0.7l0,0l-2.1,3.2c0,0-3.3,0.1-3.2,2.5h4.7c0.7,0,1.4-0.3,1.7-0.9
			l3.3-4.8h7.9l-2.1,3.2c0,0-3.3,0.1-3.2,2.5h4.7c0.7,0,1.4-0.3,1.7-0.9l3.3-4.8c0,0,3.4-1.8,5.5,0.9c2.2,2.6-0.6,6.7-4.8,7
			c-1.6,0.1-2.7,0-3.5-0.1c-0.7-0.1-1.5,0.2-1.7,0.8c-0.3,0.7,0.2,1.5,1,1.7c1.1,0.3,2.8,0.6,4.6,0.6c3.7,0,9.7-2.8,10.8-7.3
			C710.3,218.4,708,212.5,699,209.4z"/>
		<g>
			<path fill="#98DB7C" d="M694.7,220.6l-3.5,5.1h1.2c0.7,0,1.4-0.3,1.7-0.9l3.3-4.8c0,0,0.5-0.3,1.3-0.4c-1.1-0.3-2.1-0.1-2.8,0.1
				C695.3,219.9,694.9,220.2,694.7,220.6z"/>
			<path fill="#98DB7C" d="M682.6,202c1.3,0.8,1.5,3.2,1.5,5c0,1.1,1.1,1.8,2.2,1.6l0,0c0.1-1.6,0.3-5.5-1.4-6.6
				c-0.7-0.5-1.9-0.6-3.3-0.4C682,201.6,682.4,201.8,682.6,202z"/>
			<path fill="#98DB7C" d="M695.6,228c-0.4,0-0.8-0.1-1.1-0.2c-0.4-0.1-0.8,0-1.1,0.2C694,228,694.8,228.1,695.6,228z"/>
			<path fill="#98DB7C" d="M678.8,225.7h1.2c0.7,0,1.4-0.3,1.7-0.9l3.3-4.8c-1.5,0-2.8,0.7-3.6,1.8L678.8,225.7z"/>
			<path fill="#98DB7C" d="M699,209.4c-3.1-1.1-5.9-1.3-8-1.1c1.7,0.1,3.6,0.4,5.7,1.1c9,3,11.3,9,10.1,14.2c-1,4.2-6.1,6.9-9.8,7.3
				c0.4,0,0.9,0.1,1.3,0.1c3.7,0,9.7-2.8,10.8-7.3C710.3,218.4,708,212.5,699,209.4z"/>
		</g>
		<path fill="#E6E2E6" d="M680.6,211.2c0,2.1-1.9,3.8-4.2,3.8s-4.2-1.7-4.2-3.8s1.9-3.8,4.2-3.8
			C678.7,207.4,680.6,209.1,680.6,211.2z"/>
		<path fill="#D8D1D7" d="M676.4,207.4c-0.4,0-0.8,0.1-1.2,0.1c1.7,0.5,3,1.9,3,3.6c0,1.7-1.3,3.2-3,3.6c0.4,0.1,0.8,0.1,1.2,0.1
			c2.3,0,4.2-1.7,4.2-3.8C680.6,209.1,678.7,207.4,676.4,207.4z"/>
		<path fill="#433F43" d="M676.4,209.7c-0.7,0-1.3,0.6-1.3,1.5c0,0.8,0.6,1.5,1.3,1.5s1.3-0.6,1.3-1.5S677.1,209.7,676.4,209.7z"/>
		<path fill="#98DB7C" d="M684,217.1c-0.3-0.1-0.7,0-0.8,0.3c0,0.1-0.8,1.6-2.7,2.7l-1.2,1.8c3.7-1.2,5-3.9,5.1-4
			C684.5,217.6,684.3,217.3,684,217.1z"/>
		<path fill="#82D361" d="M681.7,215c-0.3-0.1-0.7,0-0.9,0.3c0,0.1-0.8,1.3-2.6,1.4c-1.1,0.1-1.6-0.1-2.1-0.3s-1-0.4-1.8-0.2
			c-0.5,0.1-1.1,0.4-2,0.9c-1.3,0.7-3,1.6-4.8,1.8c0.2,0.1,0.4,0.3,0.6,0.3c0.9,0.3,1.7,0.3,2.5,0c0.9-0.4,1.7-0.8,2.4-1.2
			c0.6-0.3,1.3-0.7,1.6-0.7c0.4-0.1,0.7,0,1.1,0.2c0.6,0.2,1.3,0.5,2.7,0.4c2.5-0.2,3.6-2,3.6-2.1C682.1,215.5,682,215.1,681.7,215z
			"/>
	</g>
	<g>
		<path fill="#914D24" d="M193.1,124.2c-0.5-0.1-0.9,0.2-1,0.7c0,0-0.2,1-0.8,1.9c-0.5,0.8-1.1,1.3-1.8,1.6c0.4-2.8,0.2-5.1,0.1-5.2
			c-0.1-0.5-0.5-0.8-1-0.7c-0.5,0-0.8,0.5-0.8,0.9c0,0.1,0.7,7-2.4,10.7c0,0.1-0.1,0.1-0.1,0.2c-0.1,0-0.1,0-0.2,0
			c-2.2-0.1-3.9-0.8-5-2.1c-0.5-0.6-0.9-1.3-1.2-2l0,0c-1.2-3-0.5-6.7-0.5-6.7c0.1-0.5-0.2-0.9-0.7-1s-0.9,0.2-1,0.7
			c0,0.2-0.5,3.1,0.2,6.1c-2-1.1-2.7-4.2-2.7-4.3c-0.1-0.5-0.6-0.8-1-0.7c-0.5,0.1-0.8,0.5-0.7,1c0,0.1,0.3,1.4,1.1,2.8
			c1,1.8,2.4,2.8,4,3.1c0.3,0.7,0.7,1.4,1.2,2c1.5,1.7,3.6,2.6,6.3,2.7l0,0c0.4,0,0.7-0.2,0.8-0.5c0.1,0,0.1,0,0.2,0
			c0.3,0,0.5-0.1,0.7-0.3c1.2-1.4,1.9-3.1,2.3-4.9c3.1-0.5,4.4-3.4,4.7-5C193.9,124.7,193.6,124.2,193.1,124.2z"/>
		<path fill="#DD8858" d="M230.8,153.2c1.1-2.9,0.4-5.1-0.7-6.5c-1.4-1.8-3.6-2.9-6-2.9h-22.6c-1.9,0-3.8-0.9-4.9-2.4
			c-1.9-2.6-3.2-6.1-3.2-6.1c2.9-1.7,2.3-4.3,1.6-5.8c-0.3-0.6-1.1-0.7-1.5-0.3l-3.3,3.4l-16,7.1c-0.8,0.3-1.2,1.2-0.9,1.9
			c2.2,6.9,13.3,5.2,13.3,5.2s2.2,7.7,8.5,12.2v15.9c0,1.3,1.1,2.4,2.5,2.4s2.5-1.1,2.5-2.4v-14.6c0,0,8,1.1,18.3,1
			c0,0,1.4,3.2,4.7,3.8v9.8c0,1.3,1.1,2.4,2.5,2.4s2.5-1.1,2.5-2.4v-10.7C228.1,164.3,231.9,158.3,230.8,153.2L230.8,153.2z"/>
		<g>
			<path fill="#D97F4A" d="M190.6,136.1c0.5,1.2,1.6,3.5,2.9,5.3c1.1,1.5,3,2.4,4.9,2.4h3.2c-1.9,0-3.8-0.9-4.9-2.4
				c-1.9-2.6-3.2-6.1-3.2-6.1c2.9-1.7,2.3-4.3,1.6-5.8c-0.3-0.6-1.1-0.7-1.5-0.3l-1.3,1.3c0.3,1.3,0.3,3-1.3,4.3
				C190.5,135.1,190.4,135.7,190.6,136.1z"/>
			<path fill="#D97F4A" d="M215.3,161.3L215.3,161.3c-0.1,0-0.3,0-0.4,0C215,161.3,215.1,161.3,215.3,161.3z"/>
			<path fill="#D97F4A" d="M200.1,160.7c-1.7-0.2-3.1,1.1-3.1,2.7V175c0,0.8-0.4,1.4-1,1.9c0.4,0.3,1,0.5,1.6,0.5
				c1.4,0,2.5-1.1,2.5-2.4V160.7C200.2,160.7,200.1,160.7,200.1,160.7z"/>
			<path fill="#D97F4A" d="M230.8,153.2c1.1-2.9,0.4-5.1-0.7-6.5c-1.4-1.8-3.6-2.9-6-2.9H221c5.2,2.9,6.6,6.5,7,10.7
				c0.5,4.8-3.1,9.8-3.1,9.8V175c0,0.7-0.4,1.4-0.9,1.8c0.4,0.3,1,0.5,1.6,0.5c1.4,0,2.5-1.1,2.5-2.4v-10.7
				C228.1,164.3,231.9,158.3,230.8,153.2L230.8,153.2z"/>
		</g>
		<path fill="#CA6D36" d="M231.4,150.9c-0.8-1-1.7-2-2.8-2.8c-0.4-0.3-0.9-0.2-1.2,0.1c-0.3,0.4-0.2,0.9,0.1,1.2
			c1.5,1.1,2.6,2.5,3.4,3.9v-0.1l0,0C231.1,152.4,231.3,151.6,231.4,150.9z"/>
		<path fill="#433F43" d="M187.2,138c-1,0-1.8,0.9-1.8,2.1c0,1.2,0.8,2.1,1.8,2.1s1.8-0.9,1.8-2.1C189,139,188.2,138,187.2,138z"/>
		<path fill="#914D24" d="M173.3,141.7c0.1,0.4,0.2,0.7,0.4,1c1.1-0.3,1.9-1.4,1.9-2.5c0-0.3-0.1-0.6-0.2-0.9c0,0,0,0,0-0.1
			l-1.2,0.5C173.4,140.1,173.1,140.9,173.3,141.7z"/>
	</g>
	<g>
		<path fill="#AD5E2E" d="M518.2,125.8c-0.5,0-0.9-0.3-1-0.7c-0.5-2.4-2.3-4.1-5.3-4.9c-2.3-0.7-4.4-0.6-4.5-0.6c-0.5,0-1-0.3-1-0.8
			s0.4-0.9,0.9-0.9c0.1,0,2.5-0.1,5.2,0.6c3.6,1,5.9,3.2,6.6,6.2c0.1,0.5-0.2,0.9-0.8,1C518.4,125.8,518.3,125.8,518.2,125.8z"/>
		<path fill="#FFC265" d="M490.3,111.3v-6.8c4.5-0.8,7.2-3.1,7.3-7.7c0.1-4.8-5.1-9.6-5.1-9.6s4.8,1.8,8.4-1.6c0,0-2.1-4-9.1-2.3
			v-3.7c0-1-1-1.9-2.1-1.9c-1.2,0-2.1,0.8-2.1,1.9v3.7h-7v-3.7c0-1-1-1.9-2.1-1.9s-2.1,0.8-2.1,1.9v3.7c-7-1.6-9.1,2.3-9.1,2.3
			c3.6,3.4,8.4,1.6,8.4,1.6s-5.3,4.8-5.1,9.6c0.1,4.7,2.9,6.9,7.3,7.7v28.2c0,0.9,0.9,1.7,2,1.7h2.4c1.1,0,2-0.8,2-1.7v-3.6h6.9v3.6
			c0,0.9,0.9,1.7,2,1.7h2.4c1.1,0,2-0.8,2-1.7v-3.6h9.3v3.6c0,0.9,0.9,1.7,2,1.7h2.4c1.1,0,2-0.8,2-1.7v-5.3c0-5.9-5-11-11.7-11.8
			l-7.3-0.9C491.8,114.6,490.3,113.1,490.3,111.3z"/>
		<path fill="#FFB541" d="M482.1,131.4h-2.4c-1.1,0-2-0.8-2-1.7v3.1c0,0.9,0.9,1.7,2,1.7h2.4c1.1,0,2-0.8,2-1.7v-3.1
			C484.1,130.7,483.2,131.4,482.1,131.4z"/>
		<path fill="#FFB541" d="M510.9,131.4h-2.4c-1.1,0-2-0.8-2-1.7v3.1c0,0.9,0.9,1.7,2,1.7h2.4c1.1,0,2-0.8,2-1.7v-3.1
			C512.8,130.7,511.9,131.4,510.9,131.4z"/>
		<path fill="#FFB541" d="M495.3,131.4h-2.4c-1.1,0-2-0.8-2-1.7v3.1c0,0.9,0.9,1.7,2,1.7h2.4c1.1,0,2-0.8,2-1.7v-3.1
			C497.3,130.7,496.4,131.4,495.3,131.4z"/>
		<path fill="#433F43" d="M478.6,90.9c-1.1,0-2,0.9-2,2.2c0,1.2,0.9,2.2,2,2.2s2-0.9,2-2.2C480.5,91.9,479.7,90.9,478.6,90.9z"/>
		<path fill="#433F43" d="M489.7,90.9c-1.1,0-2,0.9-2,2.2c0,1.2,0.9,2.2,2,2.2s2-0.9,2-2.2C491.6,91.9,490.8,90.9,489.7,90.9z"/>
		<g>
			<path fill="#AD5E2E" d="M481,98c-0.5,0-1,0.4-1,0.9v0.8c0,0.5,0.4,0.9,1,0.9c0.5,0,1-0.4,1-0.9v-0.8C482,98.4,481.6,98,481,98z"
				/>
			<path fill="#AD5E2E" d="M486.8,98c-0.5,0-1,0.4-1,0.9v0.8c0,0.5,0.4,0.9,1,0.9c0.5,0,1-0.4,1-0.9v-0.8
				C487.7,98.4,487.3,98,486.8,98z"/>
			<path fill="#AD5E2E" d="M490.3,104.6c0,0-5.1,1-4.4,5.2c0.4,2.5,2.6,3.3,4.9,3.2c-0.3-0.5-0.5-1.1-0.5-1.7V104.6z"/>
			<path fill="#AD5E2E" d="M483.8,115.4c-1.3-1.8-3.9-2.1-6-1.9V124C484.5,123.7,485.9,118.3,483.8,115.4z"/>
			<path fill="#AD5E2E" d="M496.7,121.8c0-1.7-3.3-3.1-5.3-3.1s-2.8,0.9-2.8,2.6s1.7,3.8,3.7,3.8S496.7,123.5,496.7,121.8z"/>
			<path fill="#AD5E2E" d="M503.6,125.5c0.5,1.1,3,1.3,4.2,0.8c1.2-0.4,1.5-1.2,1-2.3c-0.5-1.1-2.1-2-3.4-1.6
				C504.2,122.9,503.1,124.4,503.6,125.5z"/>
			<path fill="#AD5E2E" d="M501.1,115.7l-4-0.5c0.2,2.4,1.4,4.9,4.8,5.3c2.6,0.3,4.2-1,5.2-2.7C505.4,116.7,503.4,116,501.1,115.7z"
				/>
		</g>
	</g>
	<g>
		<path fill="#FFBA7E" d="M126.3,411.8c-0.1,0-0.2,0-0.3-0.1c-0.5-0.2-0.7-0.7-0.5-1.2c1.4-4,1.2-7.3-0.7-9.8
			c-1.4-1.9-3.1-2.6-3.1-2.6c-0.5-0.2-0.7-0.7-0.5-1.2s0.7-0.7,1.2-0.5c0.1,0,2.3,0.9,3.9,3.2c2.8,3.8,2,8.3,0.9,11.5
			C127,411.5,126.6,411.8,126.3,411.8z"/>
		<path fill="#FFCB9D" d="M76.4,383.9l-7.5,5.5c-1.1,0.8-1.5,2.3-0.9,3.5c1,2.3,3.3,5.5,7.5,5.2c2.6-0.2,5.3-1.1,7.6-2.1
			c3.4-1.4,5-5.3,3.7-8.9C85.2,382.9,80.1,381.3,76.4,383.9z"/>
		<path fill="#FFBA7E" d="M86.8,387.2c-0.2-0.5-0.4-0.9-0.6-1.3c0.3,3-1.3,5.9-4.1,7.1c-2.3,1-5,1.9-7.6,2.1
			c-3.4,0.2-5.4-1.7-6.7-3.7c-0.1,0.5,0,1.1,0.2,1.6c1,2.3,3.3,5.5,7.5,5.2c2.6-0.2,5.3-1.1,7.6-2.1C86.4,394.6,88,390.7,86.8,387.2
			z"/>
		<path fill="#FFCB9D" d="M121.5,395.7c-1.9-1.7-4.4-2.6-6.9-2.6h-12.9c-7.8,3.5-2,14.5-13.6,15.4c-0.5,0-1,0-1.5,0
			c1.4,3,2.1,6.2,2.1,9.5v5.6c0,1.6,1.2,2.8,2.8,2.8s2.8-1.3,2.8-2.8V412h16.1c1.5,4.1,6.1,5.1,6.1,5.1v6.8c0,1.4,1.1,2.6,2.5,2.6
			c1.2,0,2.2-0.9,2.5-2.1c0.5-2.6,1.4-8.9,3.1-16.9C125.9,401.3,123.8,397.8,121.5,395.7z"/>
		<path fill="#FFBA7E" d="M121.5,395.7c-1.9-1.7-4.4-2.6-6.9-2.6h-3.3c2.5,0,5,0.9,6.9,2.6c2.3,2.1,4.3,5.6,3.1,11.8
			c-1.6,8-2.6,14.3-3.1,16.9c-0.1,0.6-0.4,1.1-0.8,1.5c0.4,0.4,1,0.6,1.6,0.6c1.2,0,2.2-0.9,2.5-2.1c0.5-2.6,1.4-8.9,3.1-16.9
			C125.9,401.3,123.8,397.8,121.5,395.7z"/>
		<path fill="#FFBA7E" d="M91,423.7c0,0.9-0.5,1.8-1.1,2.3c0.5,0.3,1,0.5,1.6,0.5c1.5,0,2.8-1.3,2.8-2.9V412c-1.8,0-3.3,1.5-3.3,3.3
			V423.7z"/>
		<path fill="#AD5E2E" d="M85.3,372.6c-8.7,0-10.9,7.3-11.4,13.1l2.4-1.8c3.7-2.7,8.8-1.1,10.4,3.3c1.2,3.5-0.4,7.4-3.7,8.9
			c-2.3,1-4.9,1.9-7.6,2.1c1.6,4.8,5.1,10.9,12.7,10.3c11.6-0.9,5.8-11.8,13.6-15.4C101.7,393.1,99.1,372.6,85.3,372.6z"/>
		<path fill="#A05528" d="M88.3,373c2.9,1.4,5.3,3.7,6.8,6.2c3,5,3.2,11.3,0.6,16.6c-2.2,4.6-2.2,10.9-10.9,11.6
			c-1,0.1-1.9,0-2.8-0.1c1.7,0.9,3.7,1.4,6.1,1.2c11.6-0.9,5.8-11.8,13.6-15.4C101.7,393.1,99.5,375.7,88.3,373z"/>
		<path fill="#FFCB9D" d="M84.5,380.9c0,0,0.5-2.7,2.7-2.2s2.6,3.3,1,4.5L84.5,380.9z"/>
		<path fill="#433F43" d="M79.7,386.8c-1,0-1.8,1-1.8,2.3s0.8,2.3,1.8,2.3s1.8-1,1.8-2.3S80.7,386.8,79.7,386.8z"/>
		<path fill="#AD5E2E" d="M68,393c0,0.1,0.1,0.2,0.1,0.3c1.7-0.2,2.9-1.6,2.9-3.4c0-0.5-0.1-1.1-0.4-1.6c0,0,0-0.1-0.1-0.1l-1.7,1.3
			C67.8,390.3,67.4,391.8,68,393z"/>
	</g>
	<g>
		<path fill="#DD8858" d="M355.7,430.5c-0.6-0.7-1.8-1.5-3.7-1.5c-3.5-0.1-10-0.2-10-0.2s2-5,0-12.5c-2-7.4-0.2-11.2-0.4-14.6
			c-0.2-3.5-1.1-6.3-5.2-6.4c-4.2-0.1-5,2.8-7.3,3.2c-2.4,0.4-3.9,0.4-3.9,1.5s0.3,4.9,4.6,4.9s2.3,5,1.7,7.4
			c-1.4,5.7,1.1,11,1.1,11c-0.3,0.3-0.5,0.5-0.7,0.8c-1.5,2-1.2,4.6-1.2,4.6s-3.2-0.5-4.8,0.6l-0.1,0.1c-1,0.7-0.4,2.2,0.8,2.2h28.7
			C355.8,431.5,356.1,430.9,355.7,430.5z"/>
		<g>
			<path fill="#D97F4A" d="M339.6,401.6c0.2,3.5-1.7,7.2,0.4,14.6c1.3,4.8,1,8.6,0.5,10.7c-0.2,0.9,0.5,1.7,1.5,1.7l0,0
				c0.1-0.1,2-5.1,0-12.5s-0.2-11.2-0.4-14.6c-0.2-3.5-1.1-6.3-5.2-6.4c-0.5,0-0.9,0-1.3,0.1C338.6,395.7,339.4,398.4,339.6,401.6z"
				/>
			<path fill="#D97F4A" d="M355.7,430.5c-0.6-0.7-1.8-1.5-3.7-1.5c-0.7,0-1.6,0-2.5-0.1c1.4,0.3,2.2,1,2.8,1.6
				c0.4,0.4,0.1,1.1-0.5,1.1h3.5C355.8,431.5,356.1,430.9,355.7,430.5z"/>
			<path fill="#D97F4A" d="M332.6,423.2C332.6,423.3,332.6,423.3,332.6,423.2c1.1-0.6,2.7-1,4.6-1.1c0.3,0,0.6-0.3,0.6-0.6
				c0-0.3-0.3-0.5-0.6-0.5c-1.9,0.1-3.7,0.5-4.9,1.2C332.4,422.9,332.6,423.2,332.6,423.2z"/>
		</g>
		<path fill="#433F43" d="M333,398.9c-0.7,0-1.2,0.6-1.2,1.4s0.5,1.4,1.2,1.4s1.2-0.6,1.2-1.4S333.7,398.9,333,398.9z"/>
		<path fill="#DD8858" d="M334.5,409.3c0,0,0.2,3.1-2.1,3.8c-2.3,0.6-5,0.6-5.3,3.1s0.4,3.8,1.4,3.5s0.5-2.6,1.9-3.1
			s4.5-0.4,5.7-1.4c1.2-1.1,1.9-3.4,1.9-3.4"/>
		<path fill="#D97F4A" d="M338.1,411.8c-0.7-0.5-1.6-0.3-2,0.5c-0.3,0.5-0.7,1.1-1.1,1.5c-1.2,1.1-4.3,0.9-5.7,1.4
			c-1.4,0.5-0.9,2.8-1.9,3.1c-0.1,0-0.1,0-0.1,0c0.2,1.1,0.7,1.5,1.4,1.4c1-0.3,0.5-2.6,1.9-3.1s4.5-0.4,5.7-1.4
			C337.4,414.1,338.1,411.8,338.1,411.8L338.1,411.8z"/>
		<path fill="#AD5E2E" d="M337.3,403.5c-0.3,0-0.5,0-0.8-0.1s-0.5-0.4-0.4-0.7c0.1-0.3,0.4-0.5,0.7-0.4c1.1,0.2,1.6-0.2,1.8-0.6
			c0.3-0.6,0.2-1.3-0.1-1.6c-0.8-0.6-1.7,0-1.7,0c-0.3,0.2-0.6,0.1-0.8-0.1c-0.2-0.2-0.1-0.6,0.1-0.8c0.6-0.4,2-0.9,3.1,0
			c0.8,0.6,1,1.9,0.4,2.9C339.1,403.1,338.3,403.5,337.3,403.5z"/>
		<path fill="#AD5E2E" d="M327.6,399.3c0-0.2,0-0.5-0.1-0.7c-1.4,0.2-2.3,0.4-2.3,1.2c0,0.3,0,0.8,0.1,1.4c0.1,0,0.2,0,0.3,0
			C326.7,401.2,327.6,400.4,327.6,399.3z"/>
	</g>
	<g>
		<path fill="#FFAE8B" d="M221.6,322.5c0-0.1,0.1-0.2,0.1-0.3c-0.3-0.1-0.6-0.1-0.9-0.1c-2.3,0-4.1,1.7-4.1,3.8
			c0,2.1,1.8,3.8,4.1,3.8c0.5,0,1-0.1,1.4-0.2C221.2,327.6,220.9,325.3,221.6,322.5z"/>
		<path fill="#FF9568" d="M220.8,327.1c-1.8,0-3.3-1-3.8-2.5c-0.2,0.4-0.3,0.8-0.3,1.3c0,2.1,1.8,3.8,4.1,3.8c0.5,0,1-0.1,1.4-0.2
			c-0.4-0.7-0.7-1.5-0.9-2.4C221.2,327.1,221,327.1,220.8,327.1z"/>
		<path fill="#FFAE8B" d="M253.8,322.5c0-0.1-0.1-0.2-0.1-0.3c0.3-0.1,0.6-0.1,0.9-0.1c2.3,0,4.1,1.7,4.1,3.8c0,2.1-1.8,3.8-4.1,3.8
			c-0.5,0-1-0.1-1.4-0.2C254.2,327.6,254.5,325.3,253.8,322.5z"/>
		<path fill="#FF9568" d="M254.6,327.1c1.8,0,3.3-1,3.9-2.5c0.2,0.4,0.3,0.8,0.3,1.3c0,2.1-1.8,3.8-4.1,3.8c-0.5,0-1-0.1-1.4-0.2
			c0.4-0.7,0.7-1.5,0.9-2.4C254.2,327.1,254.4,327.1,254.6,327.1z"/>
		<path fill="#FF7D43" d="M221.7,325c-0.3-0.3-0.8-0.2-1.1,0.1c-0.3,0.3-1.1,0.3-1.3,0.2c-0.4-0.1-0.8,0.2-0.9,0.5
			c-0.1,0.4,0.2,0.8,0.6,0.9c0,0,0.4,0.1,0.8,0.1c0.1,0,0.1,0,0.2,0c0.8,0,1.4-0.3,1.8-0.8C222.1,325.7,222,325.3,221.7,325z"/>
		<path fill="#FF7D43" d="M257,325.9c-0.1-0.4-0.5-0.6-0.9-0.6c-0.2,0-1,0.1-1.3-0.2c-0.3-0.3-0.8-0.3-1.1-0.1
			c-0.3,0.3-0.4,0.7-0.1,1c0.4,0.5,1.1,0.7,1.8,0.8c0.1,0,0.1,0,0.2,0c0.4,0,0.7-0.1,0.8-0.1C256.9,326.6,257.1,326.2,257,325.9z"/>
		<path fill="#AD5E2E" d="M261.5,348.6c-1.2-0.2-2.5,0.4-2.9,1.4c-0.5,1.2-1.6,2.6-3.5,2.6c-2.1,0-5.2-1.6-7.5-3.2
			c-0.1,1.2-0.3,2.5-0.7,3.8c1.7,1.8,4.5,3.4,8.6,3.3c4.7-0.1,6.9-2.6,7.9-4.7C263.9,350.5,263.1,348.9,261.5,348.6z"/>
		<path fill="#A05528" d="M255.3,354.5c-3.8,0-6.4-1.3-8.1-2.9c-0.1,0.5-0.2,1.1-0.4,1.6c1.7,1.8,4.5,3.4,8.6,3.3
			c4.7-0.1,6.9-2.6,7.9-4.7c0.3-0.7,0.3-1.4,0-2C262.2,351.9,260,354.4,255.3,354.5z"/>
		<path fill="#DD8858" d="M252.3,341.7c-0.6-3.3-2.5-6.3-4.1-8.2c-2.9,1.3-6.6,1.8-10.5,1.8c-4.1,0-8-0.7-11-2.1
			c-1.6,1.9-3.8,5.1-4.4,8.5c-1.1,6.4,4.8,7.2,4.8,7.2l0,0c0.1,1.9,0.4,4,1.3,5.9c0.5,1.1,1.6,1.7,2.8,1.7c1.5,0,2.8-1,3-2.3l0.6-3
			h4.8l0.6,3c0.3,1.4,1.5,2.3,3,2.3c1.2,0,2.4-0.7,2.8-1.7c0.9-1.9,1.3-4,1.3-5.9l0,0C247.5,348.9,253.4,348,252.3,341.7z"/>
		<g>
			<path fill="#D97F4A" d="M227.5,344.2c-2.5,0.1-4.1-1-5.2-2.5c-1.1,6.4,4.8,7.2,4.8,7.2C227.1,347.2,227.2,345.5,227.5,344.2z"/>
			<path fill="#D97F4A" d="M247.1,344.2c2.5,0.1,4.1-1,5.2-2.5c1.1,6.4-4.8,7.2-4.8,7.2C247.5,347.2,247.4,345.5,247.1,344.2z"/>
			<path fill="#D97F4A" d="M231.4,353.2c-1.7-0.2-3-1-4-1.8c0.2,1.1,0.5,2.3,1.1,3.4c0.5,1.1,1.6,1.7,2.8,1.7c1.5,0,2.8-1,3-2.3
				l0.2-1.1C233.8,353.2,232.7,353.3,231.4,353.2z"/>
			<path fill="#D97F4A" d="M243.2,353.2c1.7-0.2,3-1,4-1.8c-0.2,1.1-0.5,2.3-1.1,3.4c-0.5,1.1-1.6,1.7-2.8,1.7c-1.5,0-2.8-1-3-2.3
				L240,353C240.8,353.2,241.9,353.3,243.2,353.2z"/>
		</g>
		<path fill="#FFCB9D" d="M253.8,322.5c-0.9-3.3-2.8-5.8-5-7.5c-1.7-1.3-3.5-2.3-5.5-2.9l0,0c-3-1.4-8.4-2.2-10.1-2.3
			c-1.3-0.1-2-0.5-2.5-1c-0.4-0.4-1.1-0.3-1.4,0.2c-1,1.7-0.8,3.6-0.5,4.6c-0.7,0.4-1.4,0.9-2.1,1.4c-2.2,1.7-4.1,4.2-5,7.5
			c-2.5,9.1,6.4,12.7,16.1,12.7S256.3,331.6,253.8,322.5z"/>
		<path fill="#FFBA7E" d="M237.7,332.7c-8,0-15.5-2.5-16.4-8.5c-1.1,7.9,7.3,11.1,16.4,11.1s17.5-3.2,16.4-11.1
			C253.2,330.2,245.7,332.7,237.7,332.7z"/>
		<path fill="#DD8858" d="M253.8,322.5c-0.9-3.3-2.8-5.8-5-7.5c-1.7-1.3-3.5-2.3-5.5-2.9l0,0c-3-1.4-8.4-2.2-10.1-2.3
			c-1.3-0.1-2-0.5-2.5-1c-0.4-0.4-1.1-0.3-1.4,0.2c-1,1.7-0.8,3.6-0.5,4.6c-0.7,0.4-1.4,0.9-2.1,1.4c-2.2,1.7-4.1,4.2-5,7.5
			c-0.3,1.1-0.4,2.1-0.4,3c1-0.3,2.2-0.9,3.5-2.3c2.5-2.8,2.4-5.8,5.9-5.9c2.6-0.1,3.3,2.1,7.1,2.1s4.5-2.2,7.1-2.1
			c3.5,0.1,3.4,3.1,5.9,5.9c1.2,1.4,2.5,2,3.5,2.3C254.2,324.6,254.1,323.6,253.8,322.5z"/>
		<path fill="#433F43" d="M230.1,321.8c-0.9,0-1.6,0.8-1.6,1.8s0.7,1.8,1.6,1.8s1.6-0.8,1.6-1.8S231,321.8,230.1,321.8z"/>
		<path fill="#433F43" d="M245,321.8c-0.9,0-1.6,0.8-1.6,1.8s0.7,1.8,1.6,1.8s1.6-0.8,1.6-1.8S245.9,321.8,245,321.8z"/>
		<path fill="#CA6D36" d="M228.9,339.3c-0.4-0.2-0.9,0-1,0.4c0,0.1-1.1,2.3-1.8,5.4c-0.3,1.2-0.4,2.3-0.5,3.3
			c0.8,0.4,1.5,0.5,1.5,0.5c0.3-4.6,2.2-8.5,2.2-8.6C229.5,339.9,229.3,339.5,228.9,339.3z"/>
		<path fill="#CA6D36" d="M248.5,345.1c-0.7-3.1-1.8-5.3-1.8-5.4c-0.2-0.4-0.6-0.5-1-0.4c-0.4,0.2-0.6,0.6-0.4,1
			c0,0.1,1.9,4,2.2,8.6c0.1,0,0.7-0.1,1.5-0.5C249,347.4,248.8,346.3,248.5,345.1z"/>
		<path fill="#AD5E2E" d="M240,325.6c0-0.3-0.1-0.9-1.1-1.1c-0.3-0.1-0.7-0.1-1.3-0.1s-1,0-1.3,0.1c-1,0.2-1.1,0.8-1.1,1.1
			c0,0.7,0.7,1.3,1.6,1.6v1.6c0,0.4,0.4,0.7,0.8,0.7c0.4,0,0.8-0.3,0.8-0.7v-1.6C239.3,326.9,240,326.3,240,325.6z"/>
	</g>
	<g>
		<path fill="#8C808A" d="M314.3,137.6c-1.1-2-2.4-3.6-3.6-4.9c-0.1-0.1-0.2-0.2-0.3-0.3c0.4-0.7,0.9-1.3,1.5-1.7
			c1.8-1.3,4.3-0.9,5.7,0.8c1.3,1.7,1,4.1-0.8,5.3C316,137.2,315.2,137.5,314.3,137.6z"/>
		<path fill="#7B7179" d="M314.3,137.6c-0.4-0.7-0.8-1.3-1.1-1.9c0.8-0.1,1.5-0.4,2.1-0.8c1.4-1,2-2.8,1.4-4.3
			c0.3,0.2,0.6,0.5,0.9,0.8c1.3,1.7,1,4.1-0.8,5.3C316,137.2,315.2,137.5,314.3,137.6z"/>
		<path fill="#E6E2E6" d="M313,151.6L313,151.6c-2.7,1.5-6.8,2.2-12.1,2.2c-5.3,0-9.4-0.7-12.1-2.2l0,0c0,0-3.9,6.8-3.9,13
			c0,6.4,16,6.4,16,6.4s16,0,16-6.4C316.8,158.5,313,151.6,313,151.6z"/>
		<path fill="#D8D1D7" d="M300.9,168.7c0,0-14.7,0-15.9-5.7c-0.1,0.5-0.1,1-0.1,1.6c0,6.4,16,6.4,16,6.4s16,0,16-6.4
			c0-0.5,0-1-0.1-1.6C315.6,168.7,300.9,168.7,300.9,168.7z"/>
		<path fill="#8C808A" d="M300.9,153.8c-5.3,0-9.4-0.7-12.1-2.2c-0.1,5.5,0.2,19.4,4.1,19.4c4.9,0,4.8-13.2,4.8-13.2h6.4
			c0,0-0.1,13.2,4.8,13.2c3.9,0,4.2-13.9,4.1-19.4C310.3,153.1,306.2,153.8,300.9,153.8z"/>
		<path fill="#7B7179" d="M300.9,153.8c-5.3,0-9.4-0.7-12.1-2.2c0,0.7,0,1.5,0,2.3c2.7,1.5,6.8,2.2,12.1,2.2c5.3,0,9.4-0.7,12.1-2.2
			c0-0.9,0-1.7,0-2.3C310.3,153.1,306.2,153.8,300.9,153.8z"/>
		<path fill="#8C808A" d="M287.4,137.6c1.1-2,2.4-3.6,3.6-4.9c0.1-0.1,0.2-0.2,0.3-0.3c-0.4-0.7-0.9-1.3-1.5-1.7
			c-1.8-1.3-4.3-0.9-5.7,0.8c-1.3,1.7-1,4.1,0.8,5.3C285.7,137.2,286.5,137.5,287.4,137.6z"/>
		<path fill="#7B7179" d="M287.4,137.6c0.4-0.7,0.8-1.3,1.1-1.9c-0.8-0.1-1.5-0.4-2.1-0.8c-1.4-1-2-2.8-1.4-4.3
			c-0.3,0.2-0.6,0.5-0.9,0.8c-1.3,1.7-1,4.1,0.8,5.3C285.7,137.2,286.5,137.5,287.4,137.6z"/>
		<path fill="#E6E2E6" d="M300.9,153.8c13.8,0,19.3-4.7,13.9-15.3c-1.2-2.4-2.6-4.3-4.1-5.8c-5.3-5.4-14.4-5.4-19.7,0
			c-1.4,1.5-2.8,3.4-4.1,5.8C281.6,149.1,287,153.8,300.9,153.8z"/>
		<path fill="#D8D1D7" d="M300.9,151.5c-9.6,0-15.2-2.3-15.9-7.2c-0.8,6.6,4.9,9.5,15.9,9.5s16.7-3,15.9-9.5
			C316,149.2,310.5,151.5,300.9,151.5z"/>
		<path fill="#8C808A" d="M295.9,140.6c0-2-1.6-3.2-3.7-2.7c-2,0.5-4.2,3.1-4.2,5.1s2.4,2.9,4.2,2.2
			C294.2,144.5,295.9,142.6,295.9,140.6z"/>
		<path fill="#8C808A" d="M305.8,140.6c0-2,1.6-3.2,3.7-2.7c2,0.5,4.2,3.1,4.2,5.1s-2.4,2.9-4.2,2.2
			C307.5,144.5,305.8,142.6,305.8,140.6z"/>
		<g>
			<path fill="#433F43" d="M292.2,140c-0.8,0-1.4,0.7-1.4,1.6c0,0.9,0.6,1.6,1.4,1.6s1.4-0.7,1.4-1.6S293,140,292.2,140z"/>
			<path fill="#433F43" d="M309.5,140c-0.8,0-1.4,0.7-1.4,1.6c0,0.9,0.6,1.6,1.4,1.6s1.4-0.7,1.4-1.6S310.3,140,309.5,140z"/>
			<path fill="#433F43" d="M304.6,145.4c-0.3-0.3-0.7-0.3-1,0s-0.6,0.4-0.9,0.4c-0.4-0.1-0.7-0.6-1-1.1c0.7-0.2,1.3-0.8,1.3-1.4
				c0-0.2-0.1-0.8-1-1c-0.3-0.1-0.6-0.1-1.2-0.1s-0.9,0-1.2,0.1c-0.9,0.2-1,0.7-1,1c0,0.6,0.5,1.1,1.3,1.4c-0.2,0.5-0.6,1-1,1.1
				c-0.2,0.1-0.5-0.1-0.9-0.4c-0.3-0.2-0.7-0.2-1,0c-0.3,0.3-0.2,0.7,0,0.9c0.9,0.8,1.7,0.8,2.2,0.7c0.7-0.2,1.2-0.7,1.5-1.2
				c0.3,0.5,0.8,1,1.5,1.2c0.1,0,0.3,0.1,0.5,0.1c0.5,0,1.1-0.2,1.7-0.7C304.8,146.1,304.8,145.7,304.6,145.4z"/>
		</g>
	</g>
	<g>
		<path fill="#FFA812" d="M700.7,315.2c-0.2-0.3-0.6-0.3-0.9-0.1c0,0-0.3,0.2-0.7,0.6c0-0.1,0-0.3-0.1-0.4c-0.2-0.3-0.6-0.3-0.9-0.1
			c0,0-0.2,0.2-0.5,0.5c0-0.1,0-0.2,0-0.3c-0.1-0.3-0.5-0.5-0.8-0.3c-0.1,0-2.9,1.3-2.9,4.1c0,0.3,0.3,0.6,0.6,0.6s0.6-0.3,0.6-0.6
			c0-1.8,1.7-2.7,2.1-2.9c-0.6,0.7-1.1,1.8-1.1,3.1c0,0.3,0.3,0.6,0.6,0.6c0.4,0,0.6-0.3,0.6-0.6c0-1.5,1.1-2.6,1.5-3
			c-0.4,0.7-0.8,1.8-0.4,3.1c0.1,0.3,0.3,0.5,0.6,0.5c0.1,0,0.1,0,0.2,0c0.3-0.1,0.6-0.4,0.5-0.8c-0.5-1.9,1-3,1-3
			C700.9,315.9,700.9,315.5,700.7,315.2z"/>
		<path fill="#FFA812" d="M693.8,314.3c-0.2-0.3-0.5-0.4-0.9-0.3c0,0-0.1,0.1-0.3,0.1c0-0.1,0-0.3,0-0.4c-0.1-0.3-0.5-0.4-0.9-0.3
			l0,0c0-0.3-0.3-0.6-0.6-0.6c-0.1,0-3.3-0.1-4.7,3c-0.1,0.3,0,0.7,0.3,0.8c0.1,0,0.2,0.1,0.3,0.1c0.2,0,0.5-0.1,0.6-0.4
			c0.7-1.6,2.1-2.1,2.9-2.2c-0.9,0.6-2.1,1.6-2.5,3c-0.1,0.3,0.1,0.7,0.4,0.8c0.1,0,0.1,0,0.2,0c0.3,0,0.5-0.2,0.6-0.4
			c0.4-1.2,1.6-2.1,2.3-2.6c-0.7,0.6-1.3,1.6-1.4,3c0,0.3,0.3,0.6,0.6,0.6l0,0c0.3,0,0.6-0.3,0.6-0.6c0.1-2,1.9-2.8,2-2.9
			C693.9,314.9,694,314.6,693.8,314.3z"/>
		<path fill="#8C808A" d="M706.7,310.6c-0.6-6.3-5.3-7.3-7-9.1c-1.7-1.9,1.5-3.1,3.9-7.6c2.4-4.4,1.9-12.8-6.9-13.7
			c-7.9-0.8-10.4,5.5-10.4,5.5c1.7,0,3.1,1.1,3.5,2.7c0.8,3.2-0.4,6.2-0.4,6.2s-1,2.6-2.6,2.6c-0.6,0-1.3,0-2,0.1
			c-0.1,5.9,1,12.5,5.6,15.7c7.7,5.4,13.9,1.4,13.9,1.4c1.1,3.9,3.6,6.7,3.6,6.7c4-0.5,5.3-3.3,5.3-3.3
			C711.6,313.6,706.7,310.6,706.7,310.6z"/>
		<path fill="#E6E2E6" d="M689.8,288.4c0.8,3.2-0.4,6.2-0.4,6.2s-1,2.6-2.6,2.6c-0.6,0-1.3,0-2,0.1c0,3,0.2,6.3,1.1,9.1
			c5.4,3,7.2-1.4,7.4-3.7c0.3-2.7,0.4-4.8,3.1-7.4c2.6-2.6,2.7-7.8-1-10.3s-9.2,0.8-9.2,0.8C687.9,285.7,689.4,286.8,689.8,288.4z"
			/>
		<path fill="#FF9A00" d="M676.9,295c-0.7,0.3-1.2,0.7-1.6,1.2c2.9,1.2,7.6,1,11.5,0.9c1.6-0.1,2.6-2.6,2.6-2.6
			S680.3,293.7,676.9,295z"/>
		<path fill="#FFC265" d="M689.8,288.4c-0.4-1.6-1.8-2.7-3.5-2.7c-3.8,0-11,0.5-13.9,4.7c-3.2,4.8-0.6,9.9,1.1,10
			c1.7,0,0.2-3.9,3.5-5.2c3.3-1.4,12.4-0.5,12.4-0.5S690.6,291.6,689.8,288.4z"/>
		<path fill="#FFB541" d="M675.5,293c-3.5,1.4-2.5,5.2-3.6,6.1c0.5,0.7,1.1,1.2,1.5,1.2c1.7,0,0.2-3.9,3.5-5.2
			c3.3-1.4,12.4-0.5,12.4-0.5s0.4-0.8,0.6-2.1C687.9,292.2,679,291.6,675.5,293z"/>
		<path fill="#7B7179" d="M701.2,311.1c-0.7,0-1.4-0.2-2.1-0.5c-2.3-1.1-3.1-3.6-3.1-3.7c-0.1-0.3,0.1-0.7,0.4-0.8
			c0.3-0.1,0.7,0.1,0.8,0.4c0,0,0.7,2.2,2.5,3c0.9,0.4,2,0.4,3.1,0c0.3-0.1,0.7,0,0.8,0.4c0.1,0.3,0,0.7-0.4,0.8
			C702.5,311,701.8,311.1,701.2,311.1z"/>
		<path fill="#433F43" d="M693.8,288c-0.7,0-1.3,0.7-1.3,1.6s0.6,1.6,1.3,1.6s1.3-0.7,1.3-1.6S694.5,288,693.8,288z"/>
		<path fill="#7B7179" d="M704.2,312.3c-2.2,0.9-7.8,2.6-13.8-1.6c-1.4-1-2.5-2.3-3.3-3.8c-0.4-0.1-0.8-0.3-1.2-0.6
			c0.9,2.7,2.3,5,4.5,6.6c7.7,5.4,13.9,1.4,13.9,1.4c1.1,3.9,3.6,6.7,3.6,6.7c1-0.1,1.8-0.4,2.5-0.7c-1-1.2-3.3-4.6-4.8-7.5
			C705.4,312.3,704.8,312.1,704.2,312.3z"/>
	</g>
	<g>
		<path fill="#DD8858" d="M431.5,172.3c-1.3-0.9-3.3-2.9-4.5-6.5c-1.9-5.5,0.3-9.6-4.2-14c-6.9-6.7-17.3-6.9-19.6-8.2
			c-2.3-1.3-4.9-5.6-5.4-11.2c-0.5-5.6-5.8-5.8-5.8-5.8v4.9c0,0-7.2,1.9-9.7,4.1c-1.3,1.1-1.7,2.9-1.8,4.4c-0.1,1.3,1.2,2.4,2.7,2.2
			l8.7-0.9c0,0,1.1,3.6,3.4,7.8l0,0c0,0,1.3,2.3-1.1,5.5c-1.6,2.1-3.1,5.2-0.5,7.1c0.8,0.6,2.1,0.2,2.2-0.7c0.2-1.3,0.8-3.1,2.3-4.3
			c0.5-0.4,0.9-0.8,1.3-1.1c0.7,0.8,1.4,1.6,2.2,2.3l0,0c0,0.1,0,0.2,0,0.2c-1.1,5.9,6,7.7,6,7.7v4.6h-6.4c-2.1,0-3.5,0.8-4.2,1.6
			c-0.5,0.5-0.1,1.3,0.7,1.3h13.1c1.5,0,2.6-1,2.6-2.3v-4.4c7.2-0.8,8-7.3,8-7.3s0.5,8.9,3.2,11.4c1.8,1.7,4.8,2.2,6.5,2.4
			C431.5,172.9,431.8,172.5,431.5,172.3z"/>
		<g>
			<path fill="#D97F4A" d="M394.7,132.4c0.5,5.6,3.4,11.4,5.8,12.6c4,2.1,11.2,1.2,19.2,7.1c5.2,3.8,2.4,8.2,4.3,13.7
				c1.3,3.8,3.5,5.8,4.7,6.6c0.9,0.2,1.8,0.4,2.4,0.4c0.4,0,0.6-0.4,0.3-0.6c-1.3-0.9-3.3-2.9-4.5-6.5c-1.9-5.5,0.3-9.6-4.2-14
				c-6.9-6.7-17.3-6.9-19.6-8.2c-2.3-1.3-4.9-5.6-5.4-11.2c-0.5-5.6-5.8-5.8-5.8-5.8v0.9C393.1,128.2,394.5,129.7,394.7,132.4z"/>
			<path fill="#D97F4A" d="M413.4,166.4c-1.6,0-2.9,1.1-2.9,2.5v1.9c0,1.3-1.2,2.3-2.6,2.3h2.9c1.5,0,2.6-1,2.6-2.3V166.4z"/>
			<path fill="#D97F4A" d="M401.6,152c-1.3-0.6-2.8-0.1-3.4,1c-0.6,1.2-1.6,2.4-3,3.5c-1.5,1.3-2.1,3-2.3,4.3l0,0
				c0.2,0.2,0.4,0.5,0.7,0.7c0.8,0.6,2.1,0.2,2.2-0.7c0.2-1.3,0.8-3.1,2.3-4.3C400.8,154.2,401.5,154,401.6,152L401.6,152z"/>
		</g>
		<path fill="#433F43" d="M389.2,134.4c-0.9,0-1.7,0.8-1.7,1.8s0.7,1.8,1.7,1.8s1.7-0.8,1.7-1.8
			C390.9,135.2,390.1,134.4,389.2,134.4z"/>
	</g>
	<g>
		<path fill="#FFDCA7" d="M616.7,154.3v-6.2c0-0.1,0-0.1,0-0.1c-0.3-0.2-0.6-0.4-0.9-0.5c-0.7-0.4-1.6,0.1-1.6,0.9v7
			C615.5,154.7,616.7,154.3,616.7,154.3z"/>
		<path fill="#FFDCA7" d="M638.8,172.2c-0.1,1-0.4,1.8-0.8,2.6c-0.3,0.6-0.8,1.2-1.2,1.7c0.5,0.4,1,0.6,1.7,0.6
			c1.4,0,2.6-1.1,2.6-2.4C641.1,173.4,640.1,172.4,638.8,172.2z"/>
		<path fill="#FFE9C8" d="M638.2,168.6c-2.8-6.7-14.8-9.1-14.8-9.1c-0.4-3-2.5-4.6-2.5-4.6c1.4-4.3-1.3-6.6-3-7.5
			c-0.6-0.3-1.3,0.1-1.3,0.7v6.2c0,0-6.5,2.4-6.8,5.1c-0.3,2.3,1.9,4,6.7,5.3c0,0,2.6,3.9,3.1,5.8c0.3,1.3,0.4,4.7,0.4,6.7
			c0,0.9,0.8,1.6,1.7,1.6s1.7-0.7,1.7-1.6c0,0.9,0.8,1.6,1.7,1.6h6c2.9,0,5.6-1.5,6.9-4C638.9,173.2,639.3,171.1,638.2,168.6z
			 M625.1,175.5c-0.9,0-1.7,0.7-1.7,1.6V172c0,0,2.4,2.6,6.2,3.5H625.1z"/>
		<path fill="#FFCF86" d="M638.1,177.1c0.5-0.5,1-1.1,1.4-1.8s0.7-1.5,0.8-2.4c-0.4-0.3-0.9-0.6-1.4-0.6c-0.1,1-0.4,1.8-0.8,2.6
			c-0.3,0.6-0.8,1.2-1.2,1.7C637.2,176.8,637.6,177,638.1,177.1z"/>
		<path fill="#FFDCA7" d="M638.2,168.6c-2.8-6.7-14.8-9.1-14.8-9.1c-0.4-3-2.5-4.6-2.5-4.6c1.4-4.3-1.3-6.6-3-7.5
			c-0.5-0.2-1-0.1-1.2,0.4c1.7,1.1,3.7,3.3,2.4,7.2c0,0,2.2,2.6,2.7,5.4c0,0.2,0.2,0.4,0.5,0.5c2,0.5,11.1,2.7,14.1,7.8
			c1.4,2.3,0.7,4.5-0.2,6.1c-1.3,2.5-4,4-6.9,4h1.8c2.9,0,5.6-1.5,6.9-4C638.9,173.2,639.3,171.1,638.2,168.6z"/>
		<path fill="#433F43" d="M615.8,157.6c-0.6,0-1,0.5-1,1.2s0.4,1.2,1,1.2s1-0.5,1-1.2S616.3,157.6,615.8,157.6z"/>
		<path fill="#FFDCA7" d="M631.8,167.8L631.8,167.8c-0.1,0-2.5,0.1-3.6,2.9c-0.8,2.1,0,3.8,0.6,4.6c0.3,0.1,0.5,0.2,0.8,0.2h0.5
			c0-0.1,0-0.2-0.1-0.3c0,0-1.7-1.7-0.8-4.2c0.8-2.2,2.6-2.3,2.7-2.3c0.3,0,0.5-0.2,0.5-0.5C632.3,168,632.1,167.8,631.8,167.8z"/>
	</g>
	<g>
		<path fill="#A4A8AB" d="M280.6,235.4c-3.3-3.4-8.9-4-11.8-4c-1.1,0-2,0.8-2.1,1.8c-0.2,2.8-0.2,8.1,3.1,11.5
			c4.6,4.8,13.7,4,13.7,4S285.2,240.2,280.6,235.4z"/>
		<path fill="#4A5058" d="M268.8,231.4c-1.1,0-2,0.8-2.1,1.8s-0.1,2.4,0,4l6.3-5.4C271.4,231.5,269.9,231.4,268.8,231.4z
			 M277.2,248.3l6.5-5.6c-0.2-1.4-0.5-2.9-1.1-4.3l-9.8,8.4C274.2,247.5,275.7,248,277.2,248.3z M277.1,233l-9.5,8.2
			c0.5,1.2,1.1,2.4,2.1,3.4l10.8-9.3C279.6,234.3,278.4,233.6,277.1,233z"/>
		<image width="6" height="5" xlink:href="F0FEE2CD.png"  transform="matrix(1 0 0 1 278 244)">
		</image>
		<path fill="#A4A8AB" d="M300.9,254.1c0-1.3-1.1-2.3-2.4-2.3l0,0c-1.3,0-2.4,1-2.4,2.3v6.6c0,0.8,0.7,1.5,1.6,1.5h3.2L300.9,254.1
			L300.9,254.1L300.9,254.1z"/>
		<path fill="#4A5058" d="M302.6,258.6h-1.7v3.6h1.7c1,0,1.9-0.8,1.9-1.8l0,0C304.4,259.4,303.6,258.6,302.6,258.6z"/>
		<image width="9" height="12" xlink:href="F0FEE2CF.png"  transform="matrix(1 0 0 1 296 251)">
		</image>
		<path fill="#A4A8AB" d="M297.8,244.4h-9.9c-4.6,0-8.3,3.5-8.3,7.9c0,1.3,0.6,2.6,1.5,3.5v5c0,0.8,0.7,1.5,1.6,1.5h3.2v-4.8h5.4
			v3.3c0,0.8,0.7,1.5,1.6,1.5h3.2v-5c3.9-0.8,6.8-4.1,6.8-8l0,0C302.8,246.5,300.6,244.4,297.8,244.4z"/>
		<image width="17" height="9" xlink:href="F0FEE2CA.png"  transform="matrix(1 0 0 1 286 244)">
		</image>
		<path fill="#4A5058" d="M299.3,226c2.7,4.4-1.1,7.6-2.6,8.4c-1.5,0.8-6.3,2.4-9-2s-2.2-10.5,0.4-11.9
			C290.7,219.1,296.6,221.6,299.3,226z"/>
		<path fill="#EDBCB9" d="M295.9,227.5c1.3,2.1-0.3,3.5-1.1,3.9c-0.8,0.4-2.8,1.1-4.1-1.1s-1.7-5.3-0.3-6.1
			C291.9,223.5,294.6,225.4,295.9,227.5z"/>
		<path fill="#4A5058" d="M309.4,226c-2.7,4.4,1.1,7.6,2.6,8.4c1.5,0.8,6.3,2.4,9-2s2.2-10.5-0.4-11.9S312.1,221.6,309.4,226z"/>
		<path fill="#EDBCB9" d="M312.8,227.5c-1.3,2.1,0.3,3.5,1.1,3.9c0.8,0.4,2.8,1.1,4.1-1.1c1.3-2.1,1.7-5.3,0.3-6.1
			C316.8,223.5,314.1,225.4,312.8,227.5z"/>
		<path fill="#A4A8AB" d="M323.1,238.2c0,7.9-11.5,12.4-18.8,12.4c-7.2,0-18.8-4.5-18.8-12.4s8.4-13,18.8-13
			S323.1,230.3,323.1,238.2z"/>
		<path fill="#EDBCB9" d="M305.6,243.5c-0.7,0-1.2-0.5-1.2-1.2c0,0.7-0.6,1.2-1.2,1.2c-0.3,0-0.6-0.1-0.9-0.3v1.7c0,1.1,0.9,2,2.1,2
			s2.1-0.9,2.1-2v-1.7C306.2,243.4,305.9,243.5,305.6,243.5z"/>
		<path fill="#D46D59" d="M304.4,245.6c-0.7,0-1.3,0.2-1.7,0.5c0.4,0.5,1,0.8,1.7,0.8s1.3-0.3,1.7-0.8
			C305.7,245.8,305,245.6,304.4,245.6z"/>
		<path fill="#4A5058" d="M305.6,244.4c-0.5,0-0.9-0.1-1.2-0.4c-0.4,0.2-0.8,0.4-1.2,0.4c-1.2,0-2.1-0.9-2.1-2
			c0-0.5,0.4-0.9,0.9-0.9s0.9,0.4,0.9,0.9c0,0.2,0.2,0.3,0.3,0.3c0.2,0,0.3-0.1,0.3-0.3c0-0.5,0.4-0.9,0.9-0.9s0.9,0.4,0.9,0.9
			c0,0.2,0.2,0.3,0.3,0.3c0.2,0,0.3-0.1,0.3-0.3c0-0.5,0.4-0.9,0.9-0.9s0.9,0.4,0.9,0.9C307.8,243.5,306.8,244.4,305.6,244.4z"/>
		<path fill="#E8E8E8" d="M293.7,230.5H289c-2.1,2.1-3.4,4.7-3.4,7.8c0,1.3,0.3,2.5,0.8,3.6h7.3c3.3,0,6-2.5,6-5.7l0,0
			C299.7,233,297,230.5,293.7,230.5z"/>
		<g>
			<path fill="#4A5058" d="M292.7,233.3h-5.9c-0.8,1.5-1.2,3.1-1.2,4.9c0,1.3,0.3,2.5,0.8,3.6h6.2c2.5,0,4.5-1.9,4.5-4.2
				C297.1,235.2,295.1,233.3,292.7,233.3z"/>
			<path fill="#4A5058" d="M307.4,238l-0.7,0.8c-1.2,1.4-3.4,1.4-4.6,0l-0.7-0.8c-0.4-0.4-0.1-1,0.5-1h5
				C307.4,237,307.7,237.6,307.4,238z"/>
		</g>
		<path fill="#E8E8E8" d="M315,230.5h4.7c2.1,2.1,3.4,4.7,3.4,7.8c0,1.3-0.3,2.5-0.8,3.6H315c-3.3,0-6-2.5-6-5.7l0,0
			C309,233,311.7,230.5,315,230.5z"/>
		<path fill="#4A5058" d="M316.1,233.3h5.9c0.8,1.5,1.2,3.1,1.2,4.9c0,1.3-0.3,2.5-0.8,3.6h-6.2c-2.5,0-4.5-1.9-4.5-4.2
			C311.6,235.2,313.6,233.3,316.1,233.3z"/>
		<g>
			<path fill="#FFFFFF" d="M292.7,239.1c-0.5,0-0.9-0.4-0.9-0.9v-1.3c0-0.5,0.4-0.9,0.9-0.9s0.9,0.4,0.9,0.9v1.3
				C293.6,238.7,293.2,239.1,292.7,239.1z"/>
			<path fill="#FFFFFF" d="M316.1,239.1c-0.5,0-0.9-0.4-0.9-0.9v-1.3c0-0.5,0.4-0.9,0.9-0.9s0.9,0.4,0.9,0.9v1.3
				C317,238.7,316.6,239.1,316.1,239.1z"/>
		</g>
		<g>
			<path fill="#4A5058" d="M287.5,258.6h-1.7v3.6h1.7c1,0,1.9-0.8,1.9-1.8l0,0C289.4,259.4,288.6,258.6,287.5,258.6z"/>
			<path fill="#4A5058" d="M297.8,258.6h-1.7v3.6h1.7c1,0,1.9-0.8,1.9-1.8l0,0C299.6,259.4,298.8,258.6,297.8,258.6z"/>
		</g>
	</g>
	<g>
		<path fill="#FFCB9D" d="M580.1,211c0.6,2.1,1.7,5,3.2,5c1.2,0,2-2,2.4-4.1C583,212.3,580.6,211.2,580.1,211z"/>
		<path fill="#FFCB9D" d="M565.9,210c0,0-2.8,1.4-6,1.1c0.6,2.1,1.7,4.9,3.2,4.9C564.6,216,565.5,212.5,565.9,210L565.9,210z"/>
		<path fill="#FFE9C8" d="M554.6,197.1c0,0-3.2-4.9,0-8.7c3.1-3.6,8.4-2.3,8.4-2.3s1.9-3.7,6.1-4.2c4.6-0.6,7,2.6,7,2.6
			s5-2.1,8.6,0.4s2.7,5.7,2.7,5.7s5,0.2,6.2,4.1c1.1,3.7-1.9,6.1-1.9,6.1s3.8,6-1.9,9.7c-4.7,3.1-9.7,0.4-9.7,0.4s-2.5,3-8.4,2.4
			c-4.1-0.4-5.8-3.3-5.8-3.3s-6,2.9-10.3-0.6C550.8,205.4,554.6,197.1,554.6,197.1z"/>
		<path fill="#FFBA7E" d="M565.9,210L565.9,210c0,0-2.8,1.4-6,1.1c0.2,0.7,0.4,1.4,0.7,2.1c2.1,0,4-0.6,4.8-0.9
			C565.6,211.5,565.8,210.7,565.9,210z"/>
		<path fill="#FFBA7E" d="M580.1,211c0.2,0.8,0.5,1.6,0.8,2.4c0.9,0.3,2.4,0.7,4.2,0.7c0.3-0.6,0.5-1.4,0.6-2.1
			C583,212.3,580.6,211.2,580.1,211z"/>
		<path fill="#FFDCA7" d="M587.4,188.5L587.4,188.5L587.4,188.5L587.4,188.5z"/>
		<path fill="#FFDCA7" d="M589.8,208.5c-4.7,3.1-9.7,0.4-9.7,0.4s-2.5,3-8.4,2.4c-4.1-0.4-5.8-3.3-5.8-3.3s-6,2.9-10.3-0.6
			c-1.6-1.3-2.2-3.1-2.4-4.8c-0.2,2.4,0.2,5.1,2.4,6.9c4.3,3.5,10.3,0.6,10.3,0.6s1.7,2.8,5.8,3.3c5.9,0.6,8.4-2.4,8.4-2.4
			s5,2.6,9.7-0.4c2.9-1.9,3.3-4.4,3-6.4C592.6,205.6,591.7,207.2,589.8,208.5z"/>
		<path fill="#FFCB9D" d="M565.8,196.7c-0.8-3.3-5.1-5-8.6-3.5c-3.3,1.4-7.5,3.8-7.2,6.3c0.4,3.1,5.7,4.3,10.3,3.8
			c3.6-0.4,6.2-3.3,5.6-6.4C565.9,196.8,565.8,196.7,565.8,196.7z"/>
		<path fill="#FFBA7E" d="M565.9,196.8c-0.5,2.3-2.7,4.1-5.5,4.5c-4.2,0.5-9-0.5-10.1-3c-0.2,0.4-0.3,0.8-0.2,1.3
			c0.4,3.1,5.7,4.3,10.3,3.8C564,202.8,566.5,199.9,565.9,196.8L565.9,196.8z"/>
		<path fill="#433F43" d="M559.4,195.7c-0.8,0-1.3,0.6-1.3,1.4c0,0.8,0.6,1.4,1.3,1.4s1.3-0.6,1.3-1.4
			C560.8,196.3,560.2,195.7,559.4,195.7z"/>
		<path fill="#FFCB9D" d="M563.3,190.9c0,0-0.4-2.4,2.3-2.3c2.6,0.1,2.6,2.9,0.7,3.4L563.3,190.9z"/>
	</g>
	<g>
		<path fill="#FFDCA7" d="M176.3,369.1L176.3,369.1c0.1-0.1,0.2-0.1,0.2-0.1v-5.1c-0.9-0.7-1.8-1.2-2.5-1.6c-0.8-0.4-1.7,0.2-1.7,1
			v7.3C174.2,369.8,175.7,369.3,176.3,369.1z"/>
		<path fill="#FFE9C8" d="M176.5,369v-5.8c0-0.8,0.9-1.2,1.5-0.8c1.7,1.1,4.1,3.3,4.1,7c0,0,3,1.7,3.5,4.8c0.5,3.1-1.2,4.3-1.2,4.3
			s2.5,0.8,3.4,3.4c0.9,2.7,0.1,5,0.1,5s2.6-1.7,6-1.2s4.4,2.6,4.4,2.6s3.2-2.1,6.4-0.6c3.1,1.4,2.8,4.9,2.8,4.9s2.6,1.7,2.1,5.2
			c-0.5,3.8-3.7,4.7-3.7,4.7v9.7c0,1.2-1,2.1-2.2,2.1s-2.2-0.9-2.2-2.1v-4.3c0,0-4.8-1.9-4.8-5.4h-12v9.6c0,1.3-1.1,2.3-2.4,2.3
			c-1.3,0-2.4-1-2.4-2.3v-9.6c0,0-3.2,0.7-5.1-2.2c-1.9-2.8-0.5-6.3-0.5-6.3s-2.7-1.1-3.5-3.6c-0.7-2.5,0.7-5,0.7-5
			s-1.8-2.3-0.4-4.6c1.3-2.2,2.9-2.5,2.9-2.5s-3.2-1.2-2.5-4.6S176.5,369,176.5,369z"/>
		<g>
			<path fill="#FFDCA7" d="M207.6,392.5c0,0,0.3-3.4-2.8-4.9c-1.4-0.6-2.8-0.6-3.9-0.3c0.3,0.1,0.7,0.2,1,0.3
				c3.1,1.4,2.8,4.9,2.8,4.9s2.6,1.7,2.1,5.2c-0.5,3.8-3.7,4.7-3.7,4.7v9.7c0,0.6-0.3,1.2-0.7,1.5c0.4,0.3,0.9,0.6,1.5,0.6
				c1.2,0,2.2-0.9,2.2-2.1v-9.7c0,0,3.2-0.9,3.7-4.7C210.2,394.2,207.6,392.5,207.6,392.5z"/>
			<path fill="#FFDCA7" d="M179.2,369.4c0,0,3,1.7,3.5,4.8c0.5,3.1-1.2,4.3-1.2,4.3s2.5,0.8,3.4,3.4c0.2,0.6,0.3,1.2,0.4,1.7
				c0.2,1.4,1.5,2.3,2.9,2.1h0.1c0.1-0.9,0.1-2.3-0.4-3.8c-0.8-2.6-3.4-3.4-3.4-3.4s1.6-1.2,1.2-4.3c-0.5-3.1-3.5-4.8-3.5-4.8
				c0-3.7-2.4-5.9-4.1-7c-0.7-0.4-1.5,0-1.5,0.8v0.3C177.9,364.8,179.2,366.7,179.2,369.4z"/>
			<path fill="#FFDCA7" d="M182,412c0,0.7-0.3,1.4-0.9,1.8c0.4,0.3,0.9,0.5,1.5,0.5c1.3,0,2.3-1.1,2.3-2.3v-9.6
				c-1.6,0-2.9,1.3-2.9,2.8L182,412L182,412z"/>
		</g>
		<path fill="#FFCB9D" d="M171.8,385.3c0,0-1.8-2.3-0.4-4.6s2.9-2.5,2.9-2.5s-3.2-1.2-2.5-4.6c0.6-2.9,3.7-4.2,4.6-4.5
			c-2,0.7-16.3,5.8-16.3,11.9C160,384.3,166.7,385.1,171.8,385.3z"/>
		<path fill="#FFBA7E" d="M176.3,369.1c-0.8,0.3-3.7,1.3-6.8,2.8c-0.3,0.5-0.6,1-0.7,1.7c-0.7,3.4,2.5,4.6,2.5,4.6s-1.5,0.3-2.9,2.5
			c-1.1,1.9-0.1,3.8,0.3,4.4c1,0.1,2.1,0.2,3.1,0.2c0,0-1.8-2.3-0.4-4.6s2.9-2.5,2.9-2.5s-3.2-1.2-2.5-4.6
			C172.3,370.7,175.4,369.4,176.3,369.1z"/>
		<path fill="#433F43" d="M167.6,375.7c-0.9,0-1.7,0.9-1.7,2s0.7,2,1.7,2c0.9,0,1.7-0.9,1.7-2S168.6,375.7,167.6,375.7z"/>
	</g>
	<g>
		<g>
			<path fill="#FFA812" d="M702.6,367.2c0.2-0.1,0.3-0.4,0.2-0.7c-0.1-0.2-0.4-0.3-0.7-0.2c-0.1,0-1.5,0.9-1.3,2.8
				c0,0.2,0.2,0.4,0.5,0.4c0,0,0,0,0.1,0c0.3,0,0.4-0.3,0.4-0.6C701.6,367.8,702.5,367.2,702.6,367.2z"/>
			<path fill="#FFA812" d="M704.9,367.2c-0.2-0.2-0.5-0.1-0.7,0.1c0,0-0.1,0.1-0.1,0.2c0-0.1,0-0.3-0.1-0.4
				c-0.2-0.2-0.5-0.3-0.7-0.1c-0.1,0-1.3,1.1-1.3,2.7c0,0.3,0.2,0.5,0.5,0.5l0,0c0.3,0,0.5-0.2,0.5-0.5c0-1,0.8-1.7,0.9-1.8
				c-0.3,0.5-0.6,1.4-0.3,2.3c0.1,0.2,0.3,0.3,0.4,0.3c0.1,0,0.1,0,0.2,0c0.2-0.1,0.4-0.4,0.3-0.6c-0.3-0.7,0.3-1.6,0.5-1.8
				C705.2,367.6,705.1,367.3,704.9,367.2z"/>
			<path fill="#FFA812" d="M712.8,366.4c-0.2-0.1-0.5-0.1-0.7,0.2c-0.1,0.2-0.1,0.5,0.2,0.7c0,0,1,0.6,0.8,1.8
				c0,0.3,0.1,0.5,0.4,0.6c0,0,0,0,0.1,0c0.2,0,0.4-0.2,0.5-0.4C714.4,367.3,712.9,366.4,712.8,366.4z"/>
			<path fill="#FFA812" d="M711.5,366.9c-0.2-0.2-0.5-0.1-0.7,0.1c-0.1,0.1-0.1,0.3-0.1,0.4c-0.1-0.1-0.1-0.2-0.1-0.2
				c-0.2-0.2-0.5-0.2-0.7-0.1s-0.2,0.5-0.1,0.7c0,0,0.8,1,0.5,1.8c-0.1,0.3,0,0.5,0.3,0.6c0.1,0,0.1,0,0.2,0c0.2,0,0.4-0.1,0.4-0.3
				c0.3-0.9,0-1.8-0.3-2.3c0.1,0.1,0.9,0.9,0.9,1.8c0,0.3,0.2,0.5,0.5,0.5l0,0c0.3,0,0.5-0.2,0.5-0.5
				C712.8,368,711.6,367,711.5,366.9z"/>
		</g>
		<path fill="#DD8858" d="M699.4,356.7L699.4,356.7c-1-0.6-1.8-1.3-2.5-2.1l0,0c0,0-4.3,8.4,2.8,9.8
			C697.8,361.2,699.4,356.7,699.4,356.7z"/>
		<path fill="#D97F4A" d="M695.7,358.8c-0.3,2.4,0.3,5,4,5.7c-0.4-0.6-0.6-1.3-0.8-2C696.8,361.8,695.9,360.4,695.7,358.8z"/>
		<path fill="#DD8858" d="M715.5,356.7L715.5,356.7c1-0.6,1.8-1.3,2.5-2.1l0,0c0,0,4.3,8.4-2.8,9.8
			C717.1,361.2,715.5,356.7,715.5,356.7z"/>
		<path fill="#D97F4A" d="M715.9,362.5c-0.1,0.7-0.4,1.3-0.8,2c3.7-0.7,4.3-3.3,4-5.7C719,360.4,718.1,361.8,715.9,362.5z"/>
		<path fill="#AD5E2E" d="M715.5,356.7c-2,1.1-4.6,1.7-8,1.7s-6.1-0.6-8-1.7c0,0-3.9,11,8,11C719.4,367.8,715.5,356.7,715.5,356.7z"
			/>
		<path fill="#A05528" d="M707.5,366c-6.6,0-8.4-3.3-8.6-6.4c-0.3,3.3,0.7,8.1,8.6,8.1c7.9,0,8.9-4.9,8.6-8.1
			C715.8,362.7,714,366,707.5,366z"/>
		<path fill="#DD8858" d="M707.5,358.4c7.9,0,11.8-3.2,12.3-8.4c0.5-5.3-2.6-9.7-2.6-9.7c0.7-0.7,1.1-1.4,1.5-1.9
			c0.3-0.4-0.2-1-0.6-0.8c-5.2,1.9-10.5,1.7-10.5,1.7s-5.3,0.2-10.5-1.7c-0.5-0.2-0.9,0.4-0.6,0.8c0.3,0.6,0.8,1.2,1.5,1.9
			c0,0-3.1,4.4-2.6,9.7C695.6,355.3,699.6,358.4,707.5,358.4z"/>
		<path fill="#D97F4A" d="M719.7,348.3c-0.5,5.2-4.4,8.4-12.3,8.4c-7.9,0-11.8-3.2-12.3-8.4c0-0.1,0-0.2,0-0.2c0,0.6,0,1.3,0,2
			c0.5,5.2,4.4,8.4,12.3,8.4c7.9,0,11.8-3.2,12.3-8.4c0.1-0.7,0.1-1.4,0-2C719.7,348.1,719.7,348.2,719.7,348.3z"/>
		<path fill="#FFE9C8" d="M713.6,342.4c-3.9-1.5-6.2,2.1-6.2,2.1s-2.2-3.6-6.2-2.1c-3.9,1.5-4.1,7.6-2.5,10.3c1.4,2.3,5,3,7.3,0.4
			c-0.1-0.4-0.2-0.8-0.2-1.2c0-1.2,0.7-1.7,1.5-1.7s1.5,0.5,1.5,1.7c0,0.4-0.1,0.8-0.2,1.2c2.3,2.7,6,1.9,7.3-0.4
			C717.7,350,717.5,343.8,713.6,342.4z"/>
		<path fill="#FFDCA7" d="M705.9,351.4c-2.3,2.4-5.8,1.6-7.1-0.6c-0.5-0.8-0.8-1.9-0.9-3.1c-0.2,1.8,0.2,3.7,0.9,4.9
			c1.4,2.3,5,3,7.3,0.4c-0.1-0.4-0.2-0.8-0.2-1.2C705.9,351.7,705.9,351.6,705.9,351.4z"/>
		<path fill="#FFDCA7" d="M716.1,350.9c-1.3,2.2-4.8,3-7.1,0.6c0,0.1,0,0.2,0,0.3c0,0.4-0.1,0.8-0.2,1.2c2.3,2.7,6,1.9,7.3-0.4
			c0.7-1.2,1.1-3.1,0.9-4.9C716.9,348.9,716.6,350,716.1,350.9z"/>
		<path fill="#FFA812" d="M709,351.8c0-1.2-0.7-1.7-1.5-1.7s-1.5,0.5-1.5,1.7s0.7,2.5,1.5,2.5S709,352.9,709,351.8z"/>
		<path fill="#FF9A00" d="M707.5,352.5c-0.6,0-1.1-0.7-1.4-1.5c-0.1,0.2-0.1,0.5-0.1,0.8c0,1.2,0.7,2.5,1.5,2.5s1.5-1.3,1.5-2.5
			c0-0.3-0.1-0.6-0.1-0.8C708.6,351.8,708.1,352.5,707.5,352.5z"/>
		<path fill="#433F43" d="M702.5,346.4c-0.7,0-1.3,0.8-1.3,1.8s0.6,1.8,1.3,1.8s1.3-0.8,1.3-1.8
			C703.8,347.2,703.2,346.4,702.5,346.4z"/>
		<path fill="#433F43" d="M712.4,346.4c-0.7,0-1.3,0.8-1.3,1.8s0.6,1.8,1.3,1.8s1.3-0.8,1.3-1.8
			C713.8,347.2,713.2,346.4,712.4,346.4z"/>
	</g>
	<g>
		<path fill="#8BCAFF" d="M501.6,314.3c5.5-18.7-5.9-33.2-5.9-33.2c0.8-1.8,2.7-3,4.6-3.6c1.5-0.6,1.5-2.7,0.1-3.3
			c-7.5-3.2-13,0.2-13,0.2c-10.9-8-22.1-1.6-24.7,2.9s-4.7,3.5-8.8,5.7c-1.6,0.9-2,2-2,3.1c0,2,1.6,3.6,3.5,3.6
			c35.5,0.1,41.1,23.9,41.1,23.9s-4.4,0.7-6.5,6.3c-0.4,1.1,0.7,2.2,1.7,1.7c1.7-1,4-1.8,6.4-1.3c2.2,0.5,4,1.9,5.2,3.4
			c0.8,0.9,2.3,0.2,2.1-1C505.1,319.7,504.2,316.1,501.6,314.3z"/>
		<path fill="#60B8FF" d="M505,320.5c-0.5,0.5-1.3,0.6-1.8,0c-1.2-1.4-3-2.9-5.2-3.4c-2.4-0.5-4.7,0.3-6.4,1.3
			c-0.4,0.2-0.8,0.2-1.1,0c-0.2,0.4-0.4,0.9-0.6,1.4c-0.4,1.1,0.7,2.2,1.7,1.7c1.7-1,4-1.8,6.4-1.3c2.2,0.5,4,1.9,5.2,3.4
			c0.8,0.9,2.3,0.2,2.1-1C505.3,321.9,505.2,321.2,505,320.5z"/>
		<path fill="#FFE9C8" d="M474.6,286c-9.1-1.7-17.9-0.4-22.8,0.7c0.3,1.7,1.8,3,3.5,3c35.5,0.1,41.1,23.9,41.1,23.9
			C496.2,297.7,488.5,288.5,474.6,286z"/>
		<path fill="#FFDCA7" d="M455.3,289.7c35.5,0.1,41.1,23.9,41.1,23.9c0-1.3-0.1-2.6-0.2-3.8c-1.3-3.9-9-23.1-40.9-23.2
			c-0.5,0-1-0.1-1.5-0.3l0,0c-0.5,0.1-1,0.2-1.5,0.3c-0.2,0-0.3,0.1-0.5,0.1C452.1,288.4,453.6,289.7,455.3,289.7z"/>
		<path fill="#433F43" d="M469,279.4c-0.9,0-1.7,1-1.7,2.2s0.7,2.2,1.7,2.2c0.9,0,1.7-1,1.7-2.2S469.9,279.4,469,279.4z"/>
		<path fill="#8BCAFF" d="M472.6,284.5c0,0,0.6,17.9,8.2,19.3c4,0.7,1.7-8.2,6-14.4"/>
		<path fill="#60B8FF" d="M482.7,291.6c-1.4,4.8-1.7,10-3.3,11.7c0.4,0.2,0.9,0.4,1.4,0.5c4,0.7,1.7-8.2,6-14.4
			C485.1,288.7,483.3,289.8,482.7,291.6z"/>
	</g>
	<g>
		<path fill="#D8D1D7" d="M616.4,396.3L616.4,396.3c1.6-1.4,3.9-2.9,6.4-3.5c-2-1.3-4.9-2.5-8.5-2.1c-4.4,0.5-7.3,3.6-9,6.1
			C610.1,395.2,614.1,395.7,616.4,396.3z"/>
		<path fill="#CAC0C9" d="M619.3,391.2c-2.6,1-4.8,2.8-6.4,4.5c1.4,0.1,2.5,0.3,3.4,0.5l0,0c1.6-1.4,3.9-2.9,6.4-3.5
			C621.8,392.2,620.6,391.7,619.3,391.2z"/>
		<path fill="#E6E2E6" d="M627.7,393.1c-4.5-1.4-8.7,1-11.3,3.3l0,0c-2.7-0.7-8-1.4-14.2,1.9c-8.7,4.6-11.7,13.5-7.4,37.2
			c0.3,1.9,2.3,3.2,4.4,2.8h0.1c1.8-0.4,3-2,2.8-3.7l-1.2-9.4c0,0,7.8,4.3,17.1-1.7c7.7,4.5,16.6-2.3,18.1-10.5
			C637.8,403.3,635.4,395.5,627.7,393.1z"/>
		<path fill="#D8D1D7" d="M648.8,413.3c-2.5-8.7-6.7-12.3-13.2-12.4c1.1,3.3,1.2,7.4,0.4,11.9c-1.5,8.2-10.4,15-18.1,10.5
			c-0.2,0.1-0.4,0.3-0.7,0.4c-3,1.8-5.9,2.5-8.3,2.7c0.7,2.3,2,5.9,3.4,9.3c0.6,1.5,2.2,2.5,4,2.5h1.5c2,0,3.7-1.2,4.2-3l0.6-2.3
			h12.1l0.6,2.3c0.5,1.8,2.2,3,4.2,3h1.6c1.7,0,3.2-0.9,3.9-2.3C647.1,431.6,651.2,421.7,648.8,413.3z"/>
		<path fill="#CAC0C9" d="M648.8,413.3c-2.5-8.7-6.7-12.3-13.2-12.4c0,0.1,0.1,0.3,0.1,0.4c4.7,1.1,8,4.8,10,12
			c2.4,8.4-1.7,18.3-3.9,22.7c-0.6,1.2-1.8,2-3.2,2.2c0.2,0,0.5,0.1,0.7,0.1h1.6c1.7,0,3.2-0.9,3.9-2.3
			C647.1,431.6,651.2,421.7,648.8,413.3z"/>
		<path fill="#D8D1D7" d="M601,426.1C600.9,426.1,600.9,426.1,601,426.1c-1.6-0.3-3,0.8-2.8,2.2l0.8,6.1c0.2,1.5-0.7,2.9-2.1,3.5
			c0.7,0.3,1.5,0.4,2.3,0.2h0.1c1.8-0.4,3-2,2.8-3.7L601,426.1z"/>
		<path fill="#D8D1D7" d="M627.7,393.1c-1.5-0.5-2.9-0.5-4.3-0.3c0.4,0.1,0.8,0.2,1.2,0.3c7.7,2.4,10.1,10.2,8.3,19.7
			c-1.1,5.9-5.9,11-11.4,11.8c6.6,1,13.2-4.9,14.4-11.8C637.8,403.3,635.4,395.5,627.7,393.1z"/>
		<path fill="#CAC0C9" d="M636,412.8c-1.5,8.2-10.4,15-18.1,10.5c-0.2,0.1-0.4,0.3-0.7,0.4c-3,1.8-5.9,2.5-8.3,2.7
			c0.3,0.8,0.6,1.8,1,2.9c2.4-0.1,5.3-0.9,8.6-3c7.7,4.5,18-2.7,19.5-10.9c1-5.7,0.6-10.7-1.5-14.4c-0.3,0-0.6,0-0.9,0
			C636.7,404.2,636.8,408.3,636,412.8z"/>
		<path fill="#433F43" d="M608.5,413.9c-0.9,0-1.7,0.8-1.7,1.9s0.7,1.9,1.7,1.9c0.9,0,1.7-0.8,1.7-1.9
			C610.2,414.7,609.5,413.9,608.5,413.9z"/>
	</g>
	<g>
		<path fill="#FF646F" d="M701.5,420.4l-4-1.2v-3.4c0-0.3-0.2-0.5-0.5-0.5s-0.5,0.2-0.5,0.5v3.1l-4.4-1.3l1.1-2
			c0.1-0.2,0-0.5-0.2-0.6s-0.5,0-0.7,0.2l-1.4,2.5c-0.1,0.1-0.1,0.3,0,0.4s0.2,0.2,0.3,0.3l5.3,1.6v5H695c-0.3,0-0.5,0.2-0.5,0.5
			s0.2,0.5,0.5,0.5h2c0.3,0,0.5-0.2,0.5-0.5v-5.2l3.3,1l-0.3,1.1c-0.1,0.2,0.1,0.5,0.4,0.6h0.1c0.2,0,0.4-0.1,0.5-0.3l0.4-1.5
			C701.9,420.7,701.8,420.5,701.5,420.4z"/>
		<path fill="#FFE9C8" d="M686.3,398.3c-0.1-0.7,0.1-1.2,0.4-1.7c-1.7,0.1-5,0.6-5.7,2.8c-0.8,2.6,1.5,4,2.4,3.6s-0.3-2.1,1.1-2.5
			c0.7-0.2,1.7-0.3,2.6-0.5C686.7,399.7,686.4,399.2,686.3,398.3z"/>
		<path fill="#FFCB9D" d="M686.3,398.5c-1.3,0.3-2.9,0.7-3.7,1.3c-0.7,0.6-0.8,1.7-0.7,2.8c0.5,0.4,1.1,0.5,1.5,0.4
			c0.9-0.4-0.3-2.1,1.1-2.5c0.7-0.2,1.7-0.3,2.6-0.5C686.7,399.7,686.4,399.3,686.3,398.5z"/>
		<path fill="#8C808A" d="M684.4,400.5l-2-2.8c-0.7,0.4-1.2,0.9-1.4,1.7c-0.8,2.6,1.5,4,2.4,3.6
			C684.3,402.5,683.1,400.9,684.4,400.5z"/>
		<path fill="#7B7179" d="M681.9,402.6c0.5,0.4,1.1,0.5,1.5,0.4c0.9-0.4-0.3-2,1-2.4l-0.9-1.2c-0.4,0.2-0.7,0.3-0.9,0.5
			C681.9,400.4,681.8,401.6,681.9,402.6z"/>
		<path fill="#FF9AA1" d="M686.3,398.3c-0.4-2.7,3.5-3.9,5.5-3c2.1,0.9,3.1,2.4,1.6,6.9c-1.5,4.4-0.6,5.5,1.9,5.8
			c2.1,0.2,5.1-2,6.3-4.7c0.3-0.6,1.2-0.8,1.6-0.2c1.3,1.4,3.1,3.9,2.8,6.2c-0.4,3.5-4.5,6.8-10.3,6.7c-5.8-0.1-8.1-4.2-7.7-7.5
			c0.4-3.3,1.6-5.7,1.1-6.6C688.1,400,686.6,400.8,686.3,398.3z"/>
		<path fill="#FF8088" d="M695.7,414.2c-4.9-0.1-7.3-3-7.7-5.9v0.1c-0.4,3.3,1.9,7.4,7.7,7.5s10-3.1,10.3-6.7c0-0.4,0-0.8-0.1-1.3
			C705.3,411.3,701.3,414.3,695.7,414.2z"/>
		<path fill="#FF646F" d="M697,412.8c-0.8,0-1.5-0.2-2-0.4c-1.2-0.5-2-1.2-2-1.2c-0.2-0.2-0.2-0.5,0-0.6s0.5-0.2,0.7,0
			c0.1,0.1,2.6,2.4,5.8,0.6c2.4-1.3,1.7-3.5,1.6-3.6c-0.1-0.2,0-0.5,0.3-0.6s0.5,0,0.6,0.3c0,0,0.3,0.8,0.2,1.7
			c-0.1,0.9-0.6,2.1-2.2,3C698.8,412.6,697.8,412.8,697,412.8z"/>
		<path fill="#433F43" d="M690.4,396.8c-0.5,0-1,0.5-1,1.2c0,0.6,0.4,1.2,1,1.2s1-0.5,1-1.2C691.3,397.3,690.9,396.8,690.4,396.8z"
			/>
	</g>
	<g>
		<g>
			<path fill="#8C808A" d="M171.9,222.3l6.7,13.4h5.4c-0.5-0.3-5.4-15.2-12.4-18.5C172.3,219.6,171.9,222.3,171.9,222.3z"/>
			<path fill="#8C808A" d="M159,224l8-4.1v-3.4c-4.5,0.1-6.6,1.6-9.5-0.1c-0.6-0.3-1.2,0.1-1.2,0.7C156.3,219.1,156.7,222.3,159,224
				z"/>
			<path fill="#8C808A" d="M209.5,248.4c0.1-7.9-7.2-10.2-7.2-10.2c2.5,1.8,3.9,4.6,4.4,8.7c0.3,2.6,0.3,6.2,0.1,9.9
				c1,0.6,1.9,0.8,2.6,0.8c0.8,0,1.3-0.8,1-1.5C209.9,254.9,209.4,252.7,209.5,248.4z"/>
		</g>
		<path fill="#DD8858" d="M167,219.9l-14.2,7.3c-0.8,0.4-1.3,1.4-1.1,2.3c0.4,2,1.6,5.2,4.8,5.7c4.8,0.8,9.1-0.6,9.1-0.6
			s7.8,14.6,7.8,18.5v15.7c0,1.8,1.4,3.3,3.2,3.3s3.2-1.5,3.2-3.3v-15.7h15c0,0,1.3,3.4,4.6,4.7v11.3c0,1.7,1.3,3,3,3
			c1.4,0,2.7-1.1,2.9-2.5c0.8-4.3,2.1-16.6,1.3-22.7c-1.1-8.3-5.6-11.2-15.2-11.2s-12.9,0-12.9,0l-6.7-13.4c0,0,1.1-7.3-3.5-8.5
			c-0.7-0.2-1.3,0.3-1.3,1L167,219.9z"/>
		<path fill="#D97F4A" d="M168.6,222.3l5.2,10.4c0.9,1.8,2.7,2.9,4.7,2.9l-6.7-13.4c0,0,1.1-7.3-3.5-8.5c-0.7-0.2-1.3,0.3-1.3,1l0,0
			C169.4,217.3,168.6,222.3,168.6,222.3z"/>
		<path fill="#D97F4A" d="M206.7,246.9c-1.1-8.3-5.6-11.2-15.2-11.2c-1.2,0-2.3,0-3.2,0c9.6,0,14.1,2.9,15.2,11.2
			c0.8,6.1-0.5,18.4-1.3,22.7c-0.1,0.8-0.6,1.6-1.3,2c0.5,0.3,1,0.5,1.6,0.5c1.4,0,2.7-1.1,2.9-2.5
			C206.1,265.3,207.5,253,206.7,246.9z"/>
		<path fill="#D97F4A" d="M176.6,268.9c0,1.2-0.6,2.2-1.6,2.8c0.5,0.3,1,0.5,1.6,0.5c1.8,0,3.2-1.5,3.2-3.3v-15.7
			c-1.8,0-3.2,1.5-3.2,3.3V268.9z"/>
		<path fill="#433F43" d="M165.1,224.7c-1,0-1.8,1-1.8,2.3s0.8,2.3,1.8,2.3s1.8-1,1.8-2.3C166.9,225.7,166.1,224.7,165.1,224.7z"/>
		<path fill="#CA6D36" d="M156.5,230.3l-0.3-0.9c-0.1-0.5-0.6-0.8-1.1-0.6c-0.5,0.1-0.7,0.7-0.6,1.1l0.3,0.9
			c0.1,0.4,0.5,0.7,0.9,0.7c0.1,0,0.2,0,0.3,0C156.4,231.3,156.7,230.8,156.5,230.3z"/>
	</g>
	<g>
		<path fill="#FF646F" d="M613.2,269.5H611c-0.4,0-0.7-0.3-0.7-0.6s0.3-0.6,0.7-0.6h1.4v-9.5c0-0.3,0.3-0.6,0.7-0.6s0.7,0.3,0.7,0.6
			v10.1C613.9,269.3,613.6,269.5,613.2,269.5z"/>
		<path fill="#FF646F" d="M621.1,269.5H619c-0.4,0-0.7-0.3-0.7-0.6s0.3-0.6,0.7-0.6h1.4v-9.8c0-0.3,0.3-0.6,0.7-0.6s0.7,0.3,0.7,0.6
			v10.4C621.9,269.3,621.5,269.5,621.1,269.5z"/>
		<path fill="#FFA812" d="M601.1,232.8c0-0.1,0-0.1,0-0.2c-1.4,0.8-3.4,2.2-2.8,3.2c0.6,1.1,3,0.6,4.8,0.2
			C601.8,235.3,601,234.2,601.1,232.8z"/>
		<path fill="#FFE9C8" d="M605.4,229.4c-2.3,0.1-4.2,1.6-4.3,3.4c-0.1,1.7,1.2,3.1,3,3.6v6.2c0,1.3,1.3,2.4,2.9,2.4
			c1.6,0,2.9-1.1,2.9-2.4V233C610,231,607.9,229.3,605.4,229.4z"/>
		<path fill="#FFDCA7" d="M607.1,242.9c-1.6,0-2.9-1.1-2.9-2.4v2.2c0,1.3,1.3,2.4,2.9,2.4c1.6,0,2.9-1.1,2.9-2.4v-2.2
			C610,241.8,608.7,242.9,607.1,242.9z"/>
		<path fill="#8C808A" d="M631.5,246c0-0.6-0.8-1-1.5-0.7c-0.8,0.3-1.8,0.5-2.7,0.2c-1.7-0.7-3.6-2.3-6.7-1.7
			c-3,0.6-3.1,2.4-5.2,2.3c-2.2-0.1-5.4-3.3-5.4-3.3c0,1.3-1.3,2.4-2.9,2.4c-1.6,0-2.9-1.1-2.9-2.4c0,0-4.2,6.2-0.5,11.2
			c3.4,4.7,9.8,5.2,13.3,5.2C621.9,259.1,632.2,255.8,631.5,246z"/>
		<path fill="#7B7179" d="M631.5,245.9c-0.8,8.2-10,11-14.6,11c-3.5,0-9.9-0.5-13.3-5.2c-0.9-1.2-1.3-2.4-1.4-3.6
			c-0.2,1.8,0.1,3.9,1.4,5.8c3.4,4.7,9.8,5.2,13.3,5.2c5,0,15.3-3.3,14.6-13C631.5,246,631.5,245.9,631.5,245.9z"/>
		<path fill="#7B7179" d="M618.2,253.3c-1.2,0-2.3-0.3-3.1-0.6c-1.5-0.6-2.4-1.5-2.5-1.5c-0.3-0.3-0.2-0.6,0.1-0.9
			c0.3-0.2,0.8-0.2,1,0.1c0.1,0.1,3,2.8,7,1.1c2-0.8,3.1-2,3.3-3.4c0-0.3,0.4-0.6,0.8-0.5c0.4,0,0.7,0.3,0.7,0.7
			c-0.1,1.3-1,3.1-4.1,4.3C620.3,253.2,619.2,253.3,618.2,253.3z"/>
		<path fill="#433F43" d="M605.5,231.3c-0.8,0-1.5,0.7-1.5,1.5c0,0.9,0.7,1.5,1.5,1.5s1.5-0.7,1.5-1.5
			C607.1,232,606.4,231.3,605.5,231.3z"/>
	</g>
	<g>
		<path fill="#B99C80" d="M597.6,140.1c0-0.3-0.3-0.6-0.6-0.6l-4.1-0.6l2.6-1.2c0.3-0.1,0.4-0.4,0.4-0.7s-0.2-0.5-0.5-0.6l-4-0.9
			l3.1-1.3c0.3-0.1,0.4-0.4,0.4-0.7s-0.2-0.6-0.5-0.6l-1.8-0.6l4-1.7c0.3-0.1,0.4-0.4,0.4-0.7s-0.2-0.6-0.5-0.6l-3.2-0.6l3.5-1.4
			c0.3-0.1,0.5-0.4,0.4-0.8c0-0.3-0.3-0.6-0.6-0.6l-3.9-0.3l2.4-1.6c0.2-0.2,0.4-0.5,0.3-0.7c-0.1-0.3-0.3-0.5-0.6-0.5l-3.1-0.3
			l1.3-1.4c0.2-0.2,0.2-0.5,0.1-0.7c-0.1-0.3-0.3-0.4-0.6-0.4l-5.5-0.2l1-2.4c0.1-0.2,0.1-0.5-0.1-0.7c-0.1-0.2-0.3-0.3-0.6-0.3
			c-2.9,0.1-6.9,2-9.2,3.2l0.6-1.5c0.1-0.3,0.1-0.6-0.1-0.8c-0.2-0.2-0.5-0.3-0.7-0.2l-6.2,2.5H569l-0.6-0.8
			c-0.2-0.2-0.4-0.3-0.6-0.2c-3.3,0.8-5.7,5-6,5.4c-1.6,2.2-1.3,5.4-1.3,5.5c0,0.3,0.2,0.5,0.4,0.6s0.5,0.1,0.7-0.1
			c0.5-0.4,0.9-0.8,1-0.9c1.7-0.7,2.3-0.9,4.2,0c1.7,0.8,3.2,0.9,4.4,0.9c0.4,0,0.8,0,1.1,0.1c0.1,0,0.5,0.2,1.7,2.4
			c0.7,1.4,1.5,3,2,4.4c0.3,0.7,0.5,1.3,0.7,1.7c0.4,0.8,1.6,1.5,3.6,2.2c1.5,0.5,3.3,0.8,4.4,1l1.2,0.2c0,0,0,0,0.1,0
			s1.3,0.1,2.9,0.1c2.5,0,5.9-0.2,8-1.1C597.5,140.7,597.6,140.4,597.6,140.1z"/>
		<g>
			<path fill="#A38166" d="M587.3,138.8c0-0.4-0.3-0.7-0.7-0.6c-2,0.1-8.9-0.8-9-0.8c-0.4,0-0.7,0.2-0.7,0.6s0.2,0.7,0.6,0.8
				c0.3,0,6.1,0.8,8.7,0.8c0.2,0,0.4,0,0.6,0C587.1,139.5,587.4,139.2,587.3,138.8z"/>
			<path fill="#A38166" d="M585.5,136.7c0.4,0,0.6-0.4,0.6-0.7c0-0.4-0.3-0.7-0.7-0.6c-2.7,0.2-8.6,0-8.7,0c-0.4,0-0.7,0.3-0.7,0.7
				s0.3,0.7,0.6,0.7c0.2,0,2.7,0.1,5.3,0.1C583.2,136.8,584.5,136.8,585.5,136.7z"/>
			<path fill="#A38166" d="M586.9,132.8c-0.1-0.4-0.4-0.6-0.8-0.6c-2.4,0.5-10.4,1-10.5,1c-0.4,0-0.6,0.4-0.6,0.7
				c0,0.4,0.3,0.7,0.6,0.7l0,0c0.3,0,8.1-0.5,10.6-1.1C586.8,133.5,587,133.2,586.9,132.8z"/>
			<path fill="#A38166" d="M566.9,123.4c0.3-0.2,0.4-0.6,0.3-0.9s-0.6-0.5-0.9-0.3c-2.7,1.5-3.6,5.5-3.6,5.6
				c-0.1,0.4,0.1,0.7,0.5,0.8c0.1,0,0.1,0,0.2,0c0.3,0,0.6-0.2,0.6-0.5C564,128.1,564.8,124.6,566.9,123.4z"/>
			<path fill="#A38166" d="M570.7,123c0.3-0.2,0.5-0.6,0.3-0.9c-0.1-0.4-0.5-0.5-0.9-0.4c-3.7,1.7-5.1,5.5-5.2,5.7
				c-0.1,0.4,0,0.8,0.4,0.9c0.1,0,0.2,0,0.2,0c0.3,0,0.5-0.2,0.6-0.4C566.2,127.9,567.5,124.5,570.7,123z"/>
			<path fill="#A38166" d="M574.3,123.5c0.3-0.1,0.5-0.5,0.4-0.9s-0.5-0.6-0.8-0.5c-4.9,1.6-7.1,5.7-7.2,5.8
				c-0.2,0.3-0.1,0.8,0.3,0.9c0.1,0.1,0.2,0.1,0.3,0.1c0.2,0,0.4-0.1,0.6-0.4C567.9,128.6,569.9,124.9,574.3,123.5z"/>
			<path fill="#A38166" d="M582.3,131c-0.1-0.4-0.4-0.6-0.7-0.6c-2.1,0.4-6.8,0.8-6.9,0.8c-0.4,0-0.6,0.4-0.6,0.8
				c0,0.4,0.3,0.6,0.6,0.6c0,0,0,0,0.1,0c0.2,0,4.8-0.4,7-0.8C582.1,131.8,582.4,131.4,582.3,131z"/>
			<path fill="#A38166" d="M585.1,127.8c0.3-0.2,0.4-0.6,0.3-0.9c-0.2-0.3-0.6-0.5-0.9-0.3c-2.7,1.4-10.6,3.4-10.6,3.4
				c-0.3,0.1-0.6,0.5-0.5,0.8s0.3,0.5,0.6,0.5h0.1C574.5,131.2,582.3,129.3,585.1,127.8z"/>
			<path fill="#A38166" d="M573.2,125.5c-0.2-0.3-0.6-0.5-0.9-0.3c-2.4,1.4-3.4,3.4-3.5,3.4c-0.2,0.3-0.1,0.8,0.2,0.9
				c0.1,0.1,0.2,0.1,0.3,0.1c0.2,0,0.4-0.1,0.6-0.4c0,0,0.9-1.7,3-2.9C573.3,126.3,573.4,125.8,573.2,125.5z"/>
			<path fill="#A38166" d="M582.3,121.8c-0.1-0.4-0.5-0.5-0.8-0.4c-5.5,2.4-10,6.9-10.2,7.1c-0.3,0.3-0.3,0.7,0,1
				c0.1,0.1,0.3,0.2,0.5,0.2s0.3-0.1,0.4-0.2c0,0,4.5-4.6,9.8-6.9C582.2,122.5,582.4,122.1,582.3,121.8z"/>
			<path fill="#A38166" d="M581.3,126c0.3-0.2,0.5-0.6,0.3-0.9s-0.5-0.5-0.9-0.3l-7.9,4.2c-0.3,0.2-0.5,0.6-0.3,0.9
				c0.1,0.2,0.3,0.4,0.6,0.4c0.1,0,0.2,0,0.3-0.1L581.3,126z"/>
		</g>
		<path fill="#A86B38" d="M586.9,140.8c-0.1-0.2-0.3-0.3-0.5-0.4c0,0-1.9-0.3-4-0.8c-2.8-0.7-4.1-1.4-4.3-1.9
			c-0.2-0.4-0.4-0.9-0.7-1.6c-2.1-4.9-3.4-7.4-4.7-7.5c-0.4-0.1-0.8-0.1-1.2-0.1c-1.2-0.1-2.5-0.1-3.9-0.8c-2.3-1.1-3.3-0.9-5.3,0
			c0,0-0.1,0-0.1,0.1c-0.6,0.5-3.7,2.8-3.8,4.7c-0.1,0.8,0.2,1.5,0.6,2.1c0.6,0.7,1.6,1,2.8,0.9c0.7,0,1.8,0.1,2.7,0.4
			c0.5,0.2,1.4,0.6,1.5,1.2c0.2,1.1-0.1,3.5-0.3,4.8c-0.7,0.2-1.9,0.7-2.1,1.8c0,0.3,0.1,0.6,0.3,0.7c0.1,0,1.1,0.7,2.8,0.7
			c0.6,0,1.4-0.1,2.2-0.3c0.2-0.1,0.3-0.2,0.4-0.4l2.1-4.5c1.3,0.6,4.3,2.1,6.6,2.4c-0.5,0.4-0.9,0.9-0.9,1.7c0,0.3,0.2,0.5,0.4,0.6
			c0.1,0,2.4,1,6.5,0c0.1,0,0.1,0,0.2-0.1c0.1,0,1.6-1,2.6-3.2C587,141.2,587,140.9,586.9,140.8z"/>
		<g>
			<path fill="#7C4212" d="M567,144.1c-0.4,0.1-2.5,0.4-2.9,0.4c0.4,0.2,1.3,0.6,2.6,0.6c0.6,0,1.4-0.1,2.2-0.3
				c0.2-0.1,0.3-0.2,0.4-0.4l2.1-4.5l-1.7-1.4L567,144.1z"/>
			<path fill="#7C4212" d="M586.9,141.4c0.1-0.2,0.1-0.4,0-0.6c-0.1-0.2-0.3-0.3-0.5-0.4c0,0-1.9-0.3-4-0.8
				c-2.8-0.7-4.1-1.4-4.3-1.9c-0.2-0.4-0.4-0.9-0.7-1.6c-2.1-4.9-3.4-7.4-4.7-7.5c-0.4-0.1-0.8-0.1-1.2-0.1
				c-1.2-0.1-2.5-0.1-3.9-0.8c-2.2-1.1-3.3-0.9-5.2-0.1c1.3,0.2,2.8,0.5,3.2,0.7c2.1,1,3.9,0.8,5.3,1c1.4,0.2,4,6.8,4.9,8.8
				c0.9,1.9,8.7,3,8.7,3c-0.9,2.1-2.3,2.9-2.3,2.9c-0.5,0.1-2.2,0.6-3.7,0.9c1.1,0.2,2.9,0.4,5.5-0.2c0.1,0,0.1,0,0.2-0.1
				C584.4,144.6,585.9,143.6,586.9,141.4z"/>
		</g>
		<path fill="#5E310D" d="M566,131c-0.1,0-0.1,0-0.2,0c-0.3-0.1-0.5-0.5-0.4-0.9c0.1-0.3,0-0.6-0.1-0.8c-0.2-0.3-0.5-0.5-0.8-0.6
			c-0.1,0-0.2,0-0.3,0c-0.1,0.1-0.2,0.4-0.2,0.6c0,0.4-0.3,0.7-0.6,0.7c-0.4,0-0.7-0.3-0.7-0.7c0-0.1,0-1.1,0.6-1.7
			c0.2-0.2,0.7-0.5,1.3-0.3c0.7,0.2,1.4,0.6,1.7,1.2c0.3,0.6,0.4,1.3,0.2,2C566.5,130.8,566.2,131,566,131z"/>
		<path fill="#A38166" d="M597,139.5l-4.1-0.6l2.6-1.2c0.3-0.1,0.4-0.4,0.4-0.7s-0.2-0.5-0.5-0.6l-4-0.9l3.1-1.3
			c0.3-0.1,0.4-0.4,0.4-0.7s-0.2-0.6-0.5-0.6l-1.8-0.6l4-1.7c0.3-0.1,0.4-0.4,0.4-0.7s-0.2-0.6-0.5-0.6l-3.2-0.6l3.5-1.4
			c0.3-0.1,0.5-0.4,0.4-0.8c0-0.3-0.3-0.6-0.6-0.6l-3.9-0.3l2.4-1.6c0.2-0.2,0.4-0.5,0.3-0.7c-0.1-0.3-0.3-0.5-0.6-0.5l-3.1-0.3
			l1.3-1.4c0.2-0.2,0.2-0.5,0.1-0.7c-0.1-0.3-0.3-0.4-0.6-0.4l-5.5-0.2l1-2.4c0.1-0.2,0.1-0.5-0.1-0.7c-0.1-0.2-0.3-0.3-0.6-0.3
			c-0.6,0-1.3,0.1-2,0.3l-1.5,4.9l5.5,0.3l-2,2.3l3.5,0.5l-2.9,2.5l3.3,0.3l-3,1.9l4.2,1.1l-4.3,2.4l1.9,1l-3.3,2.1l4.5,1.7
			l-3.6,2.2l3.6,0.5l-4.3,1.8c0.5,0,1.1,0,1.9,0c2.5,0,5.9-0.2,8-1.1c0.3-0.1,0.4-0.4,0.4-0.7C597.6,139.7,597.3,139.5,597,139.5z"
			/>
	</g>
	<g>
		<path fill="#E6E2E6" d="M537.8,417.4c-3.2,2.3-8.3,2.7-12.1,2.7s-8.9-0.4-12.1-2.7c-2,3.5-4.9,9.7-4.3,14.2
			c0.8,6.7,8.7,6.9,16.4,6.9s15.6-0.2,16.4-6.9C542.6,427.1,539.7,420.9,537.8,417.4z"/>
		<g>
			<path fill="#D8D1D7" d="M525.7,436c-7.7,0-15.6-0.2-16.4-6.9c-0.1,0.9-0.1,1.7,0,2.5c0.8,6.7,8.7,6.9,16.4,6.9s15.6-0.2,16.4-6.9
				c0.1-0.8,0.1-1.6,0-2.5C541.2,435.8,533.3,436,525.7,436z"/>
			<path fill="#D8D1D7" d="M547,406c0-2.6-2.3-4.1-2.3-4.1c0.5-3.6-2.3-6.5-6.2-6.2c-1.8,0.1-3.1,1-3.9,2c3.8,3,6.3,7.9,6.3,13.4
				c0,1.5-0.3,2.7-0.8,3.7c1.2,0.5,2.6,0.7,3.9,0.2c3.3-1.4,1.4-5.1,1.4-5.1S546.9,408.5,547,406z"/>
			<path fill="#D8D1D7" d="M510.4,411c0-5.4,2.5-10.3,6.3-13.4c-0.9-0.9-2.1-1.8-3.9-2c-3.8-0.3-6.7,2.6-6.2,6.2
				c0,0-2.3,1.5-2.3,4.1c0,2.5,1.5,3.8,1.5,3.8s-1.9,3.7,1.4,5.1c1.3,0.6,2.7,0.3,3.9-0.2C510.7,413.7,510.4,412.5,510.4,411z"/>
		</g>
		<path fill="#CAC0C9" d="M544,412.4c-1.1,0.5-2.2,0.4-3.2,0.1c-0.1,0.8-0.4,1.6-0.7,2.2c1.2,0.5,2.6,0.7,3.9,0.2
			c2.3-1,2.1-3,1.7-4.2C545.5,411.4,545,412,544,412.4z"/>
		<path fill="#CAC0C9" d="M507.3,412.4c-1-0.4-1.5-1-1.7-1.7c-0.3,1.2-0.5,3.2,1.7,4.2c1.3,0.6,2.7,0.3,3.9-0.2
			c-0.3-0.7-0.6-1.4-0.7-2.2C509.4,412.8,508.3,412.8,507.3,412.4z"/>
		<path fill="#E6E2E6" d="M525.7,394.4c8.3,0,15.3,7.6,15.3,16.6c0,8.2-9.3,9.1-15.3,9.1s-15.3-0.9-15.3-9.1
			C510.4,402,517.4,394.4,525.7,394.4z"/>
		<path fill="#D8D1D7" d="M538.7,419.1c-0.3-0.6-0.6-1.2-0.9-1.7c-3.2,2.3-8.3,2.7-12.1,2.7s-8.9-0.4-12.1-2.7
			c-0.3,0.5-0.6,1.1-0.9,1.7c3.1,3,8.9,3.5,13,3.5S535.5,422.1,538.7,419.1z"/>
		<path fill="#433F43" d="M517.9,403.9c-0.8,0-1.4,0.8-1.4,1.8s0.6,1.8,1.4,1.8c0.8,0,1.4-0.8,1.4-1.8S518.7,403.9,517.9,403.9z"/>
		<path fill="#433F43" d="M533.4,403.9c-0.8,0-1.4,0.8-1.4,1.8s0.6,1.8,1.4,1.8s1.4-0.8,1.4-1.8S534.2,403.9,533.4,403.9z"/>
		<path fill="#433F43" d="M529.1,413.5c-0.3-0.3-0.7-0.3-1,0s-0.6,0.4-0.8,0.4c-0.3-0.1-0.6-0.5-0.8-0.9c0.5,0,1-0.2,1.4-0.5
			c0.8-0.6,1.2-1.6,1.2-3.2s-0.3-3.2-1-4.4c-0.7-1.4-1.6-2.2-2.6-2.2s-2,0.8-2.6,2.2c-0.6,1.2-1,2.8-1,4.4s0.4,2.6,1.2,3.2
			c0.4,0.3,0.9,0.4,1.4,0.5l0,0c-0.3,0.5-0.6,0.8-0.8,0.9s-0.5-0.1-0.8-0.4s-0.7-0.2-1,0c-0.3,0.3-0.2,0.7,0,1
			c0.9,0.8,1.7,0.8,2.2,0.7c0.6-0.2,1.1-0.7,1.5-1.2c0.3,0.5,0.8,1,1.5,1.2c0.1,0,0.3,0.1,0.5,0.1c0.5,0,1-0.2,1.7-0.8
			C529.4,414.2,529.4,413.8,529.1,413.5z"/>
		<path fill="#E6E2E6" d="M515.1,427.9c0,0,0.3,12.5,4.1,12.5c3.4,0,4.1-11.5,4.1-11.5"/>
		<path fill="#E6E2E6" d="M536.2,427.9c0,0-0.3,12.5-4.1,12.5c-3.4,0-4.1-11.5-4.1-11.5"/>
		<path fill="#D8D1D7" d="M523.3,428.2c-0.4,0-0.7,0.3-0.7,0.7c0,0-0.2,2.9-0.7,5.6c-0.1,0.5-0.2,0.9-0.3,1.3
			c-0.6,0.8-1.4,1.2-2.3,1.2c-1,0-1.8-0.4-2.5-1.2c-0.1-0.6-0.3-1.2-0.4-1.8c-0.5-3-0.6-6.1-0.6-6.1c0-0.4-0.3-0.7-0.7-0.7
			s-0.7,0.3-0.7,0.7c0,0.1,0.1,3.2,0.6,6.3c0.3,1.9,0.8,3.4,1.3,4.5c0.8,1.6,1.7,2.3,2.9,2.3l0,0c1.8,0,3.1-2.1,4-6.3
			c0.6-2.9,0.8-5.7,0.8-5.8C524,428.6,523.7,428.2,523.3,428.2z"/>
		<path fill="#D8D1D7" d="M536.3,427.2c-0.4,0-0.7,0.3-0.7,0.7c0,0-0.1,3.1-0.6,6.1c-0.1,0.7-0.2,1.3-0.4,1.8
			c-0.7,0.8-1.5,1.2-2.5,1.2c-0.9,0-1.7-0.4-2.3-1.2c-0.1-0.4-0.2-0.8-0.3-1.3c-0.6-2.8-0.7-5.6-0.7-5.6c0-0.4-0.4-0.7-0.7-0.7
			c-0.4,0-0.7,0.4-0.7,0.7c0,0.1,0.2,3,0.8,5.8c0.9,4.2,2.2,6.3,4,6.3l0,0c1.2,0,2.1-0.8,2.9-2.3c0.5-1.1,1-2.6,1.3-4.5
			c0.6-3.1,0.6-6.2,0.6-6.3C536.9,427.5,536.6,427.2,536.3,427.2z"/>
	</g>
	<g>
		<path fill="#7C6251" d="M321.6,364.8c-2.2-2.7-2.6-11.7-2.6-15c0-0.2-0.1-0.4-0.2-0.6c-1-1.1-2.6-3.1-2.9-4.1
			c-0.1-0.4-0.5-0.6-0.9-0.6c-0.4,0.1-0.7,0.4-0.7,0.8c0,0-0.2,4.3-0.1,8.8c0.1,2.7,0.3,4.9,0.6,6.7c0.4,2.4,1,3.9,1.9,4.7
			c1,0.9,2,1.1,2.7,1.1c0.2,0,0.4,0,0.5,0c0.9-0.1,1.4-0.5,1.5-0.5c0.2-0.2,0.4-0.4,0.4-0.7C321.8,365.2,321.7,365,321.6,364.8z"/>
		<path fill="#FFDCAF" d="M316.1,331.4c-0.1-0.3-0.4-0.4-0.7-0.4h-4.3c-0.3,0-0.6,0.2-0.7,0.4l-3,5.8c-0.1,0.3-0.1,0.6,0,0.9
			c0,0.1,0.8,1.3,2.2,2.3c0.8,0.5,1.8,1,3,1c0.9,0,1.8-0.2,2.9-0.9c0.2-0.1,0.3-0.3,0.4-0.4l0,0c0.1-0.2,0.1-0.5,0-0.7
			s-0.3-0.4-0.5-0.4c-0.6-0.2-0.8-0.5-0.9-0.8c-0.5-1.4,0.7-4.3,1.6-5.8C316.2,332,316.2,331.7,316.1,331.4z"/>
		<g>
			<path fill="#7C6251" d="M350.4,362.4c0,0-1.6-0.4-3-2.1c-1.9-2.3-2.8-6-2.4-10.6c0-0.4-0.2-0.8-0.6-0.9c-0.3-0.1-0.6,0-0.8,0.3
				c-0.5,0.6-1,1.1-1.7,1.6c-1.3,1-2.6,2.1-3.6,3.4c-0.1,0.2-0.2,0.4-0.2,0.6c0,0.1,0.5,6.6,5.6,9.2c-0.6,0.5-1.2,1.3-1.2,2.5
				c0,0.2,0.1,0.5,0.2,0.7c0.2,0.2,0.4,0.3,0.6,0.3h7.1c0.4,0,0.8-0.4,0.8-0.9v-3.2C351,362.8,350.7,362.5,350.4,362.4z"/>
			<path fill="#7C6251" d="M350.5,341.1c-1.2-1.1-2.6-1.8-4.1-2.1c-1.1-0.2-1.9-0.1-2.1,0h-0.1l0,0c-0.3,0.1-0.5,0.3-0.6,0.5
				c-0.1,0.3-0.1,0.5,0.1,0.8c0.3,0.6,0.6,1.2,0.8,1.8c0.1,0.3,0.2,0.5,0.2,0.8c0.1,0.3,0.4,0.6,0.7,0.6c0.5,0,1.4,0.3,2.3,1.1
				c2,1.8,4.4,6.3,4.4,17.7c0,1.3,1,2.3,2.1,2.3s2.1-1,2.1-2.3C356.4,351.7,354.4,344.6,350.5,341.1z"/>
		</g>
		<path fill="#B99C80" d="M346,341.5c-1-3.1-3.3-5.6-6.2-6.9c-3.4-1.5-8.5-3.7-13.3-5.6c-6.1-2.4-10-3.5-11.8-3.5
			c-2.9,0.1-4.4,1.8-5.3,3.2c-0.9,1.5-1.1,2.9-1.1,3c0,0.2,0,0.5,0.2,0.7s0.4,0.3,0.6,0.3h4.8c-0.8,1.7-1.9,4.6-0.9,6.4
			c0.3,0.5,0.7,0.9,1.2,1.1c-0.1,1.3-0.3,4.1,0.1,5.4c0.4,1.5,2.4,3.7,3.1,4.5c0,1.1,0.1,4.5,0.5,7.9c0.8,6,2.3,9,4.6,9.1
			c0.2,0,0.4,0,0.5,0c1.5,0,2.7-0.4,3.5-1.3c0.2-0.2,0.4-0.5,0.5-0.7c-0.1,0.4-0.1,0.7,0,1c0.1,0.4,0.4,0.7,0.8,0.7h6
			c0.4,0,0.8-0.4,0.8-0.8c0,0,0.1-2.1,1.1-4.9c0.9-2.6,2.9-6.2,6.8-9.1C347.3,348.7,347,344.4,346,341.5z M327.8,363.8
			c0.1-0.5,0.1-0.9,0.1-0.9c0-0.5-0.4-0.8-0.8-0.8h-3v-10.2h5.9v10.2C328.9,362.5,328.2,363.2,327.8,363.8z"/>
		<path fill="#A38166" d="M346,341.5c-1-3.1-3.3-5.6-6.2-6.9c-3.4-1.5-8.5-3.7-13.3-5.6c-6.1-2.4-10-3.5-11.8-3.5
			c-0.5,0-0.9,0.1-1.3,0.2c2.1,0.4,5.5,1.5,10.1,3.3c4.8,1.9,9.9,4.1,13.3,5.6c2.9,1.3,5.2,3.8,6.2,6.9c1,3,1.3,7.2-3.3,10.6
			c-3.9,2.9-5.9,6.6-6.8,9.1c-1,2.8-1.1,4.9-1.1,4.9c0,0.5-0.4,0.8-0.8,0.8h2.9c0.4,0,0.8-0.4,0.8-0.8c0,0,0.1-2.1,1.1-4.9
			c0.9-2.6,2.9-6.2,6.8-9.1C347.3,348.7,347,344.4,346,341.5z"/>
		<path fill="#FF7E90" d="M346,341.5c-0.2-0.7-0.6-1.4-0.9-2.1c-0.2-0.4-0.7-0.5-1.1-0.3c-0.2,0.1-3.7,2.4-3.8,5.8
			c0,2,1.1,3.8,3.5,5.4c0.1,0.1,0.3,0.1,0.4,0.1c0.2,0,0.4-0.1,0.6-0.3C346.7,347.8,347.1,344.8,346,341.5z"/>
		<path fill="#FF5468" d="M344.7,350.2c1.8-2.2,2.3-4.9,1.6-7.8l0,0c0-0.1-0.1-0.2-0.1-0.3l0,0c0-0.1-0.1-0.2-0.1-0.3l0,0
			c0-0.1-0.1-0.2-0.1-0.3l0,0c0-0.1-0.1-0.2-0.1-0.3v-0.1c0-0.1,0-0.1-0.1-0.2c0,0,0-0.1-0.1-0.1c0,0,0-0.1-0.1-0.1
			c0,0,0-0.1-0.1-0.1c0,0,0-0.1-0.1-0.1c0,0,0-0.1-0.1-0.1c0,0,0-0.1-0.1-0.1c0,0,0-0.1-0.1-0.1c0-0.1-0.1-0.1-0.1-0.2v-0.1
			c0-0.1-0.1-0.1-0.1-0.2c0,0,0,0,0-0.1l-0.1-0.1c-0.2-0.4-0.7-0.5-1.1-0.3c-0.1,0-0.7,0.4-1.4,1.1c0.2,0.4,0.4,0.8,0.5,1.2
			c0.8,2.2,1.1,5.1-0.7,7.9c0.4,0.3,0.8,0.7,1.3,1c0.1,0.1,0.3,0.1,0.4,0.1C344.3,350.5,344.5,350.4,344.7,350.2z"/>
		<path fill="#2B2B2B" d="M312.1,335.3c-0.5,0-0.9-0.4-0.9-1c0-0.5,0.4-1,0.9-1s0.9,0.4,0.9,1S312.6,335.3,312.1,335.3z"/>
	</g>
	<g>
		<path fill="#D97F4A" d="M454.6,420.5c-0.4,0-0.7-0.2-0.7-0.5c0-3.5-1.2-6.3-3.5-8.1c-1.7-1.4-3.4-1.7-3.4-1.7
			c-0.4-0.1-0.6-0.4-0.5-0.6c0.1-0.3,0.5-0.4,0.9-0.4c0.1,0,2.1,0.4,4.1,2c3.2,2.5,3.9,6.2,3.9,8.8
			C455.3,420.3,455,420.5,454.6,420.5z"/>
		<path fill="#DD8858" d="M421.4,405.2c4.9-0.5,5.5-2.3,8.4-2.1c2.9,0.2,1.6,3.7,4.7,3.8c3.1,0.1,14.3-0.5,16.7,5.7
			c2.4,6.2-0.2,10.6-2.4,12.9v4.3c0,0.9-1,1.6-2.3,1.6s-2.3-0.7-2.3-1.6v-4.1c0,0-3.2-1.6-4.8-3.3h-11.6v7.5c0,0.9-1,1.6-2.2,1.6
			s-2.2-0.7-2.2-1.6v-7.8c0,0-3.8-1.5-5.2-3.1c0,0-1,5.4-4.3,5.3c-3.4-0.1-5.9-6-5.9-6s-3-0.7-2.4-4.6s4.1-8.8,8.7-9.7
			C418.7,403.1,421.4,405.2,421.4,405.2z"/>
		<g>
			<path fill="#D97F4A" d="M412.3,423.8c0.5,0.3,1,0.5,1.6,0.5c3.4,0.1,4.3-5.3,4.3-5.3c-1.9-0.2-3.7,0.7-4.3,2
				C413.6,421.8,413.1,422.8,412.3,423.8z"/>
			<path fill="#D97F4A" d="M451.2,412.6c-2.4-6.2-13.5-5.6-16.7-5.7c0,0,12.2,1.2,13.9,6.3c2,6.3-0.1,10.1-2.3,12.4v4.3
				c0,0.5-0.4,1-0.9,1.3c0.4,0.2,0.8,0.3,1.3,0.3c1.3,0,2.3-0.7,2.3-1.6v-4.3C451,423.2,453.6,418.8,451.2,412.6z"/>
			<path fill="#D97F4A" d="M425.2,429.9c0,0.5-0.3,1-0.9,1.3c0.4,0.2,0.9,0.3,1.4,0.3c1.2,0,2.1-0.8,2.1-1.6v-7.5
				c-1.5,0-2.7,0.9-2.7,1.9v5.6H425.2z"/>
		</g>
		<path fill="#FFE9C8" d="M418.7,409.8c-1.8-0.3-2.4-1.9-1.1-2.9c0.7-0.5,1.6-1.3,2.1-2.1c1.1-1.6,1.7-3.1,3.1-3.2
			c1.4,0,2,4.5-1.6,7.6C420.6,409.7,419.6,410,418.7,409.8L418.7,409.8z"/>
		<path fill="#FFDCA7" d="M422.8,401.7c-0.4,0-0.8,0.2-1.1,0.4c0.4,1.5-0.1,4.3-2.6,6.4c-0.5,0.4-1.1,0.6-1.8,0.6
			c0.3,0.3,0.8,0.6,1.4,0.7c0,0,0,0,0.1,0c0.9,0.1,1.8-0.1,2.4-0.6C424.7,406.1,424.1,401.6,422.8,401.7z"/>
		<path fill="#433F43" d="M412.3,408.9c-0.8,0-1.5,0.6-1.5,1.3s0.7,1.3,1.5,1.3s1.5-0.6,1.5-1.3
			C413.9,409.5,413.2,408.9,412.3,408.9z"/>
	</g>
	<g>
		<path fill="#E6E2E6" d="M393.4,324.6h8.8c6.8-4.9,6.2-9,6.2-9c8.5-5.5-0.4-14.8-2.7-17.4c-2.3-2.6-1.2-16.1-12.3-16.1
			c-11.1,0-9.9,13.5-12.3,16.1c-2.3,2.6-11.2,11.9-2.7,17.4c0,0-0.5,4.1,6.2,9H393.4z"/>
		<path fill="#E6E2E6" d="M393.4,324.6h8.8c6.8-4.9,6.2-9,6.2-9c8.5-5.5-0.4-14.8-2.7-17.4c-2.3-2.6-1.2-16.1-12.3-16.1
			c-11.1,0-9.9,13.5-12.3,16.1c-2.3,2.6-11.2,11.9-2.7,17.4c0,0-0.5,4.1,6.2,9H393.4z"/>
		<path fill="#8C808A" d="M393.4,282.1c-10.7,0-10,12.6-12.1,15.8c0.9-0.1,1.9-0.3,2.8-0.8c2.3-1.4,0.8-8.7,5.1-8.7
			c2.5,0,2.3,2.7,2.4,5l1.8,0.4c0,0,1.8-0.3,1.8-0.4c0.1-2.3-0.1-5,2.4-5c4.2,0,2.8,7.3,5.1,8.7c0.8,0.5,1.8,0.7,2.8,0.8
			C403.4,294.7,404.1,282.1,393.4,282.1z"/>
		<path fill="#FFA812" d="M391.6,293.4c0.1,1.6,0.4,2.9,1.8,2.9s1.7-1.3,1.8-2.9H391.6z"/>
		<path fill="#D8D1D7" d="M408.4,315.7c0-0.1,0-0.1,0-0.2c3.3-2.1,4-4.8,3.4-7.5c-0.4,1.6-1.9,3.2-3.9,4.5c0,0,0,0,0,0.1
			c-0.9-4.5-2.4-7.9-2.5-8.1c-0.1-0.3-0.5-0.5-0.9-0.4c-0.3,0.1-0.5,0.5-0.4,0.9c0,0,1.4,3.5,2.4,7.9c0.5,2.4-0.3,4.9-2.1,6.7
			c-0.6,0.6-1.4,1.3-2.3,1.9h-17.6c-0.9-0.6-1.6-1.3-2.3-1.9c-1.8-1.7-2.6-4.3-2.1-6.7c0.9-4.5,2.4-7.9,2.4-8c0.1-0.3,0-0.7-0.4-0.9
			c-0.3-0.1-0.7,0-0.9,0.4c-0.1,0.2-1.6,3.8-2.5,8.4c0-0.1,0-0.1,0-0.1c-2-1.3-3.5-3.2-3.9-4.7c-0.6,2.7,0.1,5.4,3.4,7.5
			c0,0.2,0,0.4,0,0.6c0.1,1.3,1,4.6,6.2,8.4H402c2.8-2,4.3-3.9,5.2-5.4c0.7-1.3,1-2.4,1-3C408.4,316,408.4,315.9,408.4,315.7z"/>
		<path fill="#433F43" d="M388.7,291c-0.8,0-1.4,0.7-1.4,1.6s0.6,1.6,1.4,1.6s1.4-0.7,1.4-1.6C390.1,291.8,389.5,291,388.7,291z"/>
		<path fill="#433F43" d="M398.1,291c-0.8,0-1.4,0.7-1.4,1.6s0.6,1.6,1.4,1.6s1.4-0.7,1.4-1.6C399.4,291.8,398.8,291,398.1,291z"/>
		<path fill="#8C808A" d="M382.4,325.4c-1.2,0-1.9-1.4-1.1-2.3c1.1-1.2,2.8-2.4,5-1.9c2.1,0.5,3.1,1.6,3.5,2.5
			c0.4,0.8-0.2,1.7-1.1,1.7L382.4,325.4L382.4,325.4z"/>
		<path fill="#7B7179" d="M389.6,323.3c-0.2,0.2-0.5,0.4-0.9,0.4h-6.3c-0.5,0-0.9-0.2-1.1-0.5c-0.8,0.9-0.1,2.3,1.1,2.3h6.3
			c0.9,0,1.5-0.9,1.1-1.7C389.8,323.6,389.7,323.4,389.6,323.3z"/>
		<path fill="#8C808A" d="M404.4,325.4c1.2,0,1.9-1.4,1.1-2.3c-1.1-1.2-2.8-2.4-5-1.9c-2.1,0.5-3.1,1.6-3.5,2.5
			c-0.4,0.8,0.2,1.7,1.1,1.7L404.4,325.4L404.4,325.4z"/>
		<path fill="#7B7179" d="M397.1,323.3c0.2,0.2,0.5,0.4,0.9,0.4h6.3c0.5,0,0.9-0.2,1.1-0.5c0.8,0.9,0.1,2.3-1.1,2.3H398
			c-0.9,0-1.5-0.9-1.1-1.7C397,323.6,397,323.4,397.1,323.3z"/>
	</g>
	<g>
		<path fill="#AEE295" d="M359.2,204.6c0,0-4.3,0-6.3,3.8c-1.9,3.5-3.9,4.9-3.7,8.3c0.2,3.4,4.4,4.1,5.7,5.7l-0.1,12.1
			c0,6.3,5,11.4,11.2,11.4s11.2-5.1,11.2-11.3v-3.3c0-2.2,1.7-3.9,3.9-3.9c2.4-0.1,8.1,0.2,8.9-5.9c0.5-4-1.7-6.2-3.2-7.2
			c-0.5-0.3-1,0.2-0.8,0.7c1,2.3,2.3,6.5-2.2,6.5h-4.1c-5.2,0-9.3,4.2-9.4,9.4v4.1c0,1.9-1.5,3.4-3.4,3.4c-1.8,0-3.3-1.5-3.4-3.4
			v-12.5c1.2-1.7,5.5-2.3,5.7-5.7s-1.9-4.8-3.7-8.3C363.5,204.6,359.2,204.6,359.2,204.6"/>
		<path fill="#98DB7C" d="M390.1,219.1c-0.8,6.1-6.5,5.9-8.9,5.9c-2.1,0-3.9,1.7-3.9,3.9v2.3c0-2.2,1.7-3.9,3.9-3.9
			c2.4-0.1,8.1,0.2,8.9-5.9C390.2,220.5,390.2,219.8,390.1,219.1L390.1,219.1z"/>
		<path fill="#98DB7C" d="M366.1,243.6c-6.1,0-11-4.8-11.2-10.9v1.8c0,6.3,5,11.4,11.2,11.4s11.2-5.1,11.2-11.3v-2.3
			C377.3,238.6,372.3,243.6,366.1,243.6z"/>
		<path fill="#FF4755" d="M359.1,214.8c-0.8,0-1.3,0.3-1.7,0.6v3.9c0,0.3,0.3,0.4,0.5,0.3l1.2-1l1.2,1c0.2,0.2,0.5,0,0.5-0.3v-3.9
			C360.4,215.1,359.9,214.8,359.1,214.8z"/>
		<path fill="#FC2B3A" d="M359.1,214.8c-0.8,0-1.3,0.3-1.7,0.6v2.3c0.4-0.3,0.9-0.6,1.7-0.6s1.3,0.3,1.7,0.6v-2.3
			C360.4,215.1,359.9,214.8,359.1,214.8z"/>
		<path fill="#433F43" d="M355.2,210.9c-0.7,0-1.3,0.7-1.3,1.6c0,0.9,0.6,1.6,1.3,1.6c0.7,0,1.3-0.7,1.3-1.6
			S355.9,210.9,355.2,210.9z"/>
		<path fill="#433F43" d="M363.3,210.9c-0.7,0-1.3,0.7-1.3,1.6c0,0.9,0.6,1.6,1.3,1.6c0.7,0,1.3-0.7,1.3-1.6S364,210.9,363.3,210.9z
			"/>
		<path fill="#4FC223" d="M362.9,217.4c-1,0-1.6-0.6-2-1.1c-0.5-0.5-0.8-0.9-1.8-0.9c-0.9,0-1.3,0.4-1.8,0.9c-0.4,0.5-1,1.1-2,1.1
			c-1.7,0-2.6-1.3-2.6-1.3c-0.2-0.3-0.1-0.7,0.2-0.9c0.3-0.2,0.7-0.1,0.9,0.2c0,0,0.5,0.8,1.6,0.8c0.5,0,0.7-0.2,1.1-0.7
			c0.5-0.5,1.2-1.3,2.7-1.3s2.2,0.8,2.7,1.3c0.4,0.5,0.7,0.7,1.1,0.7c1,0,1.5-0.7,1.6-0.8c0.2-0.3,0.6-0.4,0.9-0.2s0.4,0.6,0.2,0.9
			C365.5,216.2,364.6,217.4,362.9,217.4z"/>
	</g>
	<g>
		<path fill="#DD8858" d="M500.2,157.4c0,0-1-6.7,7.5-8.1c7.1-1.2,11.6,1,12.9,1.8c0.2,0.1,0.2,0.4,0,0.5l-2.6,1.6
			c0,0,5.7-0.5,10.1,2c0.2,0.1,0.2,0.4-0.1,0.5l-3.3,1.1c0,0,4,0.8,6.7,3.6c0.2,0.2,0,0.5-0.3,0.5h-3c0,0,3.9,3.9,3.8,8.2
			c0,0.2-0.2,0.3-0.4,0.3l-6.8-1.4"/>
		<path fill="#D97F4A" d="M531.9,167.9l-31.5-13.1c-0.4,1.5-0.2,2.6-0.2,2.6l24.5,10.6l6.8,1.4c0.2,0,0.4-0.1,0.4-0.3
			C532,168.7,532,168.3,531.9,167.9z"/>
		<path fill="#FFCB9D" d="M524.7,168l-18.2-7.9c2.2-1.2,1.3-3.9-1.5-3.8c-1.7,0.1-2.2,1.3-2.3,2.2l-2.5-1.1c0,0-2.9,4.3-5.1,4.5
			c-1.1,0.1-2,0-2.7-0.1s-1.4,0.2-1.7,0.7c-0.4,0.7-0.5,1.7,0.4,2.6c1.8,1.7,6.7,4,9.8,4.3l-1.1,3.1c0,0-3.3,1.1-3.2,2.2h5.4
			c0.3,0,0.6-0.2,0.8-0.4l1.8-4.4c0,0,6.5,1.1,11.5,1c0.3,1,1.1,1.6,1.1,1.6c-3.8,0.3-3.8,2.2-3.8,2.2h9.7c0.2,0,0.5-0.1,0.6-0.2
			C527.2,170.7,524.7,168,524.7,168z"/>
		<path fill="#FFBA7E" d="M524.7,168l-2.5-1.1c0.8,2.2,1.3,5.5-1,7.8h1.9c0.2,0,0.5-0.1,0.6-0.2C527.2,170.7,524.7,168,524.7,168z"
			/>
		<path fill="#FFBA7E" d="M501.7,171.5l-1.3,3.1h1.7c0.3,0,0.6-0.2,0.8-0.4l1.7-4.1l0,0C503.3,170,502.1,170.6,501.7,171.5z"/>
		<path fill="#433F43" d="M499,161.9c-0.7,0-1.3,0.6-1.3,1.3s0.6,1.3,1.3,1.3s1.3-0.6,1.3-1.3S499.8,161.9,499,161.9z"/>
	</g>
	<g>
		<path fill="#FFE9C8" d="M465.5,221.8c-0.9,0-1.9,0-3.1-0.2c-0.7-0.1-1.3-0.3-1.8-0.5c0.5,1.6,1.3,4.3,2.1,5.8
			c1.2,2.3,2.6,4.7,2.6,0.3C465.2,224.9,465.4,223.1,465.5,221.8z"/>
		<path fill="#FFDCA7" d="M462.4,223.7c1.1,0.2,2.1,0.2,2.9,0.2c0.1-0.8,0.1-1.5,0.2-2.1c-0.9,0-1.9,0-3.1-0.2
			c-0.7-0.1-1.3-0.3-1.8-0.5c0.2,0.7,0.5,1.5,0.7,2.4C461.7,223.6,462,223.6,462.4,223.7z"/>
		<path fill="#CAC0C9" d="M496.9,230c-7.3-16.8-24.3-21.2-30.7-19.6c-6.6,1.7-11.3,10-3.7,11.1c1.2,0.2,2.3,0.2,3.1,0.2
			c0,0,2,14.3,16.2,14.4c14.2,0,12.2-2.2,17.8,0.1c5.7,2.3,8.5,4.1,9.5,1C510.2,234.4,506.9,231.2,496.9,230z"/>
		<path fill="#BBB0BA" d="M509.1,235.2c-1.1,3.1-4,1.3-9.8-1.1c-5.8-2.4-3.7-0.1-18.2-0.2c-8.4,0-12.7-4.9-14.7-9.1
			c1.5,4.2,5.4,11.2,15.4,11.3c14.2,0,12.2-2.2,17.8,0.1c5.7,2.3,8.5,4.1,9.5,1C509.4,236.6,509.4,235.9,509.1,235.2z"/>
		<path fill="#433F43" d="M458.9,219.7c1.1-0.2,1.8-1,1.8-1.8s-0.7-1.5-1.7-1.8l0,0C458.4,217.4,458.3,218.7,458.9,219.7z"/>
		<path fill="#CAC0C9" d="M483.7,230.6c0,0,1.2,4.2,4.3,5.8c3.1,1.6,5.5,2.6,4.1,3.7c-1.4,1.1-15.6,1.5-18.3-9"/>
		<path fill="#BBB0BA" d="M491.6,238.2c-2.6,0.6-11.7,0.2-16.8-4.6c4.2,7.9,16.1,7.5,17.4,6.5C493,239.5,492.6,238.9,491.6,238.2z"
			/>
		<path fill="#BBB0BA" d="M469.3,230.3c-0.7,1.4-1.7,3.2-3.4,4.1c-3.1,1.6-5.6,2.3-4.3,3.2c1.2,0.8,7.8,1.8,14.3-2.4
			C472.9,234.1,470.8,232.3,469.3,230.3z"/>
		<path fill="#AB9FAA" d="M469.3,230.3c-0.3,0.7-0.7,1.4-1.3,2.1c1.4,1.6,3.2,3,5.6,4c0.7-0.4,1.5-0.8,2.2-1.3
			C472.9,234.1,470.8,232.3,469.3,230.3z"/>
		<path fill="#433F43" d="M466.4,214.7c-0.9,0-1.6,0.7-1.6,1.5s0.7,1.5,1.6,1.5s1.6-0.7,1.6-1.5S467.3,214.7,466.4,214.7z"/>
	</g>
	<g>
		<path fill="#D8D1D7" d="M459.6,466c-0.2-0.5-0.3-1-0.2-1.4c0.1-0.6,0.3-1.1,0.8-1.5c-0.6-0.4-1.4-0.7-2.2-0.8
			c-2-0.1-3.7,1-3.8,2.6c-0.1,0.8,0.3,1.7,0.9,2.5C456.2,466.7,457.6,466.2,459.6,466z"/>
		<path fill="#E6E2E6" d="M498.2,479.4c-6.9-7-15.8-3-23.4-4.8c-5.9-1.5-5-6-9-7.8c0.4-0.6,0.7-1.2,0.8-1.7c0.1-1.5-1.3-2.8-3.3-3
			c-2-0.1-3.7,1-3.8,2.6c0,0.4,0,0.9,0.2,1.4c-7.9,0.7-7.8,6.4-12.6,5.9c-5.1-0.6-7,0.8-7.8,4.8s1.6,8.4,9.2,9.7
			c2.5,0.4,5,0.2,7.1-0.3c0.7,6.8,4.7,12,6.7,14c0.6,0.6,1.6,1,2.6,1h2.1c1.5,0,2.7-0.8,3.1-1.9l1.2-3.8h15.6l1.2,3.8
			c0.3,1.1,1.6,1.9,3.1,1.9h2.5c1.3,0,2.4-0.6,2.9-1.5C498.7,495.7,503.7,485,498.2,479.4z"/>
		<g>
			<path fill="#D8D1D7" d="M463.2,465c-0.1,0.6-0.3,1.2-0.8,1.7c4,1.8,3.1,6.3,9,7.8c2.4,0.6,5,0.6,7.5,0.5
				c-1.4-0.1-2.8-0.2-4.2-0.5c-5.9-1.5-5-6-9-7.8c0.4-0.6,0.7-1.2,0.8-1.7c0.1-1.5-1.3-2.8-3.3-3c-0.7,0-1.4,0.1-1.9,0.3
				C462.5,462.9,463.3,463.9,463.2,465z"/>
			<path fill="#D8D1D7" d="M466.7,499.2c-0.3,0.9-1.3,1.6-2.4,1.8c0.2,0,0.4,0.1,0.6,0.1h2.1c1.5,0,2.7-0.8,3.1-1.9l1.2-3.8
				c-2,0-3.7,1-4.2,2.5L466.7,499.2z"/>
			<path fill="#D8D1D7" d="M498.2,479.4c-4.3-4.4-9.4-4.4-14.4-4.3c3.9,0.1,7.7,0.9,11,4.3c5.6,5.7,0.6,16.3-1.6,20.2
				c-0.4,0.8-1.4,1.3-2.5,1.5c0.1,0,0.3,0,0.4,0h2.5c1.3,0,2.4-0.6,2.9-1.5C498.7,495.7,503.7,485,498.2,479.4z"/>
			<path fill="#D8D1D7" d="M462.5,482.3c0,0-3.2,2.4-6.9,3.7c0.1,0-0.1,0,0,0c0,0.5,0.1,1,0.2,1.5c4-1.4,7.8-4,7.9-4.1
				c0.4-0.3,0.4-0.7,0.1-1C463.5,482,462.9,482,462.5,482.3z"/>
		</g>
		<path fill="#433F43" d="M457.7,471.1c-1.1,0-1.9,0.8-1.9,1.8s0.8,1.8,1.9,1.8s1.9-0.8,1.9-1.8S458.7,471.1,457.7,471.1z"/>
		<path fill="#433F43" d="M443.7,477.1c-0.5,0-0.9-0.3-0.9-0.7v-1c0-0.4,0.4-0.7,0.9-0.7s0.9,0.3,0.9,0.7v1
			C444.6,476.7,444.2,477.1,443.7,477.1z"/>
	</g>
	<g>
		<path fill="#D97F4A" d="M628.4,296.2c-1.5-1.5-3.1-2-3.2-2c-0.4-0.1-0.9,0-1,0.4c-0.2,0.3,0.1,0.7,0.5,0.9c0,0,1.3,0.5,2.6,1.7
			c1.7,1.7,2.5,3.9,2.4,6.6c0,0.4,0.3,0.7,0.8,0.7l0,0c0.4,0,0.8-0.3,0.8-0.7C631.4,299.9,629.8,297.5,628.4,296.2z"/>
		<path fill="#DD8858" d="M592.4,279.4l-12.4,6.7c-0.8,0.4-1.1,1.3-0.6,2.1c1,1.5,3.4,3.4,9.5,1.4c0,0,7.2,12.3,7.1,14.7
			c0,1.8,0,11.7,0,15.3c0,1.1,1.1,2,2.3,2c1.3,0,2.3-0.9,2.3-2v-13.2h16.2c0,0,2,3.1,5,4.2v9.1c0,1.1,1,1.9,2.3,1.9
			c1.2,0,2.3-0.9,2.3-1.9V309c0,0,3.3-7.7,1.7-11.7c-1.7-4.1-4.3-3.4-5.9-5c-1.7-1.6-2.3-4.9-6.3-4.9s-5.1,3.1-5.1,3.1
			s-3.1-0.5-5.1,1.1s-3.6,2-4.7,0.7c-1.1-1.3-5.4-10.4-5.4-10.4s3.2-1.3,2.4-3C597.2,277.1,594.1,275.9,592.4,279.4z"/>
		<g>
			<path fill="#D97F4A" d="M595.2,278.8c0.4,1-0.4,1.8-1.2,2.4c-0.7,0.5-0.9,1.3-0.6,2c1.2,2.6,3.9,8.1,4.7,9.1
				c0.8,0.9,1.8,1,3.1,0.3c-0.1-0.1-0.2-0.2-0.3-0.3c-1.1-1.3-5.4-10.4-5.4-10.4s3.2-1.3,2.4-3c-0.6-1.3-2.4-2.3-4-1.3
				C594.5,277.9,594.9,278.3,595.2,278.8z"/>
			<path fill="#D97F4A" d="M597.8,319.6c0,0.7-0.4,1.3-0.9,1.6c0.4,0.3,0.9,0.4,1.4,0.4c1.3,0,2.4-1,2.4-2.1v-13.2
				c-1.6,0-2.8,1.1-2.8,2.4L597.8,319.6L597.8,319.6z"/>
			<path fill="#D97F4A" d="M628.1,297.2c-1.7-4.1-4.3-3.4-5.9-5c-1.7-1.6-2.3-4.9-6.3-4.9c-0.5,0-1,0.1-1.4,0.2
				c2.8,0.7,3.5,3.9,4.9,5.2c1.7,1.6,4.5,1.6,6.1,5.7c1.7,4.1-1.8,10.5-1.8,10.5v10.7c0,0.6-0.3,1.2-0.8,1.5
				c0.4,0.3,0.9,0.4,1.4,0.4c1.2,0,2.3-0.9,2.3-1.9v-10.7C626.4,308.9,629.8,301.3,628.1,297.2z"/>
		</g>
		<path fill="#433F43" d="M588.5,283.8c-0.9,0-1.6,0.7-1.6,1.7s0.7,1.7,1.6,1.7c0.9,0,1.6-0.7,1.6-1.7
			C590.1,284.6,589.4,283.8,588.5,283.8z"/>
	</g>
	<g>
		<path fill="#D8D1D7" d="M183.5,488.4c-1,0-1.8-0.8-1.8-1.8v-8.1h3.7v8.1C185.3,487.6,184.5,488.4,183.5,488.4z"/>
		<path fill="#D8D1D7" d="M190.9,488.4h-0.1c-1,0-1.8-0.8-1.8-1.7v-8.1h3.7v8.1C192.7,487.6,191.9,488.4,190.9,488.4z"/>
		<g>
			<path fill="#E6E2E6" d="M187.2,488.4c-1,0-1.8-0.8-1.8-1.8v-8.1h3.7v8.1C189,487.6,188.2,488.4,187.2,488.4z"/>
			<path fill="#E6E2E6" d="M181.6,478.5c-1.2,0-2.2-0.5-3-1.2c-0.1,0.6-0.2,1.2-0.5,1.8c-0.5,1.3-1.3,3-3.5,3l0,0
				c-1.1,0-2-0.3-2.7-1c-0.7-0.6-1-1.5-1-2.4s-0.7-1.6-1.6-1.6c-0.9,0-1.6,0.7-1.6,1.6c0,1.8,0.7,3.4,2,4.6s3.1,1.9,5,1.9l0,0
				c1.8,0,3.3-0.6,4.5-1.8C180.4,482.3,181.2,480.6,181.6,478.5L181.6,478.5z"/>
			<path fill="#E6E2E6" d="M192.8,478.5c1.2,0,2.2-0.5,3-1.2c0.1,0.6,0.2,1.2,0.5,1.8c0.5,1.3,1.3,3,3.5,3l0,0c1.1,0,2-0.3,2.7-1
				c0.7-0.6,1-1.5,1-2.4s0.7-1.6,1.6-1.6s1.6,0.7,1.6,1.6c0,1.8-0.7,3.4-2,4.6s-3.1,1.9-5,1.9l0,0c-1.8,0-3.3-0.6-4.5-1.8
				C194,482.3,193.2,480.6,192.8,478.5L192.8,478.5z"/>
		</g>
		<path fill="#CAC0C9" d="M194.6,462.2h-14.8l-2.3,11.7c-0.5,2.4,1.5,4.6,4,4.6h11.2c2.6,0,4.5-2.2,4-4.6L194.6,462.2z"/>
		<path fill="#D8D1D7" d="M181.7,478.5L181.7,478.5c-1.3,0-2.3-0.5-3.1-1.2c-0.1,0.5-0.2,1.1-0.4,1.8c0.6,0.9,1.6,1.5,2.8,1.7
			C181.3,480.1,181.5,479.3,181.7,478.5z"/>
		<path fill="#CAC0C9" d="M181.7,478.5h3.7v2.3h-3.7V478.5z"/>
		<path fill="#D8D1D7" d="M185.3,480.8h3.7v-2.3h-3.7V480.8z"/>
		<path fill="#CAC0C9" d="M189,478.5h3.7v2.3H189V478.5z"/>
		<path fill="#D8D1D7" d="M196.2,479c-0.2-0.6-0.4-1.2-0.4-1.8c-0.7,0.8-1.8,1.2-3,1.2h-0.1c0.2,0.8,0.4,1.6,0.7,2.2
			C194.6,480.6,195.6,479.9,196.2,479z"/>
		<path fill="#E6E2E6" d="M187.2,462.2h8.5c1.7,0,2.7-1.8,1.7-3.1l-8.2-11.7c-0.9-1.3-3-1.3-4,0l-8.2,11.7c-0.9,1.3,0.1,3.1,1.7,3.1
			H187.2z"/>
		<path fill="#D8D1D7" d="M197.4,459c-0.4,0.5-1,0.8-1.7,0.8h-16.9c-0.7,0-1.3-0.3-1.7-0.8l0,0c-0.9,1.3,0.1,3.1,1.7,3.1h16.9
			C197.3,462.2,198.3,460.4,197.4,459L197.4,459z"/>
		<path fill="#BBB0BA" d="M195,464.4l-0.4-2.3h-14.8l-0.4,2.3H195z"/>
		<path fill="#433F43" d="M183.5,472.5c-0.8,0-1.3,0.7-1.3,1.6s0.6,1.6,1.3,1.6c0.8,0,1.3-0.7,1.3-1.6
			C184.9,473.2,184.3,472.5,183.5,472.5z"/>
		<path fill="#433F43" d="M190.9,472.5c-0.8,0-1.3,0.7-1.3,1.6s0.6,1.6,1.3,1.6s1.3-0.7,1.3-1.6S191.6,472.5,190.9,472.5z"/>
	</g>
	<g>
		<path fill="#AD5E2E" d="M143.6,298.3c-5.5,0.2-7.9,3.9-9.6,7.5c0.3,1.6,0.1,3.4-0.8,5.2c5,4.1,6.4,9.6,6.6,13.9
			c0.1,2.3-0.8,4.3-2.3,5.5c5.1,1.2,8.5-1.2,9.4-5.1c1-4.3-0.9-6.7-2.3-8.7c-1.4-2,0.1-4.7,0.1-4.7c2.1,4.3,8.2,3.9,8.9-1.7
			C154.3,303.8,151.2,298,143.6,298.3z"/>
		<path fill="#A05528" d="M153.5,308.1c-0.7,5.6-6.8,6-8.9,1.7c0,0-1,1.8-0.5,3.6c0.2-0.9,0.5-1.5,0.5-1.5c2.1,4.3,8.2,3.9,8.9-1.7
			c0.1-1,0.2-2.1,0.1-3C153.5,307.4,153.5,307.7,153.5,308.1z"/>
		<path fill="#A05528" d="M146.8,323.2c-0.8,3.5-3.6,5.8-7.9,5.4c-0.4,0.7-0.9,1.4-1.5,1.9c5.1,1.2,8.5-1.2,9.4-5.1
			c0.3-1.3,0.3-2.4,0.2-3.3C147,322.3,146.9,322.7,146.8,323.2z"/>
		<path fill="#DD8858" d="M139.7,324.9c-0.2-4.3-1.6-9.9-6.6-13.9c2.3-4.6,0-9.3-3.5-9.5s-8.8,2.2-8.4,6.8c0.2,2,2.3,3.4,4.7,4
			c-1,3.7-3,13.7,3.3,19.5h4.8C137.3,331.7,139.9,328.6,139.7,324.9z"/>
		<path fill="#FFE9C8" d="M129.3,331.7h1.4c0.9-9.8-4.7-19.5-4.7-19.5C125,315.9,123,325.9,129.3,331.7z"/>
		<path fill="#DD8858" d="M131.6,331.7h-7.7c-0.8,0-1.4-0.9-1.1-1.8c0.2-0.7,0.6-1.5,1.4-2c1.9-1.1,4-0.8,4-0.8s-3.1-7.1,3.8-9.1"/>
		<path fill="#D97F4A" d="M139.7,324.1c-0.4,3.1-2.8,5.5-5.6,5.5H124c-0.3,0-0.6-0.2-0.8-0.4c-0.1,0.2-0.2,0.5-0.3,0.7
			c-0.2,0.9,0.3,1.8,1.1,1.8h10.1c3.3,0,5.9-3.1,5.7-6.8C139.7,324.6,139.7,324.4,139.7,324.1z"/>
		<path fill="#DD8858" d="M128.9,312.2c0,0-1.9,2.9-6.3,4.7c-3.1,1.3-2,5.9,6.6,0.6"/>
		<path fill="#D97F4A" d="M121.6,317.6c-1.7,1.7,0.2,4.5,7.6-0.1c-0.1-1-0.9-1.6-1.6-1.2C124.4,318,122.5,318.1,121.6,317.6z"/>
		<path fill="#433F43" d="M126.4,305.5c-0.6,0-1,0.7-1,1.5s0.4,1.5,1,1.5s1-0.7,1-1.5S127,305.5,126.4,305.5z"/>
		<path fill="#CA6D36" d="M128.7,300.4c-0.4-1-1.1-1.7-1.5-1.6c-0.9,0.1-2.1,2.7-2.7,4c1.1-0.6,2.4-1.1,3.6-1.2
			C128.3,301.2,128.5,300.8,128.7,300.4z"/>
		<path fill="#DD8858" d="M127.5,302.8c0,0,1.6-3.9,2.8-4s3.2,4.2,1,5.8"/>
		<path fill="#914D24" d="M144.8,308.6c0.3-0.6,0.7-0.9,0.7-0.9c0.2-0.2,0.3-0.5,0.2-0.8s-0.4-0.4-0.7-0.2c0,0-2.5,1.7-0.9,5.5
			l0.2,0.4c0.2-0.4,0.3-0.7,0.3-0.7l0.1-0.1c0.1-0.3,0.2-0.6,0.1-1C144.5,310,144.5,309.2,144.8,308.6z"/>
	</g>
	<g>
		<g>
			<path fill="#FFCB9D" d="M280.3,420.1c-0.4-0.2-0.8-0.6-1.1-0.9c-0.5,1-1.3,3-1.4,5.2c-0.1,1.7,1.5,3.1,3.5,3.1
				c1.7,0,3.1-1,3.4-2.3c0.2-0.9,0.7-2,1.4-3.2C283.4,421.5,281.6,420.8,280.3,420.1z"/>
			<path fill="#FFCB9D" d="M313.3,424.4c-0.4-3.3-1.2-6.5-1.2-6.5c0.2,1-0.4,1.9-1.4,2.3c-1.1,0.4-2.7,1-4.9,1.5
				c0.2,1,0.3,2.2,0.4,3.2c0.2,1.5,1.7,2.6,3.5,2.6C311.9,427.5,313.5,426.1,313.3,424.4z"/>
			<path fill="#FFCB9D" d="M279.2,419.2c-0.7-0.8-1-1.7-0.8-2.7c0.1-0.5,0.2-1,0.3-1.6c-3.2-1.6-6.8-2.7-8.1-0.3
				c-2.1,3.9,3.8,6.9,7.3,8.3C278.3,421.3,278.8,420,279.2,419.2z"/>
		</g>
		<path fill="#FFBA7E" d="M278.4,416.5c0.1-0.5,0.2-1,0.3-1.6c-0.7-0.3-1.4-0.7-2-0.9c-2.4,5.3,1.6,7.6,1.6,7.6l0,0
			c0.3-1,0.6-1.8,0.9-2.3C278.5,418.4,278.2,417.5,278.4,416.5z"/>
		<path fill="#AEE295" d="M280.3,420.1c-1.4-0.8-2.2-2.2-2-3.6c0.6-3.6,3-11.2,12.7-12.5c15.7-2.2,20,9.6,21.1,13.9
			c0.2,1-0.4,1.9-1.4,2.3c-2.8,1.1-8.8,2.9-17.4,2.6C286.3,422.6,282.4,421.2,280.3,420.1z"/>
		<path fill="#FFBA7E" d="M286.2,422.1c-2.8-0.6-4.6-1.3-5.8-2c-0.4-0.2-0.8-0.6-1.1-0.9c-0.3,0.5-0.6,1.3-0.9,2.3
			c1.4,0.8,3.6,1.7,6.9,2.4C285.5,423.3,285.8,422.7,286.2,422.1z"/>
		<path fill="#FFBA7E" d="M310.7,420.2c-1.1,0.4-2.7,1-4.9,1.5c0.1,0.6,0.2,1.3,0.3,1.9c3-0.6,5.2-1.4,6.7-2c0,0,0,0,0.1,0
			c-0.4-2.1-0.8-3.7-0.8-3.7C312.4,418.8,311.8,419.8,310.7,420.2z"/>
		<path fill="#98DB7C" d="M312,417.2c-0.2,0.5-0.7,0.8-1.2,1.1c-2.8,1.1-8.8,2.9-17.4,2.6c-7-0.2-10.9-1.6-13-2.7
			c-0.9-0.5-1.6-1.3-1.9-2.2c0,0.2-0.1,0.4-0.1,0.5c-0.2,1.4,0.5,2.8,2,3.6c2.1,1.2,6,2.5,13,2.7c8.6,0.3,14.6-1.5,17.4-2.6
			c1.1-0.4,1.6-1.4,1.4-2.3C312.1,417.7,312,417.5,312,417.2z"/>
		<path fill="#82D361" d="M311.2,414.9l-2.3,1.1l-4.2-2v-4.1l2.4-1.4c-0.3-0.3-0.6-0.6-0.9-0.8L304,409l-4.2-2v-2.6
			c-0.4-0.1-0.9-0.2-1.3-0.3v2.9l-4.3,2l-4.3-2v-2.8c-0.5,0.1-0.9,0.2-1.3,0.3v2.5l-4.2,2l-1.8-1.2c-0.3,0.3-0.6,0.6-0.8,0.8
			l1.9,1.3v4.1l-5.3,1.9c0,0.2-0.1,0.4-0.1,0.6s0,0.4,0,0.6l6.1-2.2l4.3,2v5.6c0.4,0.1,0.9,0.1,1.3,0.1v-5.7l4.3-2l4.3,2v5.8
			c0.4,0,0.9-0.1,1.3-0.1v-5.7l4.3-2l4.2,2v4.1c0.5-0.1,0.9-0.3,1.3-0.4v-3.7l2-1C311.4,415.6,311.3,415.2,311.2,414.9z M293.6,414
			l-4.3,2l-4.3-2v-4.1l4.3-2l4.3,2V414z M303.4,414l-4.3,2l-4.3-2v-4.1l4.3-2l4.3,2V414z"/>
		<path fill="#433F43" d="M274.4,415c-0.7,0-1.3,0.6-1.3,1.4s0.6,1.4,1.3,1.4c0.7,0,1.3-0.6,1.3-1.4
			C275.7,415.6,275.1,415,274.4,415z"/>
	</g>
</g>
</svg>
