<svg id="Слой_1" data-name="Слой 1" xmlns="http://www.w3.org/2000/svg" viewBox="0 0 691.63 487.38"><defs><style>.cls-1{fill:#008e39;stroke:#31ad68;stroke-miterlimit:10;}.cls-2{fill:#92c020;}.cls-10,.cls-2,.cls-3,.cls-4,.cls-5,.cls-6,.cls-8,.cls-9{stroke:#05602d;stroke-linecap:round;stroke-linejoin:round;}.cls-2,.cls-3,.cls-4,.cls-5{stroke-dasharray:5 12;}.cls-3{fill:#aed07d;}.cls-4{fill:#c6d37b;}.cls-5{fill:#c2d44d;}.cls-6{fill:#82ccf3;stroke-dasharray:5 10;}.cls-7{fill:#40bfe6;}.cls-10,.cls-8,.cls-9{fill:none;}.cls-9{stroke-dasharray:5.03 10.07;}.cls-10{stroke-dasharray:5.36 10.72;}</style></defs><title>map</title><text x="-48.84" y="-70.39"></text><g id="Фон"><path class="cls-1" d="M165,124.2c32.9-22.9,59.6,4.2,129.8,5.1,125.9,1.6,177.5-83.7,252.7-50.9,24.5,10.7,13.1,17.2,64.1,52.9,64.6,45.2,94.1,42.7,115.6,76,14.6,22.6,13.6,48.4,11.7,100-3.1,83.1-4.7,125.6-34.1,166C655.6,541,567,550.2,542.1,552.7c-42.2,4.4-84.4,13-153.9-17.5-42.6-18.7-76.7-21.5-99.4-20.8-54,1.7-87.3,24.3-140.3,11a153.38,153.38,0,0,1-40.9-16.9c-50-51.1-59.1-91.8-58.2-119.5,1.6-49.3,34.9-59.4,68.8-144.8C147.2,171.2,136.5,144.1,165,124.2Z" transform="translate(-48.84 -70.39)"/></g><g id="межа"><path class="cls-2" d="M87.7,452.8,70.2,422.4a33.49,33.49,0,0,1,12.2-45.7h0a33.49,33.49,0,0,1,45.7,12.2l17.5,30.4A33.49,33.49,0,0,1,133.4,465h0A33.38,33.38,0,0,1,87.7,452.8Z" transform="translate(-48.84 -70.39)"/><path class="cls-2" d="M264.1,211.8a147.81,147.81,0,0,1-66.2-4.5A144.78,144.78,0,0,1,147.3,180c-.4-3.5-1.7-19.1,9.1-33.1a46.09,46.09,0,0,1,22.4-15.7,112.73,112.73,0,0,1,85.3,20.2,72.85,72.85,0,0,1,6.5,33.8A75.42,75.42,0,0,1,264.1,211.8Z" transform="translate(-48.84 -70.39)"/><path class="cls-3" d="M541.6,154.8l-65.8,15.7a12,12,0,0,1-14.4-8.8L450,113.9a12,12,0,0,1,8.8-14.4l65.8-15.7A12,12,0,0,1,539,92.6l11.4,47.8A11.8,11.8,0,0,1,541.6,154.8Z" transform="translate(-48.84 -70.39)"/><path class="cls-2" d="M525.3,547.1l-98.2-10a17.27,17.27,0,0,1-15.4-18.9l3.2-31.7a17.27,17.27,0,0,1,18.9-15.4l98.2,10A17.27,17.27,0,0,1,547.4,500l-3.2,31.7A17.2,17.2,0,0,1,525.3,547.1Z" transform="translate(-48.84 -70.39)"/><path class="cls-2" d="M202.3,310.3,154.1,291a37.09,37.09,0,0,1-20.7-48.1h0a37.09,37.09,0,0,1,48.1-20.7l48.2,19.3a37.09,37.09,0,0,1,20.7,48.1h0A36.93,36.93,0,0,1,202.3,310.3Z" transform="translate(-48.84 -70.39)"/><path class="cls-2" d="M309.4,208.6a27.32,27.32,0,0,1-20.1-3.9c-11.5-7.8-11.7-21.5-11.7-22.7V146.7a10.54,10.54,0,0,1,10.6-10.6h35.3a10.54,10.54,0,0,1,10.6,10.6V182a22.85,22.85,0,0,1-1.6,13.2C328.6,203.3,319.7,208.4,309.4,208.6Z" transform="translate(-48.84 -70.39)"/><path class="cls-2" d="M175.1,351.6a27.28,27.28,0,0,1-12.9,15.9c-12.3,6.5-24.5.2-25.5-.3l-31.2-16.6a10.59,10.59,0,0,1-4.4-14.3l16.6-31.2a10.59,10.59,0,0,1,14.3-4.4l31.2,16.6a22.17,22.17,0,0,1,10.9,7.7C179.5,332.2,179.8,342.5,175.1,351.6Z" transform="translate(-48.84 -70.39)"/><path class="cls-4" d="M433.2,215.8a56.8,56.8,0,0,1-21.4,1.3c-11.6-1.5-28.9-9.1-32-12.2a10.73,10.73,0,0,1-3.1-7.6V136.2a10.71,10.71,0,0,1,10.7-10.7s55.7,4.8,55.7,10.7c2.4,4.1,15.7,28,6.4,54.8A62.56,62.56,0,0,1,433.2,215.8Z" transform="translate(-48.84 -70.39)"/><path class="cls-4" d="M587.5,165.8h0a12.94,12.94,0,0,0,8.2-16.4l-4-11.9a12.94,12.94,0,0,0-16.4-8.2h0a12.94,12.94,0,0,0-8.2,16.4l4,11.9A12.9,12.9,0,0,0,587.5,165.8Z" transform="translate(-48.84 -70.39)"/><path class="cls-4" d="M714.5,401h0a13,13,0,0,0,14.2-11.6L730,377a13,13,0,0,0-11.6-14.2h0a13,13,0,0,0-14.2,11.6l-1.3,12.4A12.86,12.86,0,0,0,714.5,401Z" transform="translate(-48.84 -70.39)"/><path class="cls-4" d="M690.5,452h0a13,13,0,0,0,17.4-5.9l5.5-11.2a13,13,0,0,0-5.9-17.4h0a13,13,0,0,0-17.4,5.9l-5.5,11.2A13,13,0,0,0,690.5,452Z" transform="translate(-48.84 -70.39)"/><path class="cls-5" d="M660.3,493H596a15.3,15.3,0,0,1-15.3-15.3V403A15.3,15.3,0,0,1,596,387.7h64.3A15.3,15.3,0,0,1,675.6,403v74.7A15.36,15.36,0,0,1,660.3,493Z" transform="translate(-48.84 -70.39)"/><path class="cls-6" d="M227.7,515.7H162.9a16,16,0,0,1-16-16V480.4a16,16,0,0,1,16-16h64.8a16,16,0,0,1,16,16v19.3A16,16,0,0,1,227.7,515.7Z" transform="translate(-48.84 -70.39)"/><path class="cls-5" d="M191.5,366.9a58.26,58.26,0,0,0,9.9,18.8c12,15.2,28.2,20,34.5,21.5-11.4,12.6-22.8,25.1-34.2,37.7a42.71,42.71,0,0,1-26.4-7.3c-16.3-11.3-17.8-30.3-18-32.9Z" transform="translate(-48.84 -70.39)"/><rect class="cls-7" x="381.36" y="199.21" width="120.8" height="96.1"/><polyline class="cls-8" points="502.16 292.81 502.16 295.31 499.66 295.31"/><line class="cls-9" x1="489.56" y1="295.31" x2="388.86" y2="295.31"/><polyline class="cls-8" points="383.86 295.31 381.36 295.31 381.36 292.81"/><line class="cls-10" x1="381.36" y1="282.11" x2="381.36" y2="207.01"/><polyline class="cls-8" points="381.36 201.71 381.36 199.21 383.86 199.21"/><line class="cls-9" x1="393.96" y1="199.21" x2="494.66" y2="199.21"/><polyline class="cls-8" points="499.66 199.21 502.16 199.21 502.16 201.71"/><line class="cls-10" x1="502.16" y1="212.41" x2="502.16" y2="287.41"/><path class="cls-2" d="M711.3,273.4l-13.2,3.1A16.89,16.89,0,0,1,677.7,264l-8.6-35.9a16.89,16.89,0,0,1,12.5-20.4l13.2-3.1a16.89,16.89,0,0,1,20.4,12.5l8.6,35.9A16.89,16.89,0,0,1,711.3,273.4Z" transform="translate(-48.84 -70.39)"/><path class="cls-2" d="M711.7,347.5H686.4a17.2,17.2,0,0,1-17.2-17.2V305a17.2,17.2,0,0,1,17.2-17.2h25.3A17.2,17.2,0,0,1,728.9,305v25.3A17.2,17.2,0,0,1,711.7,347.5Z" transform="translate(-48.84 -70.39)"/><path class="cls-2" d="M552.8,464.4H512.5a12.29,12.29,0,0,1-12.3-12.3V423.5a12.29,12.29,0,0,1,12.3-12.3h40.3a12.29,12.29,0,0,1,12.3,12.3v28.6A12.23,12.23,0,0,1,552.8,464.4Z" transform="translate(-48.84 -70.39)"/><path class="cls-5" d="M589.5,244.6H575.4a19.89,19.89,0,0,1-19.9-19.9V210.6a19.89,19.89,0,0,1,19.9-19.9h14.1a19.89,19.89,0,0,1,19.9,19.9v14.1A19.89,19.89,0,0,1,589.5,244.6Z" transform="translate(-48.84 -70.39)"/><rect class="cls-4" x="476.8" y="171.2" width="84.4" height="24.7" transform="translate(-79.49 82.62) rotate(-16.3)"/><path class="cls-5" d="M653.7,197.9h0a19.8,19.8,0,0,1-27.5,5.4l-9.7-6.5a19.8,19.8,0,0,1-5.4-27.5h0a19.8,19.8,0,0,1,27.5-5.4l9.7,6.5A19.63,19.63,0,0,1,653.7,197.9Z" transform="translate(-48.84 -70.39)"/><path class="cls-5" d="M329.3,277.6c-2.1,2.7-9.5,11.4-22.1,13.6-13.4,2.4-27.5-3.5-36.5-15.1.9-7.9,1.8-15.9,2.8-23.8.9-15,13-26.8,27.3-27.3,13.2-.5,25.3,8.7,28.6,22.1C329.3,257.2,329.3,267.4,329.3,277.6Z" transform="translate(-48.84 -70.39)"/><path class="cls-4" d="M391.2,266.3h-29a13.87,13.87,0,0,1-13.9-13.9v-8.9a13.87,13.87,0,0,1,13.9-13.9h29a13.87,13.87,0,0,1,13.9,13.9v8.9A13.87,13.87,0,0,1,391.2,266.3Z" transform="translate(-48.84 -70.39)"/><path class="cls-6" d="M412.1,287.1V354a11.65,11.65,0,0,1-11.7,11.7h0A11.65,11.65,0,0,1,388.7,354V287.1a11.65,11.65,0,0,1,11.7-11.7h0A11.78,11.78,0,0,1,412.1,287.1Z" transform="translate(-48.84 -70.39)"/><path class="cls-6" d="M517.2,259.7H450.3A11.65,11.65,0,0,1,438.6,248h0a11.65,11.65,0,0,1,11.7-11.7h66.9A11.65,11.65,0,0,1,528.9,248h0A11.65,11.65,0,0,1,517.2,259.7Z" transform="translate(-48.84 -70.39)"/><path class="cls-6" d="M665.9,377.4H599a11.65,11.65,0,0,1-11.7-11.7h0A11.65,11.65,0,0,1,599,354h66.9a11.65,11.65,0,0,1,11.7,11.7h0A11.65,11.65,0,0,1,665.9,377.4Z" transform="translate(-48.84 -70.39)"/><path class="cls-4" d="M349,389.6H320a13.87,13.87,0,0,1-13.9-13.9v-8.9A13.87,13.87,0,0,1,320,352.9h29a13.87,13.87,0,0,1,13.9,13.9v8.9A14,14,0,0,1,349,389.6Z" transform="translate(-48.84 -70.39)"/><path class="cls-5" d="M630.1,287.9h-29A13.87,13.87,0,0,1,587.2,274v-8.9a13.87,13.87,0,0,1,13.9-13.9h29A13.87,13.87,0,0,1,644,265.1V274A13.87,13.87,0,0,1,630.1,287.9Z" transform="translate(-48.84 -70.39)"/><path class="cls-5" d="M624.6,339.9h-29A13.87,13.87,0,0,1,581.7,326v-8.9a13.87,13.87,0,0,1,13.9-13.9h29a13.87,13.87,0,0,1,13.9,13.9V326A13.87,13.87,0,0,1,624.6,339.9Z" transform="translate(-48.84 -70.39)"/><rect class="cls-6" x="242.36" y="335.51" width="23.4" height="41.6"/><rect class="cls-4" x="283.36" y="335.51" width="26.6" height="41.6"/><path class="cls-2" d="M450,463.1H420.1a21.79,21.79,0,0,1-21.8-21.8v-7.1a21.79,21.79,0,0,1,21.8-21.8H450a21.79,21.79,0,0,1,21.8,21.8v7.1A21.79,21.79,0,0,1,450,463.1Z" transform="translate(-48.84 -70.39)"/></g><ellipse class="cls-5" cx="248.13" cy="352.5" rx="41.2" ry="34.7" transform="translate(-204.04 129.95) rotate(-34.19)"/></svg>