<?xml version="1.0" encoding="utf-8"?>
<!-- Generator: Adobe Illustrator 21.0.1, SVG Export Plug-In . SVG Version: 6.00 Build 0)  -->
<svg version="1.2" baseProfile="tiny" xmlns="http://www.w3.org/2000/svg" xmlns:xlink="http://www.w3.org/1999/xlink" x="0px"
	 y="0px" viewBox="0 0 792 612" xml:space="preserve">
<g id="Слой_1">
	<path id="background" fill="#008D36" stroke="#2FAC66" stroke-miterlimit="10" d="M167.5,95.5c32.9-22.9,59.6,4.2,129.8,5.1
		c125.9,1.6,177.5-83.7,252.7-50.9c24.5,10.7,13.1,17.2,64.1,52.9c64.6,45.2,94.1,42.7,115.6,76c14.6,22.6,13.6,48.4,11.7,100
		c-3.1,83.1-4.7,125.6-34.1,166c-49.2,67.7-137.8,76.9-162.7,79.4c-42.2,4.4-84.4,13-153.9-17.5c-42.6-18.7-76.7-21.5-99.4-20.8
		c-54,1.7-87.3,24.3-140.3,11c-18.5-4.6-32.6-12-40.9-16.9C60.1,428.7,51,388,51.9,360.3c1.6-49.3,34.9-59.4,68.8-144.8
		C149.7,142.5,139,115.4,167.5,95.5z"/>
	<g id="межа">
		
			<path id="lion" fill="#91BF20" stroke="#005F27" stroke-linecap="round" stroke-linejoin="round" stroke-miterlimit="10" stroke-dasharray="5,12" d="
			M80.7,431.8l-17.5-30.4c-9.2-16-3.8-36.4,12.2-45.7l0,0c16-9.2,36.4-3.8,45.7,12.2l17.5,30.4c9.2,16,3.8,36.4-12.2,45.7l0,0
			C110.4,453.3,89.9,447.8,80.7,431.8z"/>
		
			<path id="deer" fill="#91BF20" stroke="#005F27" stroke-linecap="round" stroke-linejoin="round" stroke-miterlimit="10" stroke-dasharray="5,12" d="
			M257.1,190.8c-13.1,2.1-37.6,4.2-66.2-4.5c-24-7.3-40.9-19.2-50.6-27.3c-0.4-3.5-1.7-19.1,9.1-33.1c8-10.5,18.4-14.4,22.4-15.7
			c9.4-1.6,25.4-3.1,44.4,1.4c19.4,4.5,33.2,13.2,40.9,18.8c2.8,6.2,7.3,18.2,6.5,33.8C263,175.9,259.6,185.1,257.1,190.8z"/>
		
			<path id="giraphe" fill="#AED37B" stroke="#005F27" stroke-linecap="round" stroke-linejoin="round" stroke-miterlimit="10" stroke-dasharray="5,12" d="
			M534.6,133.8l-65.8,15.7c-6.4,1.5-12.9-2.4-14.4-8.8L443,92.9c-1.5-6.4,2.4-12.9,8.8-14.4l65.8-15.7c6.4-1.5,12.9,2.4,14.4,8.8
			l11.4,47.8C545,125.8,541.1,132.3,534.6,133.8z"/>
		
			<path id="hipo" fill="#91BF20" stroke="#005F27" stroke-linecap="round" stroke-linejoin="round" stroke-miterlimit="10" stroke-dasharray="5,12" d="
			M518.3,526.1l-98.2-10c-9.5-1-16.3-9.4-15.4-18.9l3.2-31.7c1-9.5,9.4-16.3,18.9-15.4l98.2,10c9.5,1,16.3,9.4,15.4,18.9l-3.2,31.7
			C536.2,520.2,527.8,527.1,518.3,526.1z"/>
		
			<path id="horse" fill="#91BF20" stroke="#005F27" stroke-linecap="round" stroke-linejoin="round" stroke-miterlimit="10" stroke-dasharray="5,12" d="
			M195.3,289.3L147.1,270c-19-7.6-28.2-29.1-20.7-48.1l0,0c7.6-19,29.1-28.2,48.1-20.7l48.2,19.3c19,7.6,28.2,29.1,20.7,48.1l0,0
			C235.8,287.7,214.3,296.9,195.3,289.3z"/>
		
			<path id="panda" fill="#91BF20" stroke="#005F27" stroke-linecap="round" stroke-linejoin="round" stroke-miterlimit="10" stroke-dasharray="5,12" d="
			M302.4,187.6c-1.9,0.4-11.3,2-20.1-3.9c-11.5-7.8-11.7-21.5-11.7-22.7v-35.3c0-5.9,4.7-10.6,10.6-10.6h35.3
			c5.9,0,10.6,4.7,10.6,10.6V161c0.4,2.7,0.9,7.9-1.6,13.2C321.6,182.3,312.7,187.4,302.4,187.6z"/>
		
			<path id="squirrel" fill="#91BF20" stroke="#005F27" stroke-linecap="round" stroke-linejoin="round" stroke-miterlimit="10" stroke-dasharray="5,12" d="
			M168.1,330.6c-0.6,1.9-3.5,10.9-12.9,15.9c-12.3,6.5-24.5,0.2-25.5-0.3l-31.2-16.6c-5.2-2.7-7.1-9.2-4.4-14.3l16.6-31.2
			c2.7-5.2,9.2-7.1,14.3-4.4l31.2,16.6c2.6,0.9,7.4,2.9,10.9,7.7C172.5,311.2,172.8,321.5,168.1,330.6z"/>
		
			<path id="kengo" fill="#C6D37B" stroke="#005F27" stroke-linecap="round" stroke-linejoin="round" stroke-miterlimit="10" stroke-dasharray="5,12" d="
			M426.2,194.8c-4.7,1.2-12.3,2.5-21.4,1.3c-11.6-1.5-28.9-9.1-32-12.2c-1.9-1.9-3.1-4.6-3.1-7.6v-61.1c0-5.9,4.8-10.7,10.7-10.7
			c0,0,55.7,4.8,55.7,10.7c2.4,4.1,15.7,28,6.4,54.8C438.2,182.2,431,190.3,426.2,194.8z"/>
		
			<path id="hen2" fill="#C6D37B" stroke="#005F27" stroke-linecap="round" stroke-linejoin="round" stroke-miterlimit="10" stroke-dasharray="5,12" d="
			M580.5,144.8L580.5,144.8c6.8-2.3,10.5-9.6,8.2-16.4l-4-11.9c-2.3-6.8-9.6-10.5-16.4-8.2l0,0c-6.8,2.3-10.5,9.6-8.2,16.4l4,11.9
			C566.3,143.4,573.7,147.1,580.5,144.8z"/>
		
			<path id="owl" fill="#C6D37B" stroke="#005F27" stroke-linecap="round" stroke-linejoin="round" stroke-miterlimit="10" stroke-dasharray="5,12" d="
			M707.5,380L707.5,380c7.1,0.7,13.5-4.5,14.2-11.6L723,356c0.7-7.1-4.5-13.5-11.6-14.2l0,0c-7.1-0.7-13.5,4.5-14.2,11.6l-1.3,12.4
			C695.1,372.9,700.3,379.3,707.5,380z"/>
		
			<path id="flamingo" fill="#C6D37B" stroke="#005F27" stroke-linecap="round" stroke-linejoin="round" stroke-miterlimit="10" stroke-dasharray="5,12" d="
			M683.5,431L683.5,431c6.4,3.2,14.2,0.5,17.4-5.9l5.5-11.2c3.2-6.4,0.5-14.2-5.9-17.4l0,0c-6.4-3.2-14.2-0.5-17.4,5.9l-5.5,11.2
			C674.4,420.1,677.1,427.9,683.5,431z"/>
		
			<path id="elephant" fill="#C2D44A" stroke="#005F27" stroke-linecap="round" stroke-linejoin="round" stroke-miterlimit="10" stroke-dasharray="5,12" d="
			M653.3,472H589c-8.4,0-15.3-6.8-15.3-15.3V382c0-8.4,6.8-15.3,15.3-15.3h64.3c8.4,0,15.3,6.8,15.3,15.3v74.7
			C668.5,465.2,661.7,472,653.3,472z"/>
		
			<path id="fish" fill="#80CCF3" stroke="#005F27" stroke-linecap="round" stroke-linejoin="round" stroke-miterlimit="10" stroke-dasharray="5,10" d="
			M220.7,494.7h-64.8c-8.8,0-16-7.2-16-16v-19.3c0-8.8,7.2-16,16-16h64.8c8.8,0,16,7.2,16,16v19.3
			C236.7,487.5,229.5,494.7,220.7,494.7z"/>
		
			<path id="llama" fill="#C2D44A" stroke="#005F27" stroke-linecap="round" stroke-linejoin="round" stroke-miterlimit="10" stroke-dasharray="5,12" d="
			M184.5,345.9c1.6,5.1,4.5,12,9.9,18.8c12,15.2,28.2,20,34.5,21.5c-11.4,12.6-22.8,25.1-34.2,37.7c-4,0.2-15.5,0.3-26.4-7.3
			c-16.3-11.3-17.8-30.3-18-32.9C161.7,371.1,173.1,358.5,184.5,345.9z"/>
		<g id="dolphin">
			<rect x="423.2" y="248.6" fill="#00CCF3" width="120.8" height="96.1"/>
			<g>
				<polyline fill="none" stroke="#005F27" stroke-linecap="round" stroke-linejoin="round" points="544,342.2 544,344.7 
					541.5,344.7 				"/>
				
					<line fill="none" stroke="#005F27" stroke-linecap="round" stroke-linejoin="round" stroke-dasharray="5.0339,10.0678" x1="531.4" y1="344.7" x2="430.7" y2="344.7"/>
				<polyline fill="none" stroke="#005F27" stroke-linecap="round" stroke-linejoin="round" points="425.7,344.7 423.2,344.7 
					423.2,342.2 				"/>
				
					<line fill="none" stroke="#005F27" stroke-linecap="round" stroke-linejoin="round" stroke-dasharray="5.3591,10.7181" x1="423.2" y1="331.5" x2="423.2" y2="256.4"/>
				<polyline fill="none" stroke="#005F27" stroke-linecap="round" stroke-linejoin="round" points="423.2,251.1 423.2,248.6 
					425.7,248.6 				"/>
				
					<line fill="none" stroke="#005F27" stroke-linecap="round" stroke-linejoin="round" stroke-dasharray="5.0339,10.0678" x1="435.8" y1="248.6" x2="536.5" y2="248.6"/>
				<polyline fill="none" stroke="#005F27" stroke-linecap="round" stroke-linejoin="round" points="541.5,248.6 544,248.6 
					544,251.1 				"/>
				
					<line fill="none" stroke="#005F27" stroke-linecap="round" stroke-linejoin="round" stroke-dasharray="5.3591,10.7181" x1="544" y1="261.8" x2="544" y2="336.8"/>
			</g>
		</g>
		
			<path id="greeen" fill="#91BF20" stroke="#005F27" stroke-linecap="round" stroke-linejoin="round" stroke-miterlimit="10" stroke-dasharray="5,12" d="
			M704.3,252.4l-13.2,3.1c-9.1,2.2-18.2-3.4-20.4-12.5l-8.6-35.9c-2.2-9.1,3.4-18.2,12.5-20.4l13.2-3.1c9.1-2.2,18.2,3.4,20.4,12.5
			l8.6,35.9C719,241.1,713.4,250.2,704.3,252.4z"/>
		
			<path id="toocan" fill="#91BF20" stroke="#005F27" stroke-linecap="round" stroke-linejoin="round" stroke-miterlimit="10" stroke-dasharray="5,12" d="
			M704.7,326.5h-25.3c-9.5,0-17.2-7.7-17.2-17.2V284c0-9.5,7.7-17.2,17.2-17.2h25.3c9.5,0,17.2,7.7,17.2,17.2v25.3
			C721.9,318.8,714.2,326.5,704.7,326.5z"/>
		
			<path id="koala" fill="#91BF20" stroke="#005F27" stroke-linecap="round" stroke-linejoin="round" stroke-miterlimit="10" stroke-dasharray="5,12" d="
			M545.8,443.4h-40.3c-6.8,0-12.3-5.5-12.3-12.3v-28.6c0-6.8,5.5-12.3,12.3-12.3h40.3c6.8,0,12.3,5.5,12.3,12.3v28.6
			C558.2,437.9,552.6,443.4,545.8,443.4z"/>
		
			<path id="ship" fill="#C2D44A" stroke="#005F27" stroke-linecap="round" stroke-linejoin="round" stroke-miterlimit="10" stroke-dasharray="5,12" d="
			M582.5,223.6h-14.1c-11,0-19.9-8.9-19.9-19.9v-14.1c0-11,8.9-19.9,19.9-19.9h14.1c11,0,19.9,8.9,19.9,19.9v14.1
			C602.4,214.7,593.5,223.6,582.5,223.6z"/>
		
			<rect id="hendeghog" x="469.8" y="150.2" transform="matrix(0.9598 -0.2806 0.2806 0.9598 -25.0408 150.1996)" fill="#C6D37B" stroke="#005F27" stroke-linecap="round" stroke-linejoin="round" stroke-miterlimit="10" stroke-dasharray="5,12" width="84.4" height="24.7"/>
		
			<path id="rabbit" fill="#C2D44A" stroke="#005F27" stroke-linecap="round" stroke-linejoin="round" stroke-miterlimit="10" stroke-dasharray="5,12" d="
			M646.7,176.9L646.7,176.9c-6.1,9.1-18.4,11.5-27.5,5.4l-9.7-6.5c-9.1-6.1-11.5-18.4-5.4-27.5l0,0c6.1-9.1,18.4-11.5,27.5-5.4
			l9.7,6.5C650.5,155.5,652.9,167.8,646.7,176.9z"/>
		
			<path id="racoon" fill="#C2D44A" stroke="#005F27" stroke-linecap="round" stroke-linejoin="round" stroke-miterlimit="10" stroke-dasharray="5,12" d="
			M322.3,256.6c-2.1,2.7-9.5,11.4-22.1,13.6c-13.4,2.4-27.5-3.5-36.5-15.1c0.9-7.9,1.8-15.9,2.8-23.8c0.9-15,13-26.8,27.3-27.3
			c13.2-0.5,25.3,8.7,28.6,22.1C322.3,236.2,322.3,246.4,322.3,256.6z"/>
		
			<path id="snake" fill="#C6D37B" stroke="#005F27" stroke-linecap="round" stroke-linejoin="round" stroke-miterlimit="10" stroke-dasharray="5,12" d="
			M384.2,245.3h-29c-7.7,0-13.9-6.2-13.9-13.9v-8.9c0-7.7,6.2-13.9,13.9-13.9h29c7.7,0,13.9,6.2,13.9,13.9v8.9
			C398.1,239.1,391.9,245.3,384.2,245.3z"/>
		
			<path id="penguin" fill="#80CCF3" stroke="#005F27" stroke-linecap="round" stroke-linejoin="round" stroke-miterlimit="10" stroke-dasharray="5,10" d="
			M405.1,266.1V333c0,6.5-5.2,11.7-11.7,11.7l0,0c-6.5,0-11.7-5.2-11.7-11.7v-66.9c0-6.5,5.2-11.7,11.7-11.7l0,0
			C399.8,254.4,405.1,259.7,405.1,266.1z"/>
		
			<path id="wul" fill="#80CCF3" stroke="#005F27" stroke-linecap="round" stroke-linejoin="round" stroke-miterlimit="10" stroke-dasharray="5,10" d="
			M510.2,238.7h-66.9c-6.5,0-11.7-5.2-11.7-11.7l0,0c0-6.5,5.2-11.7,11.7-11.7h66.9c6.5,0,11.7,5.2,11.7,11.7l0,0
			C521.9,233.5,516.7,238.7,510.2,238.7z"/>
		
			<path id="Duck" fill="#80CCF3" stroke="#005F27" stroke-linecap="round" stroke-linejoin="round" stroke-miterlimit="10" stroke-dasharray="5,10" d="
			M658.9,356.4H592c-6.5,0-11.7-5.2-11.7-11.7l0,0c0-6.5,5.2-11.7,11.7-11.7h66.9c6.5,0,11.7,5.2,11.7,11.7l0,0
			C670.6,351.2,665.4,356.4,658.9,356.4z"/>
		
			<path id="Baboon" fill="#C6D37B" stroke="#005F27" stroke-linecap="round" stroke-linejoin="round" stroke-miterlimit="10" stroke-dasharray="5,12" d="
			M342,368.6h-29c-7.7,0-13.9-6.2-13.9-13.9v-8.9c0-7.7,6.2-13.9,13.9-13.9h29c7.7,0,13.9,6.2,13.9,13.9v8.9
			C355.9,362.3,349.6,368.6,342,368.6z"/>
		
			<path id="ostrich" fill="#C2D44A" stroke="#005F27" stroke-linecap="round" stroke-linejoin="round" stroke-miterlimit="10" stroke-dasharray="5,12" d="
			M623.1,266.9h-29c-7.7,0-13.9-6.2-13.9-13.9v-8.9c0-7.7,6.2-13.9,13.9-13.9h29c7.7,0,13.9,6.2,13.9,13.9v8.9
			C637,260.7,630.8,266.9,623.1,266.9z"/>
		
			<path id="Camel" fill="#C2D44A" stroke="#005F27" stroke-linecap="round" stroke-linejoin="round" stroke-miterlimit="10" stroke-dasharray="5,12" d="
			M617.6,318.9h-29c-7.7,0-13.9-6.2-13.9-13.9v-8.9c0-7.7,6.2-13.9,13.9-13.9h29c7.7,0,13.9,6.2,13.9,13.9v8.9
			C631.5,312.7,625.3,318.9,617.6,318.9z"/>
		
			<rect id="turtle" x="284.2" y="384.9" fill="#80CCF3" stroke="#005F27" stroke-linecap="round" stroke-linejoin="round" stroke-miterlimit="10" stroke-dasharray="5,10" width="23.4" height="41.6"/>
		
			<rect id="Meerkat" x="325.2" y="384.9" fill="#C6D37B" stroke="#005F27" stroke-linecap="round" stroke-linejoin="round" stroke-miterlimit="10" stroke-dasharray="5,12" width="26.6" height="41.6"/>
		
			<path id="Zubr" fill="#91BF20" stroke="#005F27" stroke-linecap="round" stroke-linejoin="round" stroke-miterlimit="10" stroke-dasharray="5,12" d="
			M452,442.1h-29.9c-12,0-21.8-9.7-21.8-21.8v-7.1c0-12,9.7-21.8,21.8-21.8H452c12,0,21.8,9.7,21.8,21.8v7.1
			C473.8,432.4,464,442.1,452,442.1z"/>
	</g>
	
		<ellipse id="Monkey" transform="matrix(0.8272 -0.5619 0.5619 0.8272 -144.8773 189.7723)" fill="#C2D44A" stroke="#005F27" stroke-linecap="round" stroke-linejoin="round" stroke-miterlimit="10" stroke-dasharray="5,12" cx="236.1" cy="330.4" rx="41.2" ry="34.7"/>
</g>
<g id="_x5C_Animals">
	<g id="Слой_2_1_">
		<g>
			<path fill="#AEE295" d="M697.8,205.5c-7.3-2.5-12.7-0.2-12.7-0.2s0.8-5.8-1.4-7.3c-2.2-1.4-8,0.3-12.8,4.8s-7.2,11.3-4,12.4
				c1.2,0.4,2.2,0.2,3-0.2c0,0,3.2,2.8,7.3,1.8c0.8-0.2,1.5-0.4,2-0.7l0,0l-2.1,3.2c0,0-3.3,0.1-3.2,2.5h4.7c0.7,0,1.4-0.3,1.7-0.9
				l3.3-4.8h7.9l-2.1,3.2c0,0-3.3,0.1-3.2,2.5h4.7c0.7,0,1.4-0.3,1.7-0.9l3.3-4.8c0,0,3.4-1.8,5.5,0.9c2.2,2.6-0.6,6.7-4.8,7
				c-1.6,0.1-2.7,0-3.5-0.1c-0.7-0.1-1.5,0.2-1.7,0.8c-0.3,0.7,0.2,1.5,1,1.7c1.1,0.3,2.8,0.6,4.6,0.6c3.7,0,9.7-2.8,10.8-7.3
				C709.1,214.5,706.8,208.6,697.8,205.5z"/>
			<g>
				<path fill="#98DB7C" d="M693.5,216.7l-3.5,5.1h1.2c0.7,0,1.4-0.3,1.7-0.9l3.3-4.8c0,0,0.5-0.3,1.3-0.4c-1.1-0.3-2.1-0.1-2.8,0.1
					C694.1,216,693.7,216.3,693.5,216.7z"/>
				<path fill="#98DB7C" d="M681.4,198.1c1.3,0.8,1.5,3.2,1.5,5c0,1.1,1.1,1.8,2.2,1.6l0,0c0.1-1.6,0.3-5.5-1.4-6.6
					c-0.7-0.5-1.9-0.6-3.3-0.4C680.8,197.7,681.2,197.9,681.4,198.1z"/>
				<path fill="#98DB7C" d="M694.4,224.1c-0.4,0-0.8-0.1-1.1-0.2c-0.4-0.1-0.8,0-1.1,0.2C692.8,224.1,693.6,224.2,694.4,224.1z"/>
				<path fill="#98DB7C" d="M677.6,221.8h1.2c0.7,0,1.4-0.3,1.7-0.9l3.3-4.8c-1.5,0-2.8,0.7-3.6,1.8L677.6,221.8z"/>
				<path fill="#98DB7C" d="M697.8,205.5c-3.1-1.1-5.9-1.3-8-1.1c1.7,0.1,3.6,0.4,5.7,1.1c9,3,11.3,9,10.1,14.2
					c-1,4.2-6.1,6.9-9.8,7.3c0.4,0,0.9,0.1,1.3,0.1c3.7,0,9.7-2.8,10.8-7.3C709.1,214.5,706.8,208.6,697.8,205.5z"/>
			</g>
			<path fill="#E6E2E6" d="M679.4,207.3c0,2.1-1.9,3.8-4.2,3.8s-4.2-1.7-4.2-3.8s1.9-3.8,4.2-3.8
				C677.5,203.5,679.4,205.2,679.4,207.3z"/>
			<path fill="#D8D1D7" d="M675.2,203.5c-0.4,0-0.8,0.1-1.2,0.1c1.7,0.5,3,1.9,3,3.6c0,1.7-1.3,3.2-3,3.6c0.4,0.1,0.8,0.1,1.2,0.1
				c2.3,0,4.2-1.7,4.2-3.8C679.4,205.2,677.5,203.5,675.2,203.5z"/>
			<path fill="#433F43" d="M675.2,205.8c-0.7,0-1.3,0.6-1.3,1.5c0,0.8,0.6,1.5,1.3,1.5s1.3-0.6,1.3-1.5S675.9,205.8,675.2,205.8z"/>
			<path fill="#98DB7C" d="M682.8,213.2c-0.3-0.1-0.7,0-0.8,0.3c0,0.1-0.8,1.6-2.7,2.7l-1.2,1.8c3.7-1.2,5-3.9,5.1-4
				C683.3,213.7,683.1,213.4,682.8,213.2z"/>
			<path fill="#82D361" d="M680.5,211.1c-0.3-0.1-0.7,0-0.9,0.3c0,0.1-0.8,1.3-2.6,1.4c-1.1,0.1-1.6-0.1-2.1-0.3s-1-0.4-1.8-0.2
				c-0.5,0.1-1.1,0.4-2,0.9c-1.3,0.7-3,1.6-4.8,1.8c0.2,0.1,0.4,0.3,0.6,0.3c0.9,0.3,1.7,0.3,2.5,0c0.9-0.4,1.7-0.8,2.4-1.2
				c0.6-0.3,1.3-0.7,1.6-0.7c0.4-0.1,0.7,0,1.1,0.2c0.6,0.2,1.3,0.5,2.7,0.4c2.5-0.2,3.6-2,3.6-2.1
				C680.9,211.6,680.8,211.2,680.5,211.1z"/>
		</g>
		<g>
			<path fill="#914D24" d="M191.9,120.3c-0.5-0.1-0.9,0.2-1,0.7c0,0-0.2,1-0.8,1.9c-0.5,0.8-1.1,1.3-1.8,1.6
				c0.4-2.8,0.2-5.1,0.1-5.2c-0.1-0.5-0.5-0.8-1-0.7c-0.5,0-0.8,0.5-0.8,0.9c0,0.1,0.7,7-2.4,10.7c0,0.1-0.1,0.1-0.1,0.2
				c-0.1,0-0.1,0-0.2,0c-2.2-0.1-3.9-0.8-5-2.1c-0.5-0.6-0.9-1.3-1.2-2l0,0c-1.2-3-0.5-6.7-0.5-6.7c0.1-0.5-0.2-0.9-0.7-1
				s-0.9,0.2-1,0.7c0,0.2-0.5,3.1,0.2,6.1c-2-1.1-2.7-4.2-2.7-4.3c-0.1-0.5-0.6-0.8-1-0.7c-0.5,0.1-0.8,0.5-0.7,1
				c0,0.1,0.3,1.4,1.1,2.8c1,1.8,2.4,2.8,4,3.1c0.3,0.7,0.7,1.4,1.2,2c1.5,1.7,3.6,2.6,6.3,2.7l0,0c0.4,0,0.7-0.2,0.8-0.5
				c0.1,0,0.1,0,0.2,0c0.3,0,0.5-0.1,0.7-0.3c1.2-1.4,1.9-3.1,2.3-4.9c3.1-0.5,4.4-3.4,4.7-5C192.7,120.8,192.4,120.3,191.9,120.3z"
				/>
			<path fill="#DD8858" d="M229.6,149.3c1.1-2.9,0.4-5.1-0.7-6.5c-1.4-1.8-3.6-2.9-6-2.9h-22.6c-1.9,0-3.8-0.9-4.9-2.4
				c-1.9-2.6-3.2-6.1-3.2-6.1c2.9-1.7,2.3-4.3,1.6-5.8c-0.3-0.6-1.1-0.7-1.5-0.3l-3.3,3.4l-16,7.1c-0.8,0.3-1.2,1.2-0.9,1.9
				c2.2,6.9,13.3,5.2,13.3,5.2s2.2,7.7,8.5,12.2V171c0,1.3,1.1,2.4,2.5,2.4s2.5-1.1,2.5-2.4v-14.6c0,0,8,1.1,18.3,1
				c0,0,1.4,3.2,4.7,3.8v9.8c0,1.3,1.1,2.4,2.5,2.4s2.5-1.1,2.5-2.4v-10.7C226.9,160.4,230.7,154.4,229.6,149.3L229.6,149.3z"/>
			<g>
				<path fill="#D97F4A" d="M189.4,132.2c0.5,1.2,1.6,3.5,2.9,5.3c1.1,1.5,3,2.4,4.9,2.4h3.2c-1.9,0-3.8-0.9-4.9-2.4
					c-1.9-2.6-3.2-6.1-3.2-6.1c2.9-1.7,2.3-4.3,1.6-5.8c-0.3-0.6-1.1-0.7-1.5-0.3l-1.3,1.3c0.3,1.3,0.3,3-1.3,4.3
					C189.3,131.2,189.2,131.8,189.4,132.2z"/>
				<path fill="#D97F4A" d="M214.1,157.4L214.1,157.4c-0.1,0-0.3,0-0.4,0C213.8,157.4,213.9,157.4,214.1,157.4z"/>
				<path fill="#D97F4A" d="M198.9,156.8c-1.7-0.2-3.1,1.1-3.1,2.7v11.6c0,0.8-0.4,1.4-1,1.9c0.4,0.3,1,0.5,1.6,0.5
					c1.4,0,2.5-1.1,2.5-2.4V156.8C199,156.8,198.9,156.8,198.9,156.8z"/>
				<path fill="#D97F4A" d="M229.6,149.3c1.1-2.9,0.4-5.1-0.7-6.5c-1.4-1.8-3.6-2.9-6-2.9h-3.1c5.2,2.9,6.6,6.5,7,10.7
					c0.5,4.8-3.1,9.8-3.1,9.8v10.7c0,0.7-0.4,1.4-0.9,1.8c0.4,0.3,1,0.5,1.6,0.5c1.4,0,2.5-1.1,2.5-2.4v-10.7
					C226.9,160.4,230.7,154.4,229.6,149.3L229.6,149.3z"/>
			</g>
			<path fill="#CA6D36" d="M230.2,147c-0.8-1-1.7-2-2.8-2.8c-0.4-0.3-0.9-0.2-1.2,0.1c-0.3,0.4-0.2,0.9,0.1,1.2
				c1.5,1.1,2.6,2.5,3.4,3.9v-0.1l0,0C229.9,148.5,230.1,147.7,230.2,147z"/>
			<path fill="#433F43" d="M186,134.1c-1,0-1.8,0.9-1.8,2.1c0,1.2,0.8,2.1,1.8,2.1s1.8-0.9,1.8-2.1C187.8,135.1,187,134.1,186,134.1
				z"/>
			<path fill="#914D24" d="M172.1,137.8c0.1,0.4,0.2,0.7,0.4,1c1.1-0.3,1.9-1.4,1.9-2.5c0-0.3-0.1-0.6-0.2-0.9c0,0,0,0,0-0.1
				l-1.2,0.5C172.2,136.2,171.9,137,172.1,137.8z"/>
		</g>
		<g>
			<path fill="#AD5E2E" d="M517,121.9c-0.5,0-0.9-0.3-1-0.7c-0.5-2.4-2.3-4.1-5.3-4.9c-2.3-0.7-4.4-0.6-4.5-0.6c-0.5,0-1-0.3-1-0.8
				s0.4-0.9,0.9-0.9c0.1,0,2.5-0.1,5.2,0.6c3.6,1,5.9,3.2,6.6,6.2c0.1,0.5-0.2,0.9-0.8,1C517.2,121.9,517.1,121.9,517,121.9z"/>
			<path fill="#FFC265" d="M489.1,107.4v-6.8c4.5-0.8,7.2-3.1,7.3-7.7c0.1-4.8-5.1-9.6-5.1-9.6s4.8,1.8,8.4-1.6c0,0-2.1-4-9.1-2.3
				v-3.7c0-1-1-1.9-2.1-1.9c-1.2,0-2.1,0.8-2.1,1.9v3.7h-7v-3.7c0-1-1-1.9-2.1-1.9s-2.1,0.8-2.1,1.9v3.7c-7-1.6-9.1,2.3-9.1,2.3
				c3.6,3.4,8.4,1.6,8.4,1.6s-5.3,4.8-5.1,9.6c0.1,4.7,2.9,6.9,7.3,7.7v28.2c0,0.9,0.9,1.7,2,1.7h2.4c1.1,0,2-0.8,2-1.7v-3.6h6.9
				v3.6c0,0.9,0.9,1.7,2,1.7h2.4c1.1,0,2-0.8,2-1.7v-3.6h9.3v3.6c0,0.9,0.9,1.7,2,1.7h2.4c1.1,0,2-0.8,2-1.7v-5.3
				c0-5.9-5-11-11.7-11.8l-7.3-0.9C490.6,110.7,489.1,109.2,489.1,107.4z"/>
			<path fill="#FFB541" d="M480.9,127.5h-2.4c-1.1,0-2-0.8-2-1.7v3.1c0,0.9,0.9,1.7,2,1.7h2.4c1.1,0,2-0.8,2-1.7v-3.1
				C482.9,126.8,482,127.5,480.9,127.5z"/>
			<path fill="#FFB541" d="M509.7,127.5h-2.4c-1.1,0-2-0.8-2-1.7v3.1c0,0.9,0.9,1.7,2,1.7h2.4c1.1,0,2-0.8,2-1.7v-3.1
				C511.6,126.8,510.7,127.5,509.7,127.5z"/>
			<path fill="#FFB541" d="M494.1,127.5h-2.4c-1.1,0-2-0.8-2-1.7v3.1c0,0.9,0.9,1.7,2,1.7h2.4c1.1,0,2-0.8,2-1.7v-3.1
				C496.1,126.8,495.2,127.5,494.1,127.5z"/>
			<path fill="#433F43" d="M477.4,87c-1.1,0-2,0.9-2,2.2c0,1.2,0.9,2.2,2,2.2s2-0.9,2-2.2C479.3,88,478.5,87,477.4,87z"/>
			<path fill="#433F43" d="M488.5,87c-1.1,0-2,0.9-2,2.2c0,1.2,0.9,2.2,2,2.2s2-0.9,2-2.2C490.4,88,489.6,87,488.5,87z"/>
			<g>
				<path fill="#AD5E2E" d="M479.8,94.1c-0.5,0-1,0.4-1,0.9v0.8c0,0.5,0.4,0.9,1,0.9c0.5,0,1-0.4,1-0.9V95
					C480.8,94.5,480.4,94.1,479.8,94.1z"/>
				<path fill="#AD5E2E" d="M485.6,94.1c-0.5,0-1,0.4-1,0.9v0.8c0,0.5,0.4,0.9,1,0.9c0.5,0,1-0.4,1-0.9V95
					C486.5,94.5,486.1,94.1,485.6,94.1z"/>
				<path fill="#AD5E2E" d="M489.1,100.7c0,0-5.1,1-4.4,5.2c0.4,2.5,2.6,3.3,4.9,3.2c-0.3-0.5-0.5-1.1-0.5-1.7V100.7z"/>
				<path fill="#AD5E2E" d="M482.6,111.5c-1.3-1.8-3.9-2.1-6-1.9v10.5C483.3,119.8,484.7,114.4,482.6,111.5z"/>
				<path fill="#AD5E2E" d="M495.5,117.9c0-1.7-3.3-3.1-5.3-3.1s-2.8,0.9-2.8,2.6s1.7,3.8,3.7,3.8S495.5,119.6,495.5,117.9z"/>
				<path fill="#AD5E2E" d="M502.4,121.6c0.5,1.1,3,1.3,4.2,0.8c1.2-0.4,1.5-1.2,1-2.3c-0.5-1.1-2.1-2-3.4-1.6
					C503,119,501.9,120.5,502.4,121.6z"/>
				<path fill="#AD5E2E" d="M499.9,111.8l-4-0.5c0.2,2.4,1.4,4.9,4.8,5.3c2.6,0.3,4.2-1,5.2-2.7
					C504.2,112.8,502.2,112.1,499.9,111.8z"/>
			</g>
		</g>
		<g>
			<path fill="#FFBA7E" d="M125.1,407.9c-0.1,0-0.2,0-0.3-0.1c-0.5-0.2-0.7-0.7-0.5-1.2c1.4-4,1.2-7.3-0.7-9.8
				c-1.4-1.9-3.1-2.6-3.1-2.6c-0.5-0.2-0.7-0.7-0.5-1.2s0.7-0.7,1.2-0.5c0.1,0,2.3,0.9,3.9,3.2c2.8,3.8,2,8.3,0.9,11.5
				C125.8,407.6,125.4,407.9,125.1,407.9z"/>
			<path fill="#FFCB9D" d="M75.2,380l-7.5,5.5c-1.1,0.8-1.5,2.3-0.9,3.5c1,2.3,3.3,5.5,7.5,5.2c2.6-0.2,5.3-1.1,7.6-2.1
				c3.4-1.4,5-5.3,3.7-8.9C84,379,78.9,377.4,75.2,380z"/>
			<path fill="#FFBA7E" d="M85.6,383.3c-0.2-0.5-0.4-0.9-0.6-1.3c0.3,3-1.3,5.9-4.1,7.1c-2.3,1-5,1.9-7.6,2.1
				c-3.4,0.2-5.4-1.7-6.7-3.7c-0.1,0.5,0,1.1,0.2,1.6c1,2.3,3.3,5.5,7.5,5.2c2.6-0.2,5.3-1.1,7.6-2.1
				C85.2,390.7,86.8,386.8,85.6,383.3z"/>
			<path fill="#FFCB9D" d="M120.3,391.8c-1.9-1.7-4.4-2.6-6.9-2.6h-12.9c-7.8,3.5-2,14.5-13.6,15.4c-0.5,0-1,0-1.5,0
				c1.4,3,2.1,6.2,2.1,9.5v5.6c0,1.6,1.2,2.8,2.8,2.8s2.8-1.3,2.8-2.8v-11.6h16.1c1.5,4.1,6.1,5.1,6.1,5.1v6.8
				c0,1.4,1.1,2.6,2.5,2.6c1.2,0,2.2-0.9,2.5-2.1c0.5-2.6,1.4-8.9,3.1-16.9C124.7,397.4,122.6,393.9,120.3,391.8z"/>
			<path fill="#FFBA7E" d="M120.3,391.8c-1.9-1.7-4.4-2.6-6.9-2.6h-3.3c2.5,0,5,0.9,6.9,2.6c2.3,2.1,4.3,5.6,3.1,11.8
				c-1.6,8-2.6,14.3-3.1,16.9c-0.1,0.6-0.4,1.1-0.8,1.5c0.4,0.4,1,0.6,1.6,0.6c1.2,0,2.2-0.9,2.5-2.1c0.5-2.6,1.4-8.9,3.1-16.9
				C124.7,397.4,122.6,393.9,120.3,391.8z"/>
			<path fill="#FFBA7E" d="M89.8,419.8c0,0.9-0.5,1.8-1.1,2.3c0.5,0.3,1,0.5,1.6,0.5c1.5,0,2.8-1.3,2.8-2.9v-11.6
				c-1.8,0-3.3,1.5-3.3,3.3V419.8z"/>
			<path fill="#AD5E2E" d="M84.1,368.7c-8.7,0-10.9,7.3-11.4,13.1l2.4-1.8c3.7-2.7,8.8-1.1,10.4,3.3c1.2,3.5-0.4,7.4-3.7,8.9
				c-2.3,1-4.9,1.9-7.6,2.1c1.6,4.8,5.1,10.9,12.7,10.3c11.6-0.9,5.8-11.8,13.6-15.4C100.5,389.2,97.9,368.7,84.1,368.7z"/>
			<path fill="#A05528" d="M87.1,369.1c2.9,1.4,5.3,3.7,6.8,6.2c3,5,3.2,11.3,0.6,16.6c-2.2,4.6-2.2,10.9-10.9,11.6
				c-1,0.1-1.9,0-2.8-0.1c1.7,0.9,3.7,1.4,6.1,1.2c11.6-0.9,5.8-11.8,13.6-15.4C100.5,389.2,98.3,371.8,87.1,369.1z"/>
			<path fill="#FFCB9D" d="M83.3,377c0,0,0.5-2.7,2.7-2.2s2.6,3.3,1,4.5L83.3,377z"/>
			<path fill="#433F43" d="M78.5,382.9c-1,0-1.8,1-1.8,2.3s0.8,2.3,1.8,2.3s1.8-1,1.8-2.3S79.5,382.9,78.5,382.9z"/>
			<path fill="#AD5E2E" d="M66.8,389.1c0,0.1,0.1,0.2,0.1,0.3c1.7-0.2,2.9-1.6,2.9-3.4c0-0.5-0.1-1.1-0.4-1.6c0,0,0-0.1-0.1-0.1
				l-1.7,1.3C66.6,386.4,66.2,387.9,66.8,389.1z"/>
		</g>
		<g>
			<path fill="#DD8858" d="M354.5,426.6c-0.6-0.7-1.8-1.5-3.7-1.5c-3.5-0.1-10-0.2-10-0.2s2-5,0-12.5c-2-7.4-0.2-11.2-0.4-14.6
				c-0.2-3.5-1.1-6.3-5.2-6.4c-4.2-0.1-5,2.8-7.3,3.2c-2.4,0.4-3.9,0.4-3.9,1.5s0.3,4.9,4.6,4.9s2.3,5,1.7,7.4
				c-1.4,5.7,1.1,11,1.1,11c-0.3,0.3-0.5,0.5-0.7,0.8c-1.5,2-1.2,4.6-1.2,4.6s-3.2-0.5-4.8,0.6l-0.1,0.1c-1,0.7-0.4,2.2,0.8,2.2
				h28.7C354.6,427.6,354.9,427,354.5,426.6z"/>
			<g>
				<path fill="#D97F4A" d="M338.4,397.7c0.2,3.5-1.7,7.2,0.4,14.6c1.3,4.8,1,8.6,0.5,10.7c-0.2,0.9,0.5,1.7,1.5,1.7l0,0
					c0.1-0.1,2-5.1,0-12.5s-0.2-11.2-0.4-14.6c-0.2-3.5-1.1-6.3-5.2-6.4c-0.5,0-0.9,0-1.3,0.1C337.4,391.8,338.2,394.5,338.4,397.7z
					"/>
				<path fill="#D97F4A" d="M354.5,426.6c-0.6-0.7-1.8-1.5-3.7-1.5c-0.7,0-1.6,0-2.5-0.1c1.4,0.3,2.2,1,2.8,1.6
					c0.4,0.4,0.1,1.1-0.5,1.1h3.5C354.6,427.6,354.9,427,354.5,426.6z"/>
				<path fill="#D97F4A" d="M331.4,419.3C331.4,419.4,331.4,419.4,331.4,419.3c1.1-0.6,2.7-1,4.6-1.1c0.3,0,0.6-0.3,0.6-0.6
					c0-0.3-0.3-0.5-0.6-0.5c-1.9,0.1-3.7,0.5-4.9,1.2C331.2,419,331.4,419.3,331.4,419.3z"/>
			</g>
			<path fill="#433F43" d="M331.8,395c-0.7,0-1.2,0.6-1.2,1.4s0.5,1.4,1.2,1.4s1.2-0.6,1.2-1.4S332.5,395,331.8,395z"/>
			<path fill="#DD8858" d="M333.3,405.4c0,0,0.2,3.1-2.1,3.8c-2.3,0.6-5,0.6-5.3,3.1s0.4,3.8,1.4,3.5s0.5-2.6,1.9-3.1
				s4.5-0.4,5.7-1.4c1.2-1.1,1.9-3.4,1.9-3.4"/>
			<path fill="#D97F4A" d="M336.9,407.9c-0.7-0.5-1.6-0.3-2,0.5c-0.3,0.5-0.7,1.1-1.1,1.5c-1.2,1.1-4.3,0.9-5.7,1.4
				c-1.4,0.5-0.9,2.8-1.9,3.1c-0.1,0-0.1,0-0.1,0c0.2,1.1,0.7,1.5,1.4,1.4c1-0.3,0.5-2.6,1.9-3.1s4.5-0.4,5.7-1.4
				C336.2,410.2,336.9,407.9,336.9,407.9L336.9,407.9z"/>
			<path fill="#AD5E2E" d="M336.1,399.6c-0.3,0-0.5,0-0.8-0.1s-0.5-0.4-0.4-0.7c0.1-0.3,0.4-0.5,0.7-0.4c1.1,0.2,1.6-0.2,1.8-0.6
				c0.3-0.6,0.2-1.3-0.1-1.6c-0.8-0.6-1.7,0-1.7,0c-0.3,0.2-0.6,0.1-0.8-0.1c-0.2-0.2-0.1-0.6,0.1-0.8c0.6-0.4,2-0.9,3.1,0
				c0.8,0.6,1,1.9,0.4,2.9C337.9,399.2,337.1,399.6,336.1,399.6z"/>
			<path fill="#AD5E2E" d="M326.4,395.4c0-0.2,0-0.5-0.1-0.7c-1.4,0.2-2.3,0.4-2.3,1.2c0,0.3,0,0.8,0.1,1.4c0.1,0,0.2,0,0.3,0
				C325.5,397.3,326.4,396.5,326.4,395.4z"/>
		</g>
		<g>
			<path fill="#FFAE8B" d="M220.4,318.6c0-0.1,0.1-0.2,0.1-0.3c-0.3-0.1-0.6-0.1-0.9-0.1c-2.3,0-4.1,1.7-4.1,3.8
				c0,2.1,1.8,3.8,4.1,3.8c0.5,0,1-0.1,1.4-0.2C220,323.7,219.7,321.4,220.4,318.6z"/>
			<path fill="#FF9568" d="M219.6,323.2c-1.8,0-3.3-1-3.8-2.5c-0.2,0.4-0.3,0.8-0.3,1.3c0,2.1,1.8,3.8,4.1,3.8c0.5,0,1-0.1,1.4-0.2
				c-0.4-0.7-0.7-1.5-0.9-2.4C220,323.2,219.8,323.2,219.6,323.2z"/>
			<path fill="#FFAE8B" d="M252.6,318.6c0-0.1-0.1-0.2-0.1-0.3c0.3-0.1,0.6-0.1,0.9-0.1c2.3,0,4.1,1.7,4.1,3.8
				c0,2.1-1.8,3.8-4.1,3.8c-0.5,0-1-0.1-1.4-0.2C253,323.7,253.3,321.4,252.6,318.6z"/>
			<path fill="#FF9568" d="M253.4,323.2c1.8,0,3.3-1,3.9-2.5c0.2,0.4,0.3,0.8,0.3,1.3c0,2.1-1.8,3.8-4.1,3.8c-0.5,0-1-0.1-1.4-0.2
				c0.4-0.7,0.7-1.5,0.9-2.4C253,323.2,253.2,323.2,253.4,323.2z"/>
			<path fill="#FF7D43" d="M220.5,321.1c-0.3-0.3-0.8-0.2-1.1,0.1c-0.3,0.3-1.1,0.3-1.3,0.2c-0.4-0.1-0.8,0.2-0.9,0.5
				c-0.1,0.4,0.2,0.8,0.6,0.9c0,0,0.4,0.1,0.8,0.1c0.1,0,0.1,0,0.2,0c0.8,0,1.4-0.3,1.8-0.8C220.9,321.8,220.8,321.4,220.5,321.1z"
				/>
			<path fill="#FF7D43" d="M255.8,322c-0.1-0.4-0.5-0.6-0.9-0.6c-0.2,0-1,0.1-1.3-0.2c-0.3-0.3-0.8-0.3-1.1-0.1
				c-0.3,0.3-0.4,0.7-0.1,1c0.4,0.5,1.1,0.7,1.8,0.8c0.1,0,0.1,0,0.2,0c0.4,0,0.7-0.1,0.8-0.1C255.7,322.7,255.9,322.3,255.8,322z"
				/>
			<path fill="#AD5E2E" d="M260.3,344.7c-1.2-0.2-2.5,0.4-2.9,1.4c-0.5,1.2-1.6,2.6-3.5,2.6c-2.1,0-5.2-1.6-7.5-3.2
				c-0.1,1.2-0.3,2.5-0.7,3.8c1.7,1.8,4.5,3.4,8.6,3.3c4.7-0.1,6.9-2.6,7.9-4.7C262.7,346.6,261.9,345,260.3,344.7z"/>
			<path fill="#A05528" d="M254.1,350.6c-3.8,0-6.4-1.3-8.1-2.9c-0.1,0.5-0.2,1.1-0.4,1.6c1.7,1.8,4.5,3.4,8.6,3.3
				c4.7-0.1,6.9-2.6,7.9-4.7c0.3-0.7,0.3-1.4,0-2C261,348,258.8,350.5,254.1,350.6z"/>
			<path fill="#DD8858" d="M251.1,337.8c-0.6-3.3-2.5-6.3-4.1-8.2c-2.9,1.3-6.6,1.8-10.5,1.8c-4.1,0-8-0.7-11-2.1
				c-1.6,1.9-3.8,5.1-4.4,8.5c-1.1,6.4,4.8,7.2,4.8,7.2l0,0c0.1,1.9,0.4,4,1.3,5.9c0.5,1.1,1.6,1.7,2.8,1.7c1.5,0,2.8-1,3-2.3l0.6-3
				h4.8l0.6,3c0.3,1.4,1.5,2.3,3,2.3c1.2,0,2.4-0.7,2.8-1.7c0.9-1.9,1.3-4,1.3-5.9l0,0C246.3,345,252.2,344.1,251.1,337.8z"/>
			<g>
				<path fill="#D97F4A" d="M226.3,340.3c-2.5,0.1-4.1-1-5.2-2.5c-1.1,6.4,4.8,7.2,4.8,7.2C225.9,343.3,226,341.6,226.3,340.3z"/>
				<path fill="#D97F4A" d="M245.9,340.3c2.5,0.1,4.1-1,5.2-2.5c1.1,6.4-4.8,7.2-4.8,7.2C246.3,343.3,246.2,341.6,245.9,340.3z"/>
				<path fill="#D97F4A" d="M230.2,349.3c-1.7-0.2-3-1-4-1.8c0.2,1.1,0.5,2.3,1.1,3.4c0.5,1.1,1.6,1.7,2.8,1.7c1.5,0,2.8-1,3-2.3
					l0.2-1.1C232.6,349.3,231.5,349.4,230.2,349.3z"/>
				<path fill="#D97F4A" d="M242,349.3c1.7-0.2,3-1,4-1.8c-0.2,1.1-0.5,2.3-1.1,3.4c-0.5,1.1-1.6,1.7-2.8,1.7c-1.5,0-2.8-1-3-2.3
					l-0.3-1.2C239.6,349.3,240.7,349.4,242,349.3z"/>
			</g>
			<path fill="#FFCB9D" d="M252.6,318.6c-0.9-3.3-2.8-5.8-5-7.5c-1.7-1.3-3.5-2.3-5.5-2.9l0,0c-3-1.4-8.4-2.2-10.1-2.3
				c-1.3-0.1-2-0.5-2.5-1c-0.4-0.4-1.1-0.3-1.4,0.2c-1,1.7-0.8,3.6-0.5,4.6c-0.7,0.4-1.4,0.9-2.1,1.4c-2.2,1.7-4.1,4.2-5,7.5
				c-2.5,9.1,6.4,12.7,16.1,12.7S255.1,327.7,252.6,318.6z"/>
			<path fill="#FFBA7E" d="M236.5,328.8c-8,0-15.5-2.5-16.4-8.5c-1.1,7.9,7.3,11.1,16.4,11.1s17.5-3.2,16.4-11.1
				C252,326.3,244.5,328.8,236.5,328.8z"/>
			<path fill="#DD8858" d="M252.6,318.6c-0.9-3.3-2.8-5.8-5-7.5c-1.7-1.3-3.5-2.3-5.5-2.9l0,0c-3-1.4-8.4-2.2-10.1-2.3
				c-1.3-0.1-2-0.5-2.5-1c-0.4-0.4-1.1-0.3-1.4,0.2c-1,1.7-0.8,3.6-0.5,4.6c-0.7,0.4-1.4,0.9-2.1,1.4c-2.2,1.7-4.1,4.2-5,7.5
				c-0.3,1.1-0.4,2.1-0.4,3c1-0.3,2.2-0.9,3.5-2.3c2.5-2.8,2.4-5.8,5.9-5.9c2.6-0.1,3.3,2.1,7.1,2.1s4.5-2.2,7.1-2.1
				c3.5,0.1,3.4,3.1,5.9,5.9c1.2,1.4,2.5,2,3.5,2.3C253,320.7,252.9,319.7,252.6,318.6z"/>
			<path fill="#433F43" d="M228.9,317.9c-0.9,0-1.6,0.8-1.6,1.8s0.7,1.8,1.6,1.8s1.6-0.8,1.6-1.8S229.8,317.9,228.9,317.9z"/>
			<path fill="#433F43" d="M243.8,317.9c-0.9,0-1.6,0.8-1.6,1.8s0.7,1.8,1.6,1.8s1.6-0.8,1.6-1.8S244.7,317.9,243.8,317.9z"/>
			<path fill="#CA6D36" d="M227.7,335.4c-0.4-0.2-0.9,0-1,0.4c0,0.1-1.1,2.3-1.8,5.4c-0.3,1.2-0.4,2.3-0.5,3.3
				c0.8,0.4,1.5,0.5,1.5,0.5c0.3-4.6,2.2-8.5,2.2-8.6C228.3,336,228.1,335.6,227.7,335.4z"/>
			<path fill="#CA6D36" d="M247.3,341.2c-0.7-3.1-1.8-5.3-1.8-5.4c-0.2-0.4-0.6-0.5-1-0.4c-0.4,0.2-0.6,0.6-0.4,1
				c0,0.1,1.9,4,2.2,8.6c0.1,0,0.7-0.1,1.5-0.5C247.8,343.5,247.6,342.4,247.3,341.2z"/>
			<path fill="#AD5E2E" d="M238.8,321.7c0-0.3-0.1-0.9-1.1-1.1c-0.3-0.1-0.7-0.1-1.3-0.1s-1,0-1.3,0.1c-1,0.2-1.1,0.8-1.1,1.1
				c0,0.7,0.7,1.3,1.6,1.6v1.6c0,0.4,0.4,0.7,0.8,0.7c0.4,0,0.8-0.3,0.8-0.7v-1.6C238.1,323,238.8,322.4,238.8,321.7z"/>
		</g>
		<g>
			<path fill="#8C808A" d="M313.1,133.7c-1.1-2-2.4-3.6-3.6-4.9c-0.1-0.1-0.2-0.2-0.3-0.3c0.4-0.7,0.9-1.3,1.5-1.7
				c1.8-1.3,4.3-0.9,5.7,0.8c1.3,1.7,1,4.1-0.8,5.3C314.8,133.3,314,133.6,313.1,133.7z"/>
			<path fill="#7B7179" d="M313.1,133.7c-0.4-0.7-0.8-1.3-1.1-1.9c0.8-0.1,1.5-0.4,2.1-0.8c1.4-1,2-2.8,1.4-4.3
				c0.3,0.2,0.6,0.5,0.9,0.8c1.3,1.7,1,4.1-0.8,5.3C314.8,133.3,314,133.6,313.1,133.7z"/>
			<path fill="#E6E2E6" d="M311.8,147.7L311.8,147.7c-2.7,1.5-6.8,2.2-12.1,2.2c-5.3,0-9.4-0.7-12.1-2.2l0,0c0,0-3.9,6.8-3.9,13
				c0,6.4,16,6.4,16,6.4s16,0,16-6.4C315.6,154.6,311.8,147.7,311.8,147.7z"/>
			<path fill="#D8D1D7" d="M299.7,164.8c0,0-14.7,0-15.9-5.7c-0.1,0.5-0.1,1-0.1,1.6c0,6.4,16,6.4,16,6.4s16,0,16-6.4
				c0-0.5,0-1-0.1-1.6C314.4,164.8,299.7,164.8,299.7,164.8z"/>
			<path fill="#8C808A" d="M299.7,149.9c-5.3,0-9.4-0.7-12.1-2.2c-0.1,5.5,0.2,19.4,4.1,19.4c4.9,0,4.8-13.2,4.8-13.2h6.4
				c0,0-0.1,13.2,4.8,13.2c3.9,0,4.2-13.9,4.1-19.4C309.1,149.2,305,149.9,299.7,149.9z"/>
			<path fill="#7B7179" d="M299.7,149.9c-5.3,0-9.4-0.7-12.1-2.2c0,0.7,0,1.5,0,2.3c2.7,1.5,6.8,2.2,12.1,2.2
				c5.3,0,9.4-0.7,12.1-2.2c0-0.9,0-1.7,0-2.3C309.1,149.2,305,149.9,299.7,149.9z"/>
			<path fill="#8C808A" d="M286.2,133.7c1.1-2,2.4-3.6,3.6-4.9c0.1-0.1,0.2-0.2,0.3-0.3c-0.4-0.7-0.9-1.3-1.5-1.7
				c-1.8-1.3-4.3-0.9-5.7,0.8c-1.3,1.7-1,4.1,0.8,5.3C284.5,133.3,285.3,133.6,286.2,133.7z"/>
			<path fill="#7B7179" d="M286.2,133.7c0.4-0.7,0.8-1.3,1.1-1.9c-0.8-0.1-1.5-0.4-2.1-0.8c-1.4-1-2-2.8-1.4-4.3
				c-0.3,0.2-0.6,0.5-0.9,0.8c-1.3,1.7-1,4.1,0.8,5.3C284.5,133.3,285.3,133.6,286.2,133.7z"/>
			<path fill="#E6E2E6" d="M299.7,149.9c13.8,0,19.3-4.7,13.9-15.3c-1.2-2.4-2.6-4.3-4.1-5.8c-5.3-5.4-14.4-5.4-19.7,0
				c-1.4,1.5-2.8,3.4-4.1,5.8C280.4,145.2,285.8,149.9,299.7,149.9z"/>
			<path fill="#D8D1D7" d="M299.7,147.6c-9.6,0-15.2-2.3-15.9-7.2c-0.8,6.6,4.9,9.5,15.9,9.5s16.7-3,15.9-9.5
				C314.8,145.3,309.3,147.6,299.7,147.6z"/>
			<path fill="#8C808A" d="M294.7,136.7c0-2-1.6-3.2-3.7-2.7c-2,0.5-4.2,3.1-4.2,5.1s2.4,2.9,4.2,2.2
				C293,140.6,294.7,138.7,294.7,136.7z"/>
			<path fill="#8C808A" d="M304.6,136.7c0-2,1.6-3.2,3.7-2.7c2,0.5,4.2,3.1,4.2,5.1s-2.4,2.9-4.2,2.2
				C306.3,140.6,304.6,138.7,304.6,136.7z"/>
			<g>
				<path fill="#433F43" d="M291,136.1c-0.8,0-1.4,0.7-1.4,1.6c0,0.9,0.6,1.6,1.4,1.6s1.4-0.7,1.4-1.6S291.8,136.1,291,136.1z"/>
				<path fill="#433F43" d="M308.3,136.1c-0.8,0-1.4,0.7-1.4,1.6c0,0.9,0.6,1.6,1.4,1.6s1.4-0.7,1.4-1.6S309.1,136.1,308.3,136.1z"
					/>
				<path fill="#433F43" d="M303.4,141.5c-0.3-0.3-0.7-0.3-1,0s-0.6,0.4-0.9,0.4c-0.4-0.1-0.7-0.6-1-1.1c0.7-0.2,1.3-0.8,1.3-1.4
					c0-0.2-0.1-0.8-1-1c-0.3-0.1-0.6-0.1-1.2-0.1s-0.9,0-1.2,0.1c-0.9,0.2-1,0.7-1,1c0,0.6,0.5,1.1,1.3,1.4c-0.2,0.5-0.6,1-1,1.1
					c-0.2,0.1-0.5-0.1-0.9-0.4c-0.3-0.2-0.7-0.2-1,0c-0.3,0.3-0.2,0.7,0,0.9c0.9,0.8,1.7,0.8,2.2,0.7c0.7-0.2,1.2-0.7,1.5-1.2
					c0.3,0.5,0.8,1,1.5,1.2c0.1,0,0.3,0.1,0.5,0.1c0.5,0,1.1-0.2,1.7-0.7C303.6,142.2,303.6,141.8,303.4,141.5z"/>
			</g>
		</g>
		<g>
			<path fill="#FFA812" d="M699.5,311.3c-0.2-0.3-0.6-0.3-0.9-0.1c0,0-0.3,0.2-0.7,0.6c0-0.1,0-0.3-0.1-0.4
				c-0.2-0.3-0.6-0.3-0.9-0.1c0,0-0.2,0.2-0.5,0.5c0-0.1,0-0.2,0-0.3c-0.1-0.3-0.5-0.5-0.8-0.3c-0.1,0-2.9,1.3-2.9,4.1
				c0,0.3,0.3,0.6,0.6,0.6s0.6-0.3,0.6-0.6c0-1.8,1.7-2.7,2.1-2.9c-0.6,0.7-1.1,1.8-1.1,3.1c0,0.3,0.3,0.6,0.6,0.6
				c0.4,0,0.6-0.3,0.6-0.6c0-1.5,1.1-2.6,1.5-3c-0.4,0.7-0.8,1.8-0.4,3.1c0.1,0.3,0.3,0.5,0.6,0.5c0.1,0,0.1,0,0.2,0
				c0.3-0.1,0.6-0.4,0.5-0.8c-0.5-1.9,1-3,1-3C699.7,312,699.7,311.6,699.5,311.3z"/>
			<path fill="#FFA812" d="M692.6,310.4c-0.2-0.3-0.5-0.4-0.9-0.3c0,0-0.1,0.1-0.3,0.1c0-0.1,0-0.3,0-0.4c-0.1-0.3-0.5-0.4-0.9-0.3
				l0,0c0-0.3-0.3-0.6-0.6-0.6c-0.1,0-3.3-0.1-4.7,3c-0.1,0.3,0,0.7,0.3,0.8c0.1,0,0.2,0.1,0.3,0.1c0.2,0,0.5-0.1,0.6-0.4
				c0.7-1.6,2.1-2.1,2.9-2.2c-0.9,0.6-2.1,1.6-2.5,3c-0.1,0.3,0.1,0.7,0.4,0.8c0.1,0,0.1,0,0.2,0c0.3,0,0.5-0.2,0.6-0.4
				c0.4-1.2,1.6-2.1,2.3-2.6c-0.7,0.6-1.3,1.6-1.4,3c0,0.3,0.3,0.6,0.6,0.6l0,0c0.3,0,0.6-0.3,0.6-0.6c0.1-2,1.9-2.8,2-2.9
				C692.7,311,692.8,310.7,692.6,310.4z"/>
			<path fill="#8C808A" d="M705.5,306.7c-0.6-6.3-5.3-7.3-7-9.1c-1.7-1.9,1.5-3.1,3.9-7.6c2.4-4.4,1.9-12.8-6.9-13.7
				c-7.9-0.8-10.4,5.5-10.4,5.5c1.7,0,3.1,1.1,3.5,2.7c0.8,3.2-0.4,6.2-0.4,6.2s-1,2.6-2.6,2.6c-0.6,0-1.3,0-2,0.1
				c-0.1,5.9,1,12.5,5.6,15.7c7.7,5.4,13.9,1.4,13.9,1.4c1.1,3.9,3.6,6.7,3.6,6.7c4-0.5,5.3-3.3,5.3-3.3
				C710.4,309.7,705.5,306.7,705.5,306.7z"/>
			<path fill="#E6E2E6" d="M688.6,284.5c0.8,3.2-0.4,6.2-0.4,6.2s-1,2.6-2.6,2.6c-0.6,0-1.3,0-2,0.1c0,3,0.2,6.3,1.1,9.1
				c5.4,3,7.2-1.4,7.4-3.7c0.3-2.7,0.4-4.8,3.1-7.4c2.6-2.6,2.7-7.8-1-10.3s-9.2,0.8-9.2,0.8C686.7,281.8,688.2,282.9,688.6,284.5z"
				/>
			<path fill="#FF9A00" d="M675.7,291.1c-0.7,0.3-1.2,0.7-1.6,1.2c2.9,1.2,7.6,1,11.5,0.9c1.6-0.1,2.6-2.6,2.6-2.6
				S679.1,289.8,675.7,291.1z"/>
			<path fill="#FFC265" d="M688.6,284.5c-0.4-1.6-1.8-2.7-3.5-2.7c-3.8,0-11,0.5-13.9,4.7c-3.2,4.8-0.6,9.9,1.1,10
				c1.7,0,0.2-3.9,3.5-5.2c3.3-1.4,12.4-0.5,12.4-0.5S689.4,287.7,688.6,284.5z"/>
			<path fill="#FFB541" d="M674.3,289.1c-3.5,1.4-2.5,5.2-3.6,6.1c0.5,0.7,1.1,1.2,1.5,1.2c1.7,0,0.2-3.9,3.5-5.2
				c3.3-1.4,12.4-0.5,12.4-0.5s0.4-0.8,0.6-2.1C686.7,288.3,677.8,287.7,674.3,289.1z"/>
			<path fill="#7B7179" d="M700,307.2c-0.7,0-1.4-0.2-2.1-0.5c-2.3-1.1-3.1-3.6-3.1-3.7c-0.1-0.3,0.1-0.7,0.4-0.8
				c0.3-0.1,0.7,0.1,0.8,0.4c0,0,0.7,2.2,2.5,3c0.9,0.4,2,0.4,3.1,0c0.3-0.1,0.7,0,0.8,0.4c0.1,0.3,0,0.7-0.4,0.8
				C701.3,307.1,700.6,307.2,700,307.2z"/>
			<path fill="#433F43" d="M692.6,284.1c-0.7,0-1.3,0.7-1.3,1.6s0.6,1.6,1.3,1.6s1.3-0.7,1.3-1.6S693.3,284.1,692.6,284.1z"/>
			<path fill="#7B7179" d="M703,308.4c-2.2,0.9-7.8,2.6-13.8-1.6c-1.4-1-2.5-2.3-3.3-3.8c-0.4-0.1-0.8-0.3-1.2-0.6
				c0.9,2.7,2.3,5,4.5,6.6c7.7,5.4,13.9,1.4,13.9,1.4c1.1,3.9,3.6,6.7,3.6,6.7c1-0.1,1.8-0.4,2.5-0.7c-1-1.2-3.3-4.6-4.8-7.5
				C704.2,308.4,703.6,308.2,703,308.4z"/>
		</g>
		<g>
			<path fill="#DD8858" d="M430.3,168.4c-1.3-0.9-3.3-2.9-4.5-6.5c-1.9-5.5,0.3-9.6-4.2-14c-6.9-6.7-17.3-6.9-19.6-8.2
				c-2.3-1.3-4.9-5.6-5.4-11.2c-0.5-5.6-5.8-5.8-5.8-5.8v4.9c0,0-7.2,1.9-9.7,4.1c-1.3,1.1-1.7,2.9-1.8,4.4
				c-0.1,1.3,1.2,2.4,2.7,2.2l8.7-0.9c0,0,1.1,3.6,3.4,7.8l0,0c0,0,1.3,2.3-1.1,5.5c-1.6,2.1-3.1,5.2-0.5,7.1
				c0.8,0.6,2.1,0.2,2.2-0.7c0.2-1.3,0.8-3.1,2.3-4.3c0.5-0.4,0.9-0.8,1.3-1.1c0.7,0.8,1.4,1.6,2.2,2.3l0,0c0,0.1,0,0.2,0,0.2
				c-1.1,5.9,6,7.7,6,7.7v4.6h-6.4c-2.1,0-3.5,0.8-4.2,1.6c-0.5,0.5-0.1,1.3,0.7,1.3h13.1c1.5,0,2.6-1,2.6-2.3v-4.4
				c7.2-0.8,8-7.3,8-7.3s0.5,8.9,3.2,11.4c1.8,1.7,4.8,2.2,6.5,2.4C430.3,169,430.6,168.6,430.3,168.4z"/>
			<g>
				<path fill="#D97F4A" d="M393.5,128.5c0.5,5.6,3.4,11.4,5.8,12.6c4,2.1,11.2,1.2,19.2,7.1c5.2,3.8,2.4,8.2,4.3,13.7
					c1.3,3.8,3.5,5.8,4.7,6.6c0.9,0.2,1.8,0.4,2.4,0.4c0.4,0,0.6-0.4,0.3-0.6c-1.3-0.9-3.3-2.9-4.5-6.5c-1.9-5.5,0.3-9.6-4.2-14
					c-6.9-6.7-17.3-6.9-19.6-8.2c-2.3-1.3-4.9-5.6-5.4-11.2c-0.5-5.6-5.8-5.8-5.8-5.8v0.9C391.9,124.3,393.3,125.8,393.5,128.5z"/>
				<path fill="#D97F4A" d="M412.2,162.5c-1.6,0-2.9,1.1-2.9,2.5v1.9c0,1.3-1.2,2.3-2.6,2.3h2.9c1.5,0,2.6-1,2.6-2.3V162.5z"/>
				<path fill="#D97F4A" d="M400.4,148.1c-1.3-0.6-2.8-0.1-3.4,1c-0.6,1.2-1.6,2.4-3,3.5c-1.5,1.3-2.1,3-2.3,4.3l0,0
					c0.2,0.2,0.4,0.5,0.7,0.7c0.8,0.6,2.1,0.2,2.2-0.7c0.2-1.3,0.8-3.1,2.3-4.3C399.6,150.3,400.3,150.1,400.4,148.1L400.4,148.1z"
					/>
			</g>
			<path fill="#433F43" d="M388,130.5c-0.9,0-1.7,0.8-1.7,1.8s0.7,1.8,1.7,1.8s1.7-0.8,1.7-1.8C389.7,131.3,388.9,130.5,388,130.5z"
				/>
		</g>
		<g>
			<path fill="#FFDCA7" d="M615.5,150.4v-6.2c0-0.1,0-0.1,0-0.1c-0.3-0.2-0.6-0.4-0.9-0.5c-0.7-0.4-1.6,0.1-1.6,0.9v7
				C614.3,150.8,615.5,150.4,615.5,150.4z"/>
			<path fill="#FFDCA7" d="M637.6,168.3c-0.1,1-0.4,1.8-0.8,2.6c-0.3,0.6-0.8,1.2-1.2,1.7c0.5,0.4,1,0.6,1.7,0.6
				c1.4,0,2.6-1.1,2.6-2.4C639.9,169.5,638.9,168.5,637.6,168.3z"/>
			<path fill="#FFE9C8" d="M637,164.7c-2.8-6.7-14.8-9.1-14.8-9.1c-0.4-3-2.5-4.6-2.5-4.6c1.4-4.3-1.3-6.6-3-7.5
				c-0.6-0.3-1.3,0.1-1.3,0.7v6.2c0,0-6.5,2.4-6.8,5.1c-0.3,2.3,1.9,4,6.7,5.3c0,0,2.6,3.9,3.1,5.8c0.3,1.3,0.4,4.7,0.4,6.7
				c0,0.9,0.8,1.6,1.7,1.6s1.7-0.7,1.7-1.6c0,0.9,0.8,1.6,1.7,1.6h6c2.9,0,5.6-1.5,6.9-4C637.7,169.3,638.1,167.2,637,164.7z
				 M623.9,171.6c-0.9,0-1.7,0.7-1.7,1.6v-5.1c0,0,2.4,2.6,6.2,3.5H623.9z"/>
			<path fill="#FFCF86" d="M636.9,173.2c0.5-0.5,1-1.1,1.4-1.8s0.7-1.5,0.8-2.4c-0.4-0.3-0.9-0.6-1.4-0.6c-0.1,1-0.4,1.8-0.8,2.6
				c-0.3,0.6-0.8,1.2-1.2,1.7C636,172.9,636.4,173.1,636.9,173.2z"/>
			<path fill="#FFDCA7" d="M637,164.7c-2.8-6.7-14.8-9.1-14.8-9.1c-0.4-3-2.5-4.6-2.5-4.6c1.4-4.3-1.3-6.6-3-7.5
				c-0.5-0.2-1-0.1-1.2,0.4c1.7,1.1,3.7,3.3,2.4,7.2c0,0,2.2,2.6,2.7,5.4c0,0.2,0.2,0.4,0.5,0.5c2,0.5,11.1,2.7,14.1,7.8
				c1.4,2.3,0.7,4.5-0.2,6.1c-1.3,2.5-4,4-6.9,4h1.8c2.9,0,5.6-1.5,6.9-4C637.7,169.3,638.1,167.2,637,164.7z"/>
			<path fill="#433F43" d="M614.6,153.7c-0.6,0-1,0.5-1,1.2s0.4,1.2,1,1.2s1-0.5,1-1.2S615.1,153.7,614.6,153.7z"/>
			<path fill="#FFDCA7" d="M630.6,163.9L630.6,163.9c-0.1,0-2.5,0.1-3.6,2.9c-0.8,2.1,0,3.8,0.6,4.6c0.3,0.1,0.5,0.2,0.8,0.2h0.5
				c0-0.1,0-0.2-0.1-0.3c0,0-1.7-1.7-0.8-4.2c0.8-2.2,2.6-2.3,2.7-2.3c0.3,0,0.5-0.2,0.5-0.5C631.1,164.1,630.9,163.9,630.6,163.9z"
				/>
		</g>
		<g>
			<path fill="#A4A8AB" d="M279.4,231.5c-3.3-3.4-8.9-4-11.8-4c-1.1,0-2,0.8-2.1,1.8c-0.2,2.8-0.2,8.1,3.1,11.5
				c4.6,4.8,13.7,4,13.7,4S284,236.3,279.4,231.5z"/>
			<path fill="#4A5058" d="M267.6,227.5c-1.1,0-2,0.8-2.1,1.8s-0.1,2.4,0,4l6.3-5.4C270.2,227.6,268.7,227.5,267.6,227.5z
				 M276,244.4l6.5-5.6c-0.2-1.4-0.5-2.9-1.1-4.3l-9.8,8.4C273,243.6,274.5,244.1,276,244.4z M275.9,229.1l-9.5,8.2
				c0.5,1.2,1.1,2.4,2.1,3.4l10.8-9.3C278.4,230.4,277.2,229.7,275.9,229.1z"/>
			<image width="6" height="5" xlink:href="46240AF7.png"  transform="matrix(1 0 0 1 277 240)">
			</image>
			<path fill="#A4A8AB" d="M299.7,250.2c0-1.3-1.1-2.3-2.4-2.3l0,0c-1.3,0-2.4,1-2.4,2.3v6.6c0,0.8,0.7,1.5,1.6,1.5h3.2L299.7,250.2
				L299.7,250.2L299.7,250.2z"/>
			<path fill="#4A5058" d="M301.4,254.7h-1.7v3.6h1.7c1,0,1.9-0.8,1.9-1.8l0,0C303.2,255.5,302.4,254.7,301.4,254.7z"/>
			<image width="10" height="12" xlink:href="46240AF5.png"  transform="matrix(1 0 0 1 294 247)">
			</image>
			<path fill="#A4A8AB" d="M296.6,240.5h-9.9c-4.6,0-8.3,3.5-8.3,7.9c0,1.3,0.6,2.6,1.5,3.5v5c0,0.8,0.7,1.5,1.6,1.5h3.2v-4.8h5.4
				v3.3c0,0.8,0.7,1.5,1.6,1.5h3.2v-5c3.9-0.8,6.8-4.1,6.8-8l0,0C301.6,242.6,299.4,240.5,296.6,240.5z"/>
			<image width="17" height="9" xlink:href="46240AFB.png"  transform="matrix(1 0 0 1 285 240)">
			</image>
			<path fill="#4A5058" d="M298.1,222.1c2.7,4.4-1.1,7.6-2.6,8.4c-1.5,0.8-6.3,2.4-9-2s-2.2-10.5,0.4-11.9
				C289.5,215.2,295.4,217.7,298.1,222.1z"/>
			<path fill="#EDBCB9" d="M294.7,223.6c1.3,2.1-0.3,3.5-1.1,3.9c-0.8,0.4-2.8,1.1-4.1-1.1s-1.7-5.3-0.3-6.1
				C290.7,219.6,293.4,221.5,294.7,223.6z"/>
			<path fill="#4A5058" d="M308.2,222.1c-2.7,4.4,1.1,7.6,2.6,8.4c1.5,0.8,6.3,2.4,9-2s2.2-10.5-0.4-11.9S310.9,217.7,308.2,222.1z"
				/>
			<path fill="#EDBCB9" d="M311.6,223.6c-1.3,2.1,0.3,3.5,1.1,3.9c0.8,0.4,2.8,1.1,4.1-1.1c1.3-2.1,1.7-5.3,0.3-6.1
				C315.6,219.6,312.9,221.5,311.6,223.6z"/>
			<path fill="#A4A8AB" d="M321.9,234.3c0,7.9-11.5,12.4-18.8,12.4c-7.2,0-18.8-4.5-18.8-12.4s8.4-13,18.8-13
				S321.9,226.4,321.9,234.3z"/>
			<path fill="#EDBCB9" d="M304.4,239.6c-0.7,0-1.2-0.5-1.2-1.2c0,0.7-0.6,1.2-1.2,1.2c-0.3,0-0.6-0.1-0.9-0.3v1.7
				c0,1.1,0.9,2,2.1,2s2.1-0.9,2.1-2v-1.7C305,239.5,304.7,239.6,304.4,239.6z"/>
			<path fill="#D46D59" d="M303.2,241.7c-0.7,0-1.3,0.2-1.7,0.5c0.4,0.5,1,0.8,1.7,0.8s1.3-0.3,1.7-0.8
				C304.5,241.9,303.8,241.7,303.2,241.7z"/>
			<path fill="#4A5058" d="M304.4,240.5c-0.5,0-0.9-0.1-1.2-0.4c-0.4,0.2-0.8,0.4-1.2,0.4c-1.2,0-2.1-0.9-2.1-2
				c0-0.5,0.4-0.9,0.9-0.9s0.9,0.4,0.9,0.9c0,0.2,0.2,0.3,0.3,0.3c0.2,0,0.3-0.1,0.3-0.3c0-0.5,0.4-0.9,0.9-0.9s0.9,0.4,0.9,0.9
				c0,0.2,0.2,0.3,0.3,0.3c0.2,0,0.3-0.1,0.3-0.3c0-0.5,0.4-0.9,0.9-0.9s0.9,0.4,0.9,0.9C306.6,239.6,305.6,240.5,304.4,240.5z"/>
			<path fill="#E8E8E8" d="M292.5,226.6h-4.7c-2.1,2.1-3.4,4.7-3.4,7.8c0,1.3,0.3,2.5,0.8,3.6h7.3c3.3,0,6-2.5,6-5.7l0,0
				C298.5,229.1,295.8,226.6,292.5,226.6z"/>
			<g>
				<path fill="#4A5058" d="M291.5,229.4h-5.9c-0.8,1.5-1.2,3.1-1.2,4.9c0,1.3,0.3,2.5,0.8,3.6h6.2c2.5,0,4.5-1.9,4.5-4.2
					C295.9,231.3,293.9,229.4,291.5,229.4z"/>
				<path fill="#4A5058" d="M306.2,234.1l-0.7,0.8c-1.2,1.4-3.4,1.4-4.6,0l-0.7-0.8c-0.4-0.4-0.1-1,0.5-1h5
					C306.2,233.1,306.5,233.7,306.2,234.1z"/>
			</g>
			<path fill="#E8E8E8" d="M313.8,226.6h4.7c2.1,2.1,3.4,4.7,3.4,7.8c0,1.3-0.3,2.5-0.8,3.6h-7.3c-3.3,0-6-2.5-6-5.7l0,0
				C307.8,229.1,310.5,226.6,313.8,226.6z"/>
			<path fill="#4A5058" d="M314.9,229.4h5.9c0.8,1.5,1.2,3.1,1.2,4.9c0,1.3-0.3,2.5-0.8,3.6H315c-2.5,0-4.5-1.9-4.5-4.2
				C310.4,231.3,312.4,229.4,314.9,229.4z"/>
			<g>
				<path fill="#FFFFFF" d="M291.5,235.2c-0.5,0-0.9-0.4-0.9-0.9V233c0-0.5,0.4-0.9,0.9-0.9s0.9,0.4,0.9,0.9v1.3
					C292.4,234.8,292,235.2,291.5,235.2z"/>
				<path fill="#FFFFFF" d="M314.9,235.2c-0.5,0-0.9-0.4-0.9-0.9V233c0-0.5,0.4-0.9,0.9-0.9s0.9,0.4,0.9,0.9v1.3
					C315.8,234.8,315.4,235.2,314.9,235.2z"/>
			</g>
			<g>
				<path fill="#4A5058" d="M286.3,254.7h-1.7v3.6h1.7c1,0,1.9-0.8,1.9-1.8l0,0C288.2,255.5,287.4,254.7,286.3,254.7z"/>
				<path fill="#4A5058" d="M296.6,254.7h-1.7v3.6h1.7c1,0,1.9-0.8,1.9-1.8l0,0C298.4,255.5,297.6,254.7,296.6,254.7z"/>
			</g>
		</g>
		<g>
			<path fill="#FFCB9D" d="M578.9,207.1c0.6,2.1,1.7,5,3.2,5c1.2,0,2-2,2.4-4.1C581.8,208.4,579.4,207.3,578.9,207.1z"/>
			<path fill="#FFCB9D" d="M564.7,206.1c0,0-2.8,1.4-6,1.1c0.6,2.1,1.7,4.9,3.2,4.9C563.4,212.1,564.3,208.6,564.7,206.1
				L564.7,206.1z"/>
			<path fill="#FFE9C8" d="M553.4,193.2c0,0-3.2-4.9,0-8.7c3.1-3.6,8.4-2.3,8.4-2.3s1.9-3.7,6.1-4.2c4.6-0.6,7,2.6,7,2.6
				s5-2.1,8.6,0.4s2.7,5.7,2.7,5.7s5,0.2,6.2,4.1c1.1,3.7-1.9,6.1-1.9,6.1s3.8,6-1.9,9.7c-4.7,3.1-9.7,0.4-9.7,0.4s-2.5,3-8.4,2.4
				c-4.1-0.4-5.8-3.3-5.8-3.3s-6,2.9-10.3-0.6C549.6,201.5,553.4,193.2,553.4,193.2z"/>
			<path fill="#FFBA7E" d="M564.7,206.1L564.7,206.1c0,0-2.8,1.4-6,1.1c0.2,0.7,0.4,1.4,0.7,2.1c2.1,0,4-0.6,4.8-0.9
				C564.4,207.6,564.6,206.8,564.7,206.1z"/>
			<path fill="#FFBA7E" d="M578.9,207.1c0.2,0.8,0.5,1.6,0.8,2.4c0.9,0.3,2.4,0.7,4.2,0.7c0.3-0.6,0.5-1.4,0.6-2.1
				C581.8,208.4,579.4,207.3,578.9,207.1z"/>
			<path fill="#FFDCA7" d="M586.2,184.6L586.2,184.6L586.2,184.6L586.2,184.6z"/>
			<path fill="#FFDCA7" d="M588.6,204.6c-4.7,3.1-9.7,0.4-9.7,0.4s-2.5,3-8.4,2.4c-4.1-0.4-5.8-3.3-5.8-3.3s-6,2.9-10.3-0.6
				c-1.6-1.3-2.2-3.1-2.4-4.8c-0.2,2.4,0.2,5.1,2.4,6.9c4.3,3.5,10.3,0.6,10.3,0.6s1.7,2.8,5.8,3.3c5.9,0.6,8.4-2.4,8.4-2.4
				s5,2.6,9.7-0.4c2.9-1.9,3.3-4.4,3-6.4C591.4,201.7,590.5,203.3,588.6,204.6z"/>
			<path fill="#FFCB9D" d="M564.6,192.8c-0.8-3.3-5.1-5-8.6-3.5c-3.3,1.4-7.5,3.8-7.2,6.3c0.4,3.1,5.7,4.3,10.3,3.8
				c3.6-0.4,6.2-3.3,5.6-6.4C564.7,192.9,564.6,192.8,564.6,192.8z"/>
			<path fill="#FFBA7E" d="M564.7,192.9c-0.5,2.3-2.7,4.1-5.5,4.5c-4.2,0.5-9-0.5-10.1-3c-0.2,0.4-0.3,0.8-0.2,1.3
				c0.4,3.1,5.7,4.3,10.3,3.8C562.8,198.9,565.3,196,564.7,192.9L564.7,192.9z"/>
			<path fill="#433F43" d="M558.2,191.8c-0.8,0-1.3,0.6-1.3,1.4c0,0.8,0.6,1.4,1.3,1.4s1.3-0.6,1.3-1.4
				C559.6,192.4,559,191.8,558.2,191.8z"/>
			<path fill="#FFCB9D" d="M562.1,187c0,0-0.4-2.4,2.3-2.3c2.6,0.1,2.6,2.9,0.7,3.4L562.1,187z"/>
		</g>
		<g>
			<path fill="#FFDCA7" d="M175.1,365.2L175.1,365.2c0.1-0.1,0.2-0.1,0.2-0.1V360c-0.9-0.7-1.8-1.2-2.5-1.6c-0.8-0.4-1.7,0.2-1.7,1
				v7.3C173,365.9,174.5,365.4,175.1,365.2z"/>
			<path fill="#FFE9C8" d="M175.3,365.1v-5.8c0-0.8,0.9-1.2,1.5-0.8c1.7,1.1,4.1,3.3,4.1,7c0,0,3,1.7,3.5,4.8
				c0.5,3.1-1.2,4.3-1.2,4.3s2.5,0.8,3.4,3.4c0.9,2.7,0.1,5,0.1,5s2.6-1.7,6-1.2s4.4,2.6,4.4,2.6s3.2-2.1,6.4-0.6
				c3.1,1.4,2.8,4.9,2.8,4.9s2.6,1.7,2.1,5.2c-0.5,3.8-3.7,4.7-3.7,4.7v9.7c0,1.2-1,2.1-2.2,2.1s-2.2-0.9-2.2-2.1V404
				c0,0-4.8-1.9-4.8-5.4h-12v9.6c0,1.3-1.1,2.3-2.4,2.3c-1.3,0-2.4-1-2.4-2.3v-9.6c0,0-3.2,0.7-5.1-2.2c-1.9-2.8-0.5-6.3-0.5-6.3
				s-2.7-1.1-3.5-3.6c-0.7-2.5,0.7-5,0.7-5s-1.8-2.3-0.4-4.6c1.3-2.2,2.9-2.5,2.9-2.5s-3.2-1.2-2.5-4.6S175.3,365.1,175.3,365.1z"/>
			<g>
				<path fill="#FFDCA7" d="M206.4,388.6c0,0,0.3-3.4-2.8-4.9c-1.4-0.6-2.8-0.6-3.9-0.3c0.3,0.1,0.7,0.2,1,0.3
					c3.1,1.4,2.8,4.9,2.8,4.9s2.6,1.7,2.1,5.2c-0.5,3.8-3.7,4.7-3.7,4.7v9.7c0,0.6-0.3,1.2-0.7,1.5c0.4,0.3,0.9,0.6,1.5,0.6
					c1.2,0,2.2-0.9,2.2-2.1v-9.7c0,0,3.2-0.9,3.7-4.7C209,390.3,206.4,388.6,206.4,388.6z"/>
				<path fill="#FFDCA7" d="M178,365.5c0,0,3,1.7,3.5,4.8c0.5,3.1-1.2,4.3-1.2,4.3s2.5,0.8,3.4,3.4c0.2,0.6,0.3,1.2,0.4,1.7
					c0.2,1.4,1.5,2.3,2.9,2.1h0.1c0.1-0.9,0.1-2.3-0.4-3.8c-0.8-2.6-3.4-3.4-3.4-3.4s1.6-1.2,1.2-4.3c-0.5-3.1-3.5-4.8-3.5-4.8
					c0-3.7-2.4-5.9-4.1-7c-0.7-0.4-1.5,0-1.5,0.8v0.3C176.7,360.9,178,362.8,178,365.5z"/>
				<path fill="#FFDCA7" d="M180.8,408.1c0,0.7-0.3,1.4-0.9,1.8c0.4,0.3,0.9,0.5,1.5,0.5c1.3,0,2.3-1.1,2.3-2.3v-9.6
					c-1.6,0-2.9,1.3-2.9,2.8L180.8,408.1L180.8,408.1z"/>
			</g>
			<path fill="#FFCB9D" d="M170.6,381.4c0,0-1.8-2.3-0.4-4.6s2.9-2.5,2.9-2.5s-3.2-1.2-2.5-4.6c0.6-2.9,3.7-4.2,4.6-4.5
				c-2,0.7-16.3,5.8-16.3,11.9C158.8,380.4,165.5,381.2,170.6,381.4z"/>
			<path fill="#FFBA7E" d="M175.1,365.2c-0.8,0.3-3.7,1.3-6.8,2.8c-0.3,0.5-0.6,1-0.7,1.7c-0.7,3.4,2.5,4.6,2.5,4.6
				s-1.5,0.3-2.9,2.5c-1.1,1.9-0.1,3.8,0.3,4.4c1,0.1,2.1,0.2,3.1,0.2c0,0-1.8-2.3-0.4-4.6s2.9-2.5,2.9-2.5s-3.2-1.2-2.5-4.6
				C171.1,366.8,174.2,365.5,175.1,365.2z"/>
			<path fill="#433F43" d="M166.4,371.8c-0.9,0-1.7,0.9-1.7,2s0.7,2,1.7,2c0.9,0,1.7-0.9,1.7-2S167.4,371.8,166.4,371.8z"/>
		</g>
		<g>
			<g>
				<path fill="#FFA812" d="M701.4,363.3c0.2-0.1,0.3-0.4,0.2-0.7c-0.1-0.2-0.4-0.3-0.7-0.2c-0.1,0-1.5,0.9-1.3,2.8
					c0,0.2,0.2,0.4,0.5,0.4c0,0,0,0,0.1,0c0.3,0,0.4-0.3,0.4-0.6C700.4,363.9,701.3,363.3,701.4,363.3z"/>
				<path fill="#FFA812" d="M703.7,363.3c-0.2-0.2-0.5-0.1-0.7,0.1c0,0-0.1,0.1-0.1,0.2c0-0.1,0-0.3-0.1-0.4
					c-0.2-0.2-0.5-0.3-0.7-0.1c-0.1,0-1.3,1.1-1.3,2.7c0,0.3,0.2,0.5,0.5,0.5l0,0c0.3,0,0.5-0.2,0.5-0.5c0-1,0.8-1.7,0.9-1.8
					c-0.3,0.5-0.6,1.4-0.3,2.3c0.1,0.2,0.3,0.3,0.4,0.3c0.1,0,0.1,0,0.2,0c0.2-0.1,0.4-0.4,0.3-0.6c-0.3-0.7,0.3-1.6,0.5-1.8
					C704,363.7,703.9,363.4,703.7,363.3z"/>
				<path fill="#FFA812" d="M711.6,362.5c-0.2-0.1-0.5-0.1-0.7,0.2c-0.1,0.2-0.1,0.5,0.2,0.7c0,0,1,0.6,0.8,1.8
					c0,0.3,0.1,0.5,0.4,0.6c0,0,0,0,0.1,0c0.2,0,0.4-0.2,0.5-0.4C713.2,363.4,711.7,362.5,711.6,362.5z"/>
				<path fill="#FFA812" d="M710.3,363c-0.2-0.2-0.5-0.1-0.7,0.1c-0.1,0.1-0.1,0.3-0.1,0.4c-0.1-0.1-0.1-0.2-0.1-0.2
					c-0.2-0.2-0.5-0.2-0.7-0.1s-0.2,0.5-0.1,0.7c0,0,0.8,1,0.5,1.8c-0.1,0.3,0,0.5,0.3,0.6c0.1,0,0.1,0,0.2,0c0.2,0,0.4-0.1,0.4-0.3
					c0.3-0.9,0-1.8-0.3-2.3c0.1,0.1,0.9,0.9,0.9,1.8c0,0.3,0.2,0.5,0.5,0.5l0,0c0.3,0,0.5-0.2,0.5-0.5
					C711.6,364.1,710.4,363.1,710.3,363z"/>
			</g>
			<path fill="#DD8858" d="M698.2,352.8L698.2,352.8c-1-0.6-1.8-1.3-2.5-2.1l0,0c0,0-4.3,8.4,2.8,9.8
				C696.6,357.3,698.2,352.8,698.2,352.8z"/>
			<path fill="#D97F4A" d="M694.5,354.9c-0.3,2.4,0.3,5,4,5.7c-0.4-0.6-0.6-1.3-0.8-2C695.6,357.9,694.7,356.5,694.5,354.9z"/>
			<path fill="#DD8858" d="M714.3,352.8L714.3,352.8c1-0.6,1.8-1.3,2.5-2.1l0,0c0,0,4.3,8.4-2.8,9.8
				C715.9,357.3,714.3,352.8,714.3,352.8z"/>
			<path fill="#D97F4A" d="M714.7,358.6c-0.1,0.7-0.4,1.3-0.8,2c3.7-0.7,4.3-3.3,4-5.7C717.8,356.5,716.9,357.9,714.7,358.6z"/>
			<path fill="#AD5E2E" d="M714.3,352.8c-2,1.1-4.6,1.7-8,1.7s-6.1-0.6-8-1.7c0,0-3.9,11,8,11C718.2,363.9,714.3,352.8,714.3,352.8z
				"/>
			<path fill="#A05528" d="M706.3,362.1c-6.6,0-8.4-3.3-8.6-6.4c-0.3,3.3,0.7,8.1,8.6,8.1c7.9,0,8.9-4.9,8.6-8.1
				C714.6,358.8,712.8,362.1,706.3,362.1z"/>
			<path fill="#DD8858" d="M706.3,354.5c7.9,0,11.8-3.2,12.3-8.4c0.5-5.3-2.6-9.7-2.6-9.7c0.7-0.7,1.1-1.4,1.5-1.9
				c0.3-0.4-0.2-1-0.6-0.8c-5.2,1.9-10.5,1.7-10.5,1.7s-5.3,0.2-10.5-1.7c-0.5-0.2-0.9,0.4-0.6,0.8c0.3,0.6,0.8,1.2,1.5,1.9
				c0,0-3.1,4.4-2.6,9.7C694.4,351.4,698.4,354.5,706.3,354.5z"/>
			<path fill="#D97F4A" d="M718.5,344.4c-0.5,5.2-4.4,8.4-12.3,8.4c-7.9,0-11.8-3.2-12.3-8.4c0-0.1,0-0.2,0-0.2c0,0.6,0,1.3,0,2
				c0.5,5.2,4.4,8.4,12.3,8.4c7.9,0,11.8-3.2,12.3-8.4c0.1-0.7,0.1-1.4,0-2C718.5,344.2,718.5,344.3,718.5,344.4z"/>
			<path fill="#FFE9C8" d="M712.4,338.5c-3.9-1.5-6.2,2.1-6.2,2.1s-2.2-3.6-6.2-2.1c-3.9,1.5-4.1,7.6-2.5,10.3c1.4,2.3,5,3,7.3,0.4
				c-0.1-0.4-0.2-0.8-0.2-1.2c0-1.2,0.7-1.7,1.5-1.7s1.5,0.5,1.5,1.7c0,0.4-0.1,0.8-0.2,1.2c2.3,2.7,6,1.9,7.3-0.4
				C716.5,346.1,716.3,339.9,712.4,338.5z"/>
			<path fill="#FFDCA7" d="M704.7,347.5c-2.3,2.4-5.8,1.6-7.1-0.6c-0.5-0.8-0.8-1.9-0.9-3.1c-0.2,1.8,0.2,3.7,0.9,4.9
				c1.4,2.3,5,3,7.3,0.4c-0.1-0.4-0.2-0.8-0.2-1.2C704.7,347.8,704.7,347.7,704.7,347.5z"/>
			<path fill="#FFDCA7" d="M714.9,347c-1.3,2.2-4.8,3-7.1,0.6c0,0.1,0,0.2,0,0.3c0,0.4-0.1,0.8-0.2,1.2c2.3,2.7,6,1.9,7.3-0.4
				c0.7-1.2,1.1-3.1,0.9-4.9C715.7,345,715.4,346.1,714.9,347z"/>
			<path fill="#FFA812" d="M707.8,347.9c0-1.2-0.7-1.7-1.5-1.7s-1.5,0.5-1.5,1.7s0.7,2.5,1.5,2.5S707.8,349,707.8,347.9z"/>
			<path fill="#FF9A00" d="M706.3,348.6c-0.6,0-1.1-0.7-1.4-1.5c-0.1,0.2-0.1,0.5-0.1,0.8c0,1.2,0.7,2.5,1.5,2.5s1.5-1.3,1.5-2.5
				c0-0.3-0.1-0.6-0.1-0.8C707.4,347.9,706.9,348.6,706.3,348.6z"/>
			<path fill="#433F43" d="M701.3,342.5c-0.7,0-1.3,0.8-1.3,1.8s0.6,1.8,1.3,1.8s1.3-0.8,1.3-1.8C702.6,343.3,702,342.5,701.3,342.5
				z"/>
			<path fill="#433F43" d="M711.2,342.5c-0.7,0-1.3,0.8-1.3,1.8s0.6,1.8,1.3,1.8s1.3-0.8,1.3-1.8C712.6,343.3,712,342.5,711.2,342.5
				z"/>
		</g>
		<g>
			<path fill="#8BCAFF" d="M500.4,310.4c5.5-18.7-5.9-33.2-5.9-33.2c0.8-1.8,2.7-3,4.6-3.6c1.5-0.6,1.5-2.7,0.1-3.3
				c-7.5-3.2-13,0.2-13,0.2c-10.9-8-22.1-1.6-24.7,2.9s-4.7,3.5-8.8,5.7c-1.6,0.9-2,2-2,3.1c0,2,1.6,3.6,3.5,3.6
				c35.5,0.1,41.1,23.9,41.1,23.9s-4.4,0.7-6.5,6.3c-0.4,1.1,0.7,2.2,1.7,1.7c1.7-1,4-1.8,6.4-1.3c2.2,0.5,4,1.9,5.2,3.4
				c0.8,0.9,2.3,0.2,2.1-1C503.9,315.8,503,312.2,500.4,310.4z"/>
			<path fill="#60B8FF" d="M503.8,316.6c-0.5,0.5-1.3,0.6-1.8,0c-1.2-1.4-3-2.9-5.2-3.4c-2.4-0.5-4.7,0.3-6.4,1.3
				c-0.4,0.2-0.8,0.2-1.1,0c-0.2,0.4-0.4,0.9-0.6,1.4c-0.4,1.1,0.7,2.2,1.7,1.7c1.7-1,4-1.8,6.4-1.3c2.2,0.5,4,1.9,5.2,3.4
				c0.8,0.9,2.3,0.2,2.1-1C504.1,318,504,317.3,503.8,316.6z"/>
			<path fill="#FFE9C8" d="M473.4,282.1c-9.1-1.7-17.9-0.4-22.8,0.7c0.3,1.7,1.8,3,3.5,3c35.5,0.1,41.1,23.9,41.1,23.9
				C495,293.8,487.3,284.6,473.4,282.1z"/>
			<path fill="#FFDCA7" d="M454.1,285.8c35.5,0.1,41.1,23.9,41.1,23.9c0-1.3-0.1-2.6-0.2-3.8c-1.3-3.9-9-23.1-40.9-23.2
				c-0.5,0-1-0.1-1.5-0.3l0,0c-0.5,0.1-1,0.2-1.5,0.3c-0.2,0-0.3,0.1-0.5,0.1C450.9,284.5,452.4,285.8,454.1,285.8z"/>
			<path fill="#433F43" d="M467.8,275.5c-0.9,0-1.7,1-1.7,2.2s0.7,2.2,1.7,2.2c0.9,0,1.7-1,1.7-2.2S468.7,275.5,467.8,275.5z"/>
			<path fill="#8BCAFF" d="M471.4,280.6c0,0,0.6,17.9,8.2,19.3c4,0.7,1.7-8.2,6-14.4"/>
			<path fill="#60B8FF" d="M481.5,287.7c-1.4,4.8-1.7,10-3.3,11.7c0.4,0.2,0.9,0.4,1.4,0.5c4,0.7,1.7-8.2,6-14.4
				C483.9,284.8,482.1,285.9,481.5,287.7z"/>
		</g>
		<g>
			<path fill="#D8D1D7" d="M615.2,392.4L615.2,392.4c1.6-1.4,3.9-2.9,6.4-3.5c-2-1.3-4.9-2.5-8.5-2.1c-4.4,0.5-7.3,3.6-9,6.1
				C608.9,391.3,612.9,391.8,615.2,392.4z"/>
			<path fill="#CAC0C9" d="M618.1,387.3c-2.6,1-4.8,2.8-6.4,4.5c1.4,0.1,2.5,0.3,3.4,0.5l0,0c1.6-1.4,3.9-2.9,6.4-3.5
				C620.6,388.3,619.4,387.8,618.1,387.3z"/>
			<path fill="#E6E2E6" d="M626.5,389.2c-4.5-1.4-8.7,1-11.3,3.3l0,0c-2.7-0.7-8-1.4-14.2,1.9c-8.7,4.6-11.7,13.5-7.4,37.2
				c0.3,1.9,2.3,3.2,4.4,2.8h0.1c1.8-0.4,3-2,2.8-3.7l-1.2-9.4c0,0,7.8,4.3,17.1-1.7c7.7,4.5,16.6-2.3,18.1-10.5
				C636.6,399.4,634.2,391.6,626.5,389.2z"/>
			<path fill="#D8D1D7" d="M647.6,409.4c-2.5-8.7-6.7-12.3-13.2-12.4c1.1,3.3,1.2,7.4,0.4,11.9c-1.5,8.2-10.4,15-18.1,10.5
				c-0.2,0.1-0.4,0.3-0.7,0.4c-3,1.8-5.9,2.5-8.3,2.7c0.7,2.3,2,5.9,3.4,9.3c0.6,1.5,2.2,2.5,4,2.5h1.5c2,0,3.7-1.2,4.2-3l0.6-2.3
				h12.1l0.6,2.3c0.5,1.8,2.2,3,4.2,3h1.6c1.7,0,3.2-0.9,3.9-2.3C645.9,427.7,650,417.8,647.6,409.4z"/>
			<path fill="#CAC0C9" d="M647.6,409.4c-2.5-8.7-6.7-12.3-13.2-12.4c0,0.1,0.1,0.3,0.1,0.4c4.7,1.1,8,4.8,10,12
				c2.4,8.4-1.7,18.3-3.9,22.7c-0.6,1.2-1.8,2-3.2,2.2c0.2,0,0.5,0.1,0.7,0.1h1.6c1.7,0,3.2-0.9,3.9-2.3
				C645.9,427.7,650,417.8,647.6,409.4z"/>
			<path fill="#D8D1D7" d="M599.8,422.2C599.7,422.2,599.7,422.2,599.8,422.2c-1.6-0.3-3,0.8-2.8,2.2l0.8,6.1
				c0.2,1.5-0.7,2.9-2.1,3.5c0.7,0.3,1.5,0.4,2.3,0.2h0.1c1.8-0.4,3-2,2.8-3.7L599.8,422.2z"/>
			<path fill="#D8D1D7" d="M626.5,389.2c-1.5-0.5-2.9-0.5-4.3-0.3c0.4,0.1,0.8,0.2,1.2,0.3c7.7,2.4,10.1,10.2,8.3,19.7
				c-1.1,5.9-5.9,11-11.4,11.8c6.6,1,13.2-4.9,14.4-11.8C636.6,399.4,634.2,391.6,626.5,389.2z"/>
			<path fill="#CAC0C9" d="M634.8,408.9c-1.5,8.2-10.4,15-18.1,10.5c-0.2,0.1-0.4,0.3-0.7,0.4c-3,1.8-5.9,2.5-8.3,2.7
				c0.3,0.8,0.6,1.8,1,2.9c2.4-0.1,5.3-0.9,8.6-3c7.7,4.5,18-2.7,19.5-10.9c1-5.7,0.6-10.7-1.5-14.4c-0.3,0-0.6,0-0.9,0
				C635.5,400.3,635.6,404.4,634.8,408.9z"/>
			<path fill="#433F43" d="M607.3,410c-0.9,0-1.7,0.8-1.7,1.9s0.7,1.9,1.7,1.9c0.9,0,1.7-0.8,1.7-1.9C609,410.8,608.3,410,607.3,410
				z"/>
		</g>
		<g>
			<path fill="#FF646F" d="M700.3,416.5l-4-1.2v-3.4c0-0.3-0.2-0.5-0.5-0.5s-0.5,0.2-0.5,0.5v3.1l-4.4-1.3l1.1-2
				c0.1-0.2,0-0.5-0.2-0.6s-0.5,0-0.7,0.2l-1.4,2.5c-0.1,0.1-0.1,0.3,0,0.4s0.2,0.2,0.3,0.3l5.3,1.6v5h-1.5c-0.3,0-0.5,0.2-0.5,0.5
				s0.2,0.5,0.5,0.5h2c0.3,0,0.5-0.2,0.5-0.5v-5.2l3.3,1l-0.3,1.1c-0.1,0.2,0.1,0.5,0.4,0.6h0.1c0.2,0,0.4-0.1,0.5-0.3l0.4-1.5
				C700.7,416.8,700.6,416.6,700.3,416.5z"/>
			<path fill="#FFE9C8" d="M685.1,394.4c-0.1-0.7,0.1-1.2,0.4-1.7c-1.7,0.1-5,0.6-5.7,2.8c-0.8,2.6,1.5,4,2.4,3.6s-0.3-2.1,1.1-2.5
				c0.7-0.2,1.7-0.3,2.6-0.5C685.5,395.8,685.2,395.3,685.1,394.4z"/>
			<path fill="#FFCB9D" d="M685.1,394.6c-1.3,0.3-2.9,0.7-3.7,1.3c-0.7,0.6-0.8,1.7-0.7,2.8c0.5,0.4,1.1,0.5,1.5,0.4
				c0.9-0.4-0.3-2.1,1.1-2.5c0.7-0.2,1.7-0.3,2.6-0.5C685.5,395.8,685.2,395.4,685.1,394.6z"/>
			<path fill="#8C808A" d="M683.2,396.6l-2-2.8c-0.7,0.4-1.2,0.9-1.4,1.7c-0.8,2.6,1.5,4,2.4,3.6C683.1,398.6,681.9,397,683.2,396.6
				z"/>
			<path fill="#7B7179" d="M680.7,398.7c0.5,0.4,1.1,0.5,1.5,0.4c0.9-0.4-0.3-2,1-2.4l-0.9-1.2c-0.4,0.2-0.7,0.3-0.9,0.5
				C680.7,396.5,680.6,397.7,680.7,398.7z"/>
			<path fill="#FF9AA1" d="M685.1,394.4c-0.4-2.7,3.5-3.9,5.5-3c2.1,0.9,3.1,2.4,1.6,6.9c-1.5,4.4-0.6,5.5,1.9,5.8
				c2.1,0.2,5.1-2,6.3-4.7c0.3-0.6,1.2-0.8,1.6-0.2c1.3,1.4,3.1,3.9,2.8,6.2c-0.4,3.5-4.5,6.8-10.3,6.7c-5.8-0.1-8.1-4.2-7.7-7.5
				c0.4-3.3,1.6-5.7,1.1-6.6C686.9,396.1,685.4,396.9,685.1,394.4z"/>
			<path fill="#FF8088" d="M694.5,410.3c-4.9-0.1-7.3-3-7.7-5.9v0.1c-0.4,3.3,1.9,7.4,7.7,7.5s10-3.1,10.3-6.7c0-0.4,0-0.8-0.1-1.3
				C704.1,407.4,700.1,410.4,694.5,410.3z"/>
			<path fill="#FF646F" d="M695.8,408.9c-0.8,0-1.5-0.2-2-0.4c-1.2-0.5-2-1.2-2-1.2c-0.2-0.2-0.2-0.5,0-0.6s0.5-0.2,0.7,0
				c0.1,0.1,2.6,2.4,5.8,0.6c2.4-1.3,1.7-3.5,1.6-3.6c-0.1-0.2,0-0.5,0.3-0.6s0.5,0,0.6,0.3c0,0,0.3,0.8,0.2,1.7
				c-0.1,0.9-0.6,2.1-2.2,3C697.6,408.7,696.6,408.9,695.8,408.9z"/>
			<path fill="#433F43" d="M689.2,392.9c-0.5,0-1,0.5-1,1.2c0,0.6,0.4,1.2,1,1.2s1-0.5,1-1.2C690.1,393.4,689.7,392.9,689.2,392.9z"
				/>
		</g>
		<g>
			<g>
				<path fill="#8C808A" d="M170.7,218.4l6.7,13.4h5.4c-0.5-0.3-5.4-15.2-12.4-18.5C171.1,215.7,170.7,218.4,170.7,218.4z"/>
				<path fill="#8C808A" d="M157.8,220.1l8-4.1v-3.4c-4.5,0.1-6.6,1.6-9.5-0.1c-0.6-0.3-1.2,0.1-1.2,0.7
					C155.1,215.2,155.5,218.4,157.8,220.1z"/>
				<path fill="#8C808A" d="M208.3,244.5c0.1-7.9-7.2-10.2-7.2-10.2c2.5,1.8,3.9,4.6,4.4,8.7c0.3,2.6,0.3,6.2,0.1,9.9
					c1,0.6,1.9,0.8,2.6,0.8c0.8,0,1.3-0.8,1-1.5C208.7,251,208.2,248.8,208.3,244.5z"/>
			</g>
			<path fill="#DD8858" d="M165.8,216l-14.2,7.3c-0.8,0.4-1.3,1.4-1.1,2.3c0.4,2,1.6,5.2,4.8,5.7c4.8,0.8,9.1-0.6,9.1-0.6
				s7.8,14.6,7.8,18.5v15.7c0,1.8,1.4,3.3,3.2,3.3s3.2-1.5,3.2-3.3v-15.7h15c0,0,1.3,3.4,4.6,4.7v11.3c0,1.7,1.3,3,3,3
				c1.4,0,2.7-1.1,2.9-2.5c0.8-4.3,2.1-16.6,1.3-22.7c-1.1-8.3-5.6-11.2-15.2-11.2s-12.9,0-12.9,0l-6.7-13.4c0,0,1.1-7.3-3.5-8.5
				c-0.7-0.2-1.3,0.3-1.3,1L165.8,216z"/>
			<path fill="#D97F4A" d="M167.4,218.4l5.2,10.4c0.9,1.8,2.7,2.9,4.7,2.9l-6.7-13.4c0,0,1.1-7.3-3.5-8.5c-0.7-0.2-1.3,0.3-1.3,1
				l0,0C168.2,213.4,167.4,218.4,167.4,218.4z"/>
			<path fill="#D97F4A" d="M205.5,243c-1.1-8.3-5.6-11.2-15.2-11.2c-1.2,0-2.3,0-3.2,0c9.6,0,14.1,2.9,15.2,11.2
				c0.8,6.1-0.5,18.4-1.3,22.7c-0.1,0.8-0.6,1.6-1.3,2c0.5,0.3,1,0.5,1.6,0.5c1.4,0,2.7-1.1,2.9-2.5
				C204.9,261.4,206.3,249.1,205.5,243z"/>
			<path fill="#D97F4A" d="M175.4,265c0,1.2-0.6,2.2-1.6,2.8c0.5,0.3,1,0.5,1.6,0.5c1.8,0,3.2-1.5,3.2-3.3v-15.7
				c-1.8,0-3.2,1.5-3.2,3.3V265z"/>
			<path fill="#433F43" d="M163.9,220.8c-1,0-1.8,1-1.8,2.3s0.8,2.3,1.8,2.3s1.8-1,1.8-2.3C165.7,221.8,164.9,220.8,163.9,220.8z"/>
			<path fill="#CA6D36" d="M155.3,226.4l-0.3-0.9c-0.1-0.5-0.6-0.8-1.1-0.6c-0.5,0.1-0.7,0.7-0.6,1.1l0.3,0.9
				c0.1,0.4,0.5,0.7,0.9,0.7c0.1,0,0.2,0,0.3,0C155.2,227.4,155.5,226.9,155.3,226.4z"/>
		</g>
		<g>
			<path fill="#FF646F" d="M612,265.6h-2.2c-0.4,0-0.7-0.3-0.7-0.6s0.3-0.6,0.7-0.6h1.4v-9.5c0-0.3,0.3-0.6,0.7-0.6s0.7,0.3,0.7,0.6
				V265C612.7,265.4,612.4,265.6,612,265.6z"/>
			<path fill="#FF646F" d="M619.9,265.6h-2.1c-0.4,0-0.7-0.3-0.7-0.6s0.3-0.6,0.7-0.6h1.4v-9.8c0-0.3,0.3-0.6,0.7-0.6
				s0.7,0.3,0.7,0.6V265C620.7,265.4,620.3,265.6,619.9,265.6z"/>
			<path fill="#FFA812" d="M599.9,228.9c0-0.1,0-0.1,0-0.2c-1.4,0.8-3.4,2.2-2.8,3.2c0.6,1.1,3,0.6,4.8,0.2
				C600.6,231.4,599.8,230.3,599.9,228.9z"/>
			<path fill="#FFE9C8" d="M604.2,225.5c-2.3,0.1-4.2,1.6-4.3,3.4c-0.1,1.7,1.2,3.1,3,3.6v6.2c0,1.3,1.3,2.4,2.9,2.4
				c1.6,0,2.9-1.1,2.9-2.4v-9.6C608.8,227.1,606.7,225.4,604.2,225.5z"/>
			<path fill="#FFDCA7" d="M605.9,239c-1.6,0-2.9-1.1-2.9-2.4v2.2c0,1.3,1.3,2.4,2.9,2.4c1.6,0,2.9-1.1,2.9-2.4v-2.2
				C608.8,237.9,607.5,239,605.9,239z"/>
			<path fill="#8C808A" d="M630.3,242.1c0-0.6-0.8-1-1.5-0.7c-0.8,0.3-1.8,0.5-2.7,0.2c-1.7-0.7-3.6-2.3-6.7-1.7
				c-3,0.6-3.1,2.4-5.2,2.3c-2.2-0.1-5.4-3.3-5.4-3.3c0,1.3-1.3,2.4-2.9,2.4c-1.6,0-2.9-1.1-2.9-2.4c0,0-4.2,6.2-0.5,11.2
				c3.4,4.7,9.8,5.2,13.3,5.2C620.7,255.2,631,251.9,630.3,242.1z"/>
			<path fill="#7B7179" d="M630.3,242c-0.8,8.2-10,11-14.6,11c-3.5,0-9.9-0.5-13.3-5.2c-0.9-1.2-1.3-2.4-1.4-3.6
				c-0.2,1.8,0.1,3.9,1.4,5.8c3.4,4.7,9.8,5.2,13.3,5.2c5,0,15.3-3.3,14.6-13C630.3,242.1,630.3,242,630.3,242z"/>
			<path fill="#7B7179" d="M617,249.4c-1.2,0-2.3-0.3-3.1-0.6c-1.5-0.6-2.4-1.5-2.5-1.5c-0.3-0.3-0.2-0.6,0.1-0.9
				c0.3-0.2,0.8-0.2,1,0.1c0.1,0.1,3,2.8,7,1.1c2-0.8,3.1-2,3.3-3.4c0-0.3,0.4-0.6,0.8-0.5c0.4,0,0.7,0.3,0.7,0.7
				c-0.1,1.3-1,3.1-4.1,4.3C619.1,249.3,618,249.4,617,249.4z"/>
			<path fill="#433F43" d="M604.3,227.4c-0.8,0-1.5,0.7-1.5,1.5c0,0.9,0.7,1.5,1.5,1.5s1.5-0.7,1.5-1.5
				C605.9,228.1,605.2,227.4,604.3,227.4z"/>
		</g>
		<g>
			<path fill="#B99C80" d="M596.4,136.2c0-0.3-0.3-0.6-0.6-0.6l-4.1-0.6l2.6-1.2c0.3-0.1,0.4-0.4,0.4-0.7s-0.2-0.5-0.5-0.6l-4-0.9
				l3.1-1.3c0.3-0.1,0.4-0.4,0.4-0.7s-0.2-0.6-0.5-0.6l-1.8-0.6l4-1.7c0.3-0.1,0.4-0.4,0.4-0.7s-0.2-0.6-0.5-0.6l-3.2-0.6l3.5-1.4
				c0.3-0.1,0.5-0.4,0.4-0.8c0-0.3-0.3-0.6-0.6-0.6l-3.9-0.3l2.4-1.6c0.2-0.2,0.4-0.5,0.3-0.7c-0.1-0.3-0.3-0.5-0.6-0.5l-3.1-0.3
				l1.3-1.4c0.2-0.2,0.2-0.5,0.1-0.7c-0.1-0.3-0.3-0.4-0.6-0.4l-5.5-0.2l1-2.4c0.1-0.2,0.1-0.5-0.1-0.7c-0.1-0.2-0.3-0.3-0.6-0.3
				c-2.9,0.1-6.9,2-9.2,3.2l0.6-1.5c0.1-0.3,0.1-0.6-0.1-0.8c-0.2-0.2-0.5-0.3-0.7-0.2l-6.2,2.5h-2.7l-0.6-0.8
				c-0.2-0.2-0.4-0.3-0.6-0.2c-3.3,0.8-5.7,5-6,5.4c-1.6,2.2-1.3,5.4-1.3,5.5c0,0.3,0.2,0.5,0.4,0.6s0.5,0.1,0.7-0.1
				c0.5-0.4,0.9-0.8,1-0.9c1.7-0.7,2.3-0.9,4.2,0c1.7,0.8,3.2,0.9,4.4,0.9c0.4,0,0.8,0,1.1,0.1c0.1,0,0.5,0.2,1.7,2.4
				c0.7,1.4,1.5,3,2,4.4c0.3,0.7,0.5,1.3,0.7,1.7c0.4,0.8,1.6,1.5,3.6,2.2c1.5,0.5,3.3,0.8,4.4,1l1.2,0.2c0,0,0,0,0.1,0
				s1.3,0.1,2.9,0.1c2.5,0,5.9-0.2,8-1.1C596.3,136.8,596.4,136.5,596.4,136.2z"/>
			<g>
				<path fill="#A38166" d="M586.1,134.9c0-0.4-0.3-0.7-0.7-0.6c-2,0.1-8.9-0.8-9-0.8c-0.4,0-0.7,0.2-0.7,0.6s0.2,0.7,0.6,0.8
					c0.3,0,6.1,0.8,8.7,0.8c0.2,0,0.4,0,0.6,0C585.9,135.6,586.2,135.3,586.1,134.9z"/>
				<path fill="#A38166" d="M584.3,132.8c0.4,0,0.6-0.4,0.6-0.7c0-0.4-0.3-0.7-0.7-0.6c-2.7,0.2-8.6,0-8.7,0c-0.4,0-0.7,0.3-0.7,0.7
					s0.3,0.7,0.6,0.7c0.2,0,2.7,0.1,5.3,0.1C582,132.9,583.3,132.9,584.3,132.8z"/>
				<path fill="#A38166" d="M585.7,128.9c-0.1-0.4-0.4-0.6-0.8-0.6c-2.4,0.5-10.4,1-10.5,1c-0.4,0-0.6,0.4-0.6,0.7
					c0,0.4,0.3,0.7,0.6,0.7l0,0c0.3,0,8.1-0.5,10.6-1.1C585.6,129.6,585.8,129.3,585.7,128.9z"/>
				<path fill="#A38166" d="M565.7,119.5c0.3-0.2,0.4-0.6,0.3-0.9s-0.6-0.5-0.9-0.3c-2.7,1.5-3.6,5.5-3.6,5.6
					c-0.1,0.4,0.1,0.7,0.5,0.8c0.1,0,0.1,0,0.2,0c0.3,0,0.6-0.2,0.6-0.5C562.8,124.2,563.6,120.7,565.7,119.5z"/>
				<path fill="#A38166" d="M569.5,119.1c0.3-0.2,0.5-0.6,0.3-0.9c-0.1-0.4-0.5-0.5-0.9-0.4c-3.7,1.7-5.1,5.5-5.2,5.7
					c-0.1,0.4,0,0.8,0.4,0.9c0.1,0,0.2,0,0.2,0c0.3,0,0.5-0.2,0.6-0.4C565,124,566.3,120.6,569.5,119.1z"/>
				<path fill="#A38166" d="M573.1,119.6c0.3-0.1,0.5-0.5,0.4-0.9s-0.5-0.6-0.8-0.5c-4.9,1.6-7.1,5.7-7.2,5.8
					c-0.2,0.3-0.1,0.8,0.3,0.9c0.1,0.1,0.2,0.1,0.3,0.1c0.2,0,0.4-0.1,0.6-0.4C566.7,124.7,568.7,121,573.1,119.6z"/>
				<path fill="#A38166" d="M581.1,127.1c-0.1-0.4-0.4-0.6-0.7-0.6c-2.1,0.4-6.8,0.8-6.9,0.8c-0.4,0-0.6,0.4-0.6,0.8
					c0,0.4,0.3,0.6,0.6,0.6c0,0,0,0,0.1,0c0.2,0,4.8-0.4,7-0.8C580.9,127.9,581.2,127.5,581.1,127.1z"/>
				<path fill="#A38166" d="M583.9,123.9c0.3-0.2,0.4-0.6,0.3-0.9c-0.2-0.3-0.6-0.5-0.9-0.3c-2.7,1.4-10.6,3.4-10.6,3.4
					c-0.3,0.1-0.6,0.5-0.5,0.8s0.3,0.5,0.6,0.5h0.1C573.3,127.3,581.1,125.4,583.9,123.9z"/>
				<path fill="#A38166" d="M572,121.6c-0.2-0.3-0.6-0.5-0.9-0.3c-2.4,1.4-3.4,3.4-3.5,3.4c-0.2,0.3-0.1,0.8,0.2,0.9
					c0.1,0.1,0.2,0.1,0.3,0.1c0.2,0,0.4-0.1,0.6-0.4c0,0,0.9-1.7,3-2.9C572.1,122.4,572.2,121.9,572,121.6z"/>
				<path fill="#A38166" d="M581.1,117.9c-0.1-0.4-0.5-0.5-0.8-0.4c-5.5,2.4-10,6.9-10.2,7.1c-0.3,0.3-0.3,0.7,0,1
					c0.1,0.1,0.3,0.2,0.5,0.2s0.3-0.1,0.4-0.2c0,0,4.5-4.6,9.8-6.9C581,118.6,581.2,118.2,581.1,117.9z"/>
				<path fill="#A38166" d="M580.1,122.1c0.3-0.2,0.5-0.6,0.3-0.9s-0.5-0.5-0.9-0.3l-7.9,4.2c-0.3,0.2-0.5,0.6-0.3,0.9
					c0.1,0.2,0.3,0.4,0.6,0.4c0.1,0,0.2,0,0.3-0.1L580.1,122.1z"/>
			</g>
			<path fill="#A86B38" d="M585.7,136.9c-0.1-0.2-0.3-0.3-0.5-0.4c0,0-1.9-0.3-4-0.8c-2.8-0.7-4.1-1.4-4.3-1.9
				c-0.2-0.4-0.4-0.9-0.7-1.6c-2.1-4.9-3.4-7.4-4.7-7.5c-0.4-0.1-0.8-0.1-1.2-0.1c-1.2-0.1-2.5-0.1-3.9-0.8c-2.3-1.1-3.3-0.9-5.3,0
				c0,0-0.1,0-0.1,0.1c-0.6,0.5-3.7,2.8-3.8,4.7c-0.1,0.8,0.2,1.5,0.6,2.1c0.6,0.7,1.6,1,2.8,0.9c0.7,0,1.8,0.1,2.7,0.4
				c0.5,0.2,1.4,0.6,1.5,1.2c0.2,1.1-0.1,3.5-0.3,4.8c-0.7,0.2-1.9,0.7-2.1,1.8c0,0.3,0.1,0.6,0.3,0.7c0.1,0,1.1,0.7,2.8,0.7
				c0.6,0,1.4-0.1,2.2-0.3c0.2-0.1,0.3-0.2,0.4-0.4l2.1-4.5c1.3,0.6,4.3,2.1,6.6,2.4c-0.5,0.4-0.9,0.9-0.9,1.7
				c0,0.3,0.2,0.5,0.4,0.6c0.1,0,2.4,1,6.5,0c0.1,0,0.1,0,0.2-0.1c0.1,0,1.6-1,2.6-3.2C585.8,137.3,585.8,137,585.7,136.9z"/>
			<g>
				<path fill="#7C4212" d="M565.8,140.2c-0.4,0.1-2.5,0.4-2.9,0.4c0.4,0.2,1.3,0.6,2.6,0.6c0.6,0,1.4-0.1,2.2-0.3
					c0.2-0.1,0.3-0.2,0.4-0.4l2.1-4.5l-1.7-1.4L565.8,140.2z"/>
				<path fill="#7C4212" d="M585.7,137.5c0.1-0.2,0.1-0.4,0-0.6c-0.1-0.2-0.3-0.3-0.5-0.4c0,0-1.9-0.3-4-0.8
					c-2.8-0.7-4.1-1.4-4.3-1.9c-0.2-0.4-0.4-0.9-0.7-1.6c-2.1-4.9-3.4-7.4-4.7-7.5c-0.4-0.1-0.8-0.1-1.2-0.1
					c-1.2-0.1-2.5-0.1-3.9-0.8c-2.2-1.1-3.3-0.9-5.2-0.1c1.3,0.2,2.8,0.5,3.2,0.7c2.1,1,3.9,0.8,5.3,1c1.4,0.2,4,6.8,4.9,8.8
					c0.9,1.9,8.7,3,8.7,3c-0.9,2.1-2.3,2.9-2.3,2.9c-0.5,0.1-2.2,0.6-3.7,0.9c1.1,0.2,2.9,0.4,5.5-0.2c0.1,0,0.1,0,0.2-0.1
					C583.2,140.7,584.7,139.7,585.7,137.5z"/>
			</g>
			<path fill="#5E310D" d="M564.8,127.1c-0.1,0-0.1,0-0.2,0c-0.3-0.1-0.5-0.5-0.4-0.9c0.1-0.3,0-0.6-0.1-0.8
				c-0.2-0.3-0.5-0.5-0.8-0.6c-0.1,0-0.2,0-0.3,0c-0.1,0.1-0.2,0.4-0.2,0.6c0,0.4-0.3,0.7-0.6,0.7c-0.4,0-0.7-0.3-0.7-0.7
				c0-0.1,0-1.1,0.6-1.7c0.2-0.2,0.7-0.5,1.3-0.3c0.7,0.2,1.4,0.6,1.7,1.2c0.3,0.6,0.4,1.3,0.2,2C565.3,126.9,565,127.1,564.8,127.1
				z"/>
			<path fill="#A38166" d="M595.8,135.6l-4.1-0.6l2.6-1.2c0.3-0.1,0.4-0.4,0.4-0.7s-0.2-0.5-0.5-0.6l-4-0.9l3.1-1.3
				c0.3-0.1,0.4-0.4,0.4-0.7s-0.2-0.6-0.5-0.6l-1.8-0.6l4-1.7c0.3-0.1,0.4-0.4,0.4-0.7s-0.2-0.6-0.5-0.6l-3.2-0.6l3.5-1.4
				c0.3-0.1,0.5-0.4,0.4-0.8c0-0.3-0.3-0.6-0.6-0.6l-3.9-0.3l2.4-1.6c0.2-0.2,0.4-0.5,0.3-0.7c-0.1-0.3-0.3-0.5-0.6-0.5l-3.1-0.3
				l1.3-1.4c0.2-0.2,0.2-0.5,0.1-0.7c-0.1-0.3-0.3-0.4-0.6-0.4l-5.5-0.2l1-2.4c0.1-0.2,0.1-0.5-0.1-0.7c-0.1-0.2-0.3-0.3-0.6-0.3
				c-0.6,0-1.3,0.1-2,0.3l-1.5,4.9l5.5,0.3l-2,2.3l3.5,0.5l-2.9,2.5l3.3,0.3l-3,1.9l4.2,1.1l-4.3,2.4l1.9,1l-3.3,2.1l4.5,1.7
				l-3.6,2.2l3.6,0.5l-4.3,1.8c0.5,0,1.1,0,1.9,0c2.5,0,5.9-0.2,8-1.1c0.3-0.1,0.4-0.4,0.4-0.7C596.4,135.8,596.1,135.6,595.8,135.6
				z"/>
		</g>
		<g>
			<path fill="#E6E2E6" d="M536.6,413.5c-3.2,2.3-8.3,2.7-12.1,2.7s-8.9-0.4-12.1-2.7c-2,3.5-4.9,9.7-4.3,14.2
				c0.8,6.7,8.7,6.9,16.4,6.9s15.6-0.2,16.4-6.9C541.4,423.2,538.5,417,536.6,413.5z"/>
			<g>
				<path fill="#D8D1D7" d="M524.5,432.1c-7.7,0-15.6-0.2-16.4-6.9c-0.1,0.9-0.1,1.7,0,2.5c0.8,6.7,8.7,6.9,16.4,6.9
					s15.6-0.2,16.4-6.9c0.1-0.8,0.1-1.6,0-2.5C540,431.9,532.1,432.1,524.5,432.1z"/>
				<path fill="#D8D1D7" d="M545.8,402.1c0-2.6-2.3-4.1-2.3-4.1c0.5-3.6-2.3-6.5-6.2-6.2c-1.8,0.1-3.1,1-3.9,2
					c3.8,3,6.3,7.9,6.3,13.4c0,1.5-0.3,2.7-0.8,3.7c1.2,0.5,2.6,0.7,3.9,0.2c3.3-1.4,1.4-5.1,1.4-5.1S545.7,404.6,545.8,402.1z"/>
				<path fill="#D8D1D7" d="M509.2,407.1c0-5.4,2.5-10.3,6.3-13.4c-0.9-0.9-2.1-1.8-3.9-2c-3.8-0.3-6.7,2.6-6.2,6.2
					c0,0-2.3,1.5-2.3,4.1c0,2.5,1.5,3.8,1.5,3.8s-1.9,3.7,1.4,5.1c1.3,0.6,2.7,0.3,3.9-0.2C509.5,409.8,509.2,408.6,509.2,407.1z"/>
			</g>
			<path fill="#CAC0C9" d="M542.8,408.5c-1.1,0.5-2.2,0.4-3.2,0.1c-0.1,0.8-0.4,1.6-0.7,2.2c1.2,0.5,2.6,0.7,3.9,0.2
				c2.3-1,2.1-3,1.7-4.2C544.3,407.5,543.8,408.1,542.8,408.5z"/>
			<path fill="#CAC0C9" d="M506.1,408.5c-1-0.4-1.5-1-1.7-1.7c-0.3,1.2-0.5,3.2,1.7,4.2c1.3,0.6,2.7,0.3,3.9-0.2
				c-0.3-0.7-0.6-1.4-0.7-2.2C508.2,408.9,507.1,408.9,506.1,408.5z"/>
			<path fill="#E6E2E6" d="M524.5,390.5c8.3,0,15.3,7.6,15.3,16.6c0,8.2-9.3,9.1-15.3,9.1s-15.3-0.9-15.3-9.1
				C509.2,398.1,516.2,390.5,524.5,390.5z"/>
			<path fill="#D8D1D7" d="M537.5,415.2c-0.3-0.6-0.6-1.2-0.9-1.7c-3.2,2.3-8.3,2.7-12.1,2.7s-8.9-0.4-12.1-2.7
				c-0.3,0.5-0.6,1.1-0.9,1.7c3.1,3,8.9,3.5,13,3.5S534.3,418.2,537.5,415.2z"/>
			<path fill="#433F43" d="M516.7,400c-0.8,0-1.4,0.8-1.4,1.8s0.6,1.8,1.4,1.8c0.8,0,1.4-0.8,1.4-1.8S517.5,400,516.7,400z"/>
			<path fill="#433F43" d="M532.2,400c-0.8,0-1.4,0.8-1.4,1.8s0.6,1.8,1.4,1.8s1.4-0.8,1.4-1.8S533,400,532.2,400z"/>
			<path fill="#433F43" d="M527.9,409.6c-0.3-0.3-0.7-0.3-1,0s-0.6,0.4-0.8,0.4c-0.3-0.1-0.6-0.5-0.8-0.9c0.5,0,1-0.2,1.4-0.5
				c0.8-0.6,1.2-1.6,1.2-3.2s-0.3-3.2-1-4.4c-0.7-1.4-1.6-2.2-2.6-2.2s-2,0.8-2.6,2.2c-0.6,1.2-1,2.8-1,4.4s0.4,2.6,1.2,3.2
				c0.4,0.3,0.9,0.4,1.4,0.5l0,0c-0.3,0.5-0.6,0.8-0.8,0.9s-0.5-0.1-0.8-0.4s-0.7-0.2-1,0c-0.3,0.3-0.2,0.7,0,1
				c0.9,0.8,1.7,0.8,2.2,0.7c0.6-0.2,1.1-0.7,1.5-1.2c0.3,0.5,0.8,1,1.5,1.2c0.1,0,0.3,0.1,0.5,0.1c0.5,0,1-0.2,1.7-0.8
				C528.2,410.3,528.2,409.9,527.9,409.6z"/>
			<path fill="#E6E2E6" d="M513.9,424c0,0,0.3,12.5,4.1,12.5c3.4,0,4.1-11.5,4.1-11.5"/>
			<path fill="#E6E2E6" d="M535,424c0,0-0.3,12.5-4.1,12.5c-3.4,0-4.1-11.5-4.1-11.5"/>
			<path fill="#D8D1D7" d="M522.1,424.3c-0.4,0-0.7,0.3-0.7,0.7c0,0-0.2,2.9-0.7,5.6c-0.1,0.5-0.2,0.9-0.3,1.3
				c-0.6,0.8-1.4,1.2-2.3,1.2c-1,0-1.8-0.4-2.5-1.2c-0.1-0.6-0.3-1.2-0.4-1.8c-0.5-3-0.6-6.1-0.6-6.1c0-0.4-0.3-0.7-0.7-0.7
				s-0.7,0.3-0.7,0.7c0,0.1,0.1,3.2,0.6,6.3c0.3,1.9,0.8,3.4,1.3,4.5c0.8,1.6,1.7,2.3,2.9,2.3l0,0c1.8,0,3.1-2.1,4-6.3
				c0.6-2.9,0.8-5.7,0.8-5.8C522.8,424.7,522.5,424.3,522.1,424.3z"/>
			<path fill="#D8D1D7" d="M535.1,423.3c-0.4,0-0.7,0.3-0.7,0.7c0,0-0.1,3.1-0.6,6.1c-0.1,0.7-0.2,1.3-0.4,1.8
				c-0.7,0.8-1.5,1.2-2.5,1.2c-0.9,0-1.7-0.4-2.3-1.2c-0.1-0.4-0.2-0.8-0.3-1.3c-0.6-2.8-0.7-5.6-0.7-5.6c0-0.4-0.4-0.7-0.7-0.7
				c-0.4,0-0.7,0.4-0.7,0.7c0,0.1,0.2,3,0.8,5.8c0.9,4.2,2.2,6.3,4,6.3l0,0c1.2,0,2.1-0.8,2.9-2.3c0.5-1.1,1-2.6,1.3-4.5
				c0.6-3.1,0.6-6.2,0.6-6.3C535.7,423.6,535.4,423.3,535.1,423.3z"/>
		</g>
		<g>
			<path fill="#7C6251" d="M320.4,360.9c-2.2-2.7-2.6-11.7-2.6-15c0-0.2-0.1-0.4-0.2-0.6c-1-1.1-2.6-3.1-2.9-4.1
				c-0.1-0.4-0.5-0.6-0.9-0.6c-0.4,0.1-0.7,0.4-0.7,0.8c0,0-0.2,4.3-0.1,8.8c0.1,2.7,0.3,4.9,0.6,6.7c0.4,2.4,1,3.9,1.9,4.7
				c1,0.9,2,1.1,2.7,1.1c0.2,0,0.4,0,0.5,0c0.9-0.1,1.4-0.5,1.5-0.5c0.2-0.2,0.4-0.4,0.4-0.7C320.6,361.3,320.5,361.1,320.4,360.9z"
				/>
			<path fill="#FFDCAF" d="M314.9,327.5c-0.1-0.3-0.4-0.4-0.7-0.4h-4.3c-0.3,0-0.6,0.2-0.7,0.4l-3,5.8c-0.1,0.3-0.1,0.6,0,0.9
				c0,0.1,0.8,1.3,2.2,2.3c0.8,0.5,1.8,1,3,1c0.9,0,1.8-0.2,2.9-0.9c0.2-0.1,0.3-0.3,0.4-0.4l0,0c0.1-0.2,0.1-0.5,0-0.7
				s-0.3-0.4-0.5-0.4c-0.6-0.2-0.8-0.5-0.9-0.8c-0.5-1.4,0.7-4.3,1.6-5.8C315,328.1,315,327.8,314.9,327.5z"/>
			<g>
				<path fill="#7C6251" d="M349.2,358.5c0,0-1.6-0.4-3-2.1c-1.9-2.3-2.8-6-2.4-10.6c0-0.4-0.2-0.8-0.6-0.9c-0.3-0.1-0.6,0-0.8,0.3
					c-0.5,0.6-1,1.1-1.7,1.6c-1.3,1-2.6,2.1-3.6,3.4c-0.1,0.2-0.2,0.4-0.2,0.6c0,0.1,0.5,6.6,5.6,9.2c-0.6,0.5-1.2,1.3-1.2,2.5
					c0,0.2,0.1,0.5,0.2,0.7c0.2,0.2,0.4,0.3,0.6,0.3h7.1c0.4,0,0.8-0.4,0.8-0.9v-3.2C349.8,358.9,349.5,358.6,349.2,358.5z"/>
				<path fill="#7C6251" d="M349.3,337.2c-1.2-1.1-2.6-1.8-4.1-2.1c-1.1-0.2-1.9-0.1-2.1,0H343l0,0c-0.3,0.1-0.5,0.3-0.6,0.5
					c-0.1,0.3-0.1,0.5,0.1,0.8c0.3,0.6,0.6,1.2,0.8,1.8c0.1,0.3,0.2,0.5,0.2,0.8c0.1,0.3,0.4,0.6,0.7,0.6c0.5,0,1.4,0.3,2.3,1.1
					c2,1.8,4.4,6.3,4.4,17.7c0,1.3,1,2.3,2.1,2.3s2.1-1,2.1-2.3C355.2,347.8,353.2,340.7,349.3,337.2z"/>
			</g>
			<path fill="#B99C80" d="M344.8,337.6c-1-3.1-3.3-5.6-6.2-6.9c-3.4-1.5-8.5-3.7-13.3-5.6c-6.1-2.4-10-3.5-11.8-3.5
				c-2.9,0.1-4.4,1.8-5.3,3.2c-0.9,1.5-1.1,2.9-1.1,3c0,0.2,0,0.5,0.2,0.7s0.4,0.3,0.6,0.3h4.8c-0.8,1.7-1.9,4.6-0.9,6.4
				c0.3,0.5,0.7,0.9,1.2,1.1c-0.1,1.3-0.3,4.1,0.1,5.4c0.4,1.5,2.4,3.7,3.1,4.5c0,1.1,0.1,4.5,0.5,7.9c0.8,6,2.3,9,4.6,9.1
				c0.2,0,0.4,0,0.5,0c1.5,0,2.7-0.4,3.5-1.3c0.2-0.2,0.4-0.5,0.5-0.7c-0.1,0.4-0.1,0.7,0,1c0.1,0.4,0.4,0.7,0.8,0.7h6
				c0.4,0,0.8-0.4,0.8-0.8c0,0,0.1-2.1,1.1-4.9c0.9-2.6,2.9-6.2,6.8-9.1C346.1,344.8,345.8,340.5,344.8,337.6z M326.6,359.9
				c0.1-0.5,0.1-0.9,0.1-0.9c0-0.5-0.4-0.8-0.8-0.8h-3V348h5.9v10.2C327.7,358.6,327,359.3,326.6,359.9z"/>
			<path fill="#A38166" d="M344.8,337.6c-1-3.1-3.3-5.6-6.2-6.9c-3.4-1.5-8.5-3.7-13.3-5.6c-6.1-2.4-10-3.5-11.8-3.5
				c-0.5,0-0.9,0.1-1.3,0.2c2.1,0.4,5.5,1.5,10.1,3.3c4.8,1.9,9.9,4.1,13.3,5.6c2.9,1.3,5.2,3.8,6.2,6.9c1,3,1.3,7.2-3.3,10.6
				c-3.9,2.9-5.9,6.6-6.8,9.1c-1,2.8-1.1,4.9-1.1,4.9c0,0.5-0.4,0.8-0.8,0.8h2.9c0.4,0,0.8-0.4,0.8-0.8c0,0,0.1-2.1,1.1-4.9
				c0.9-2.6,2.9-6.2,6.8-9.1C346.1,344.8,345.8,340.5,344.8,337.6z"/>
			<path fill="#FF7E90" d="M344.8,337.6c-0.2-0.7-0.6-1.4-0.9-2.1c-0.2-0.4-0.7-0.5-1.1-0.3c-0.2,0.1-3.7,2.4-3.8,5.8
				c0,2,1.1,3.8,3.5,5.4c0.1,0.1,0.3,0.1,0.4,0.1c0.2,0,0.4-0.1,0.6-0.3C345.5,343.9,345.9,340.9,344.8,337.6z"/>
			<path fill="#FF5468" d="M343.5,346.3c1.8-2.2,2.3-4.9,1.6-7.8l0,0c0-0.1-0.1-0.2-0.1-0.3l0,0c0-0.1-0.1-0.2-0.1-0.3l0,0
				c0-0.1-0.1-0.2-0.1-0.3l0,0c0-0.1-0.1-0.2-0.1-0.3v-0.1c0-0.1,0-0.1-0.1-0.2c0,0,0-0.1-0.1-0.1c0,0,0-0.1-0.1-0.1
				c0,0,0-0.1-0.1-0.1c0,0,0-0.1-0.1-0.1c0,0,0-0.1-0.1-0.1c0,0,0-0.1-0.1-0.1c0,0,0-0.1-0.1-0.1c0-0.1-0.1-0.1-0.1-0.2V336
				c0-0.1-0.1-0.1-0.1-0.2c0,0,0,0,0-0.1l-0.1-0.1c-0.2-0.4-0.7-0.5-1.1-0.3c-0.1,0-0.7,0.4-1.4,1.1c0.2,0.4,0.4,0.8,0.5,1.2
				c0.8,2.2,1.1,5.1-0.7,7.9c0.4,0.3,0.8,0.7,1.3,1c0.1,0.1,0.3,0.1,0.4,0.1C343.1,346.6,343.3,346.5,343.5,346.3z"/>
			<path fill="#2B2B2B" d="M310.9,331.4c-0.5,0-0.9-0.4-0.9-1c0-0.5,0.4-1,0.9-1s0.9,0.4,0.9,1S311.4,331.4,310.9,331.4z"/>
		</g>
		<g>
			<path fill="#D97F4A" d="M453.4,416.6c-0.4,0-0.7-0.2-0.7-0.5c0-3.5-1.2-6.3-3.5-8.1c-1.7-1.4-3.4-1.7-3.4-1.7
				c-0.4-0.1-0.6-0.4-0.5-0.6c0.1-0.3,0.5-0.4,0.9-0.4c0.1,0,2.1,0.4,4.1,2c3.2,2.5,3.9,6.2,3.9,8.8
				C454.1,416.4,453.8,416.6,453.4,416.6z"/>
			<path fill="#DD8858" d="M420.2,401.3c4.9-0.5,5.5-2.3,8.4-2.1c2.9,0.2,1.6,3.7,4.7,3.8c3.1,0.1,14.3-0.5,16.7,5.7
				c2.4,6.2-0.2,10.6-2.4,12.9v4.3c0,0.9-1,1.6-2.3,1.6s-2.3-0.7-2.3-1.6v-4.1c0,0-3.2-1.6-4.8-3.3h-11.6v7.5c0,0.9-1,1.6-2.2,1.6
				s-2.2-0.7-2.2-1.6v-7.8c0,0-3.8-1.5-5.2-3.1c0,0-1,5.4-4.3,5.3c-3.4-0.1-5.9-6-5.9-6s-3-0.7-2.4-4.6s4.1-8.8,8.7-9.7
				C417.5,399.2,420.2,401.3,420.2,401.3z"/>
			<g>
				<path fill="#D97F4A" d="M411.1,419.9c0.5,0.3,1,0.5,1.6,0.5c3.4,0.1,4.3-5.3,4.3-5.3c-1.9-0.2-3.7,0.7-4.3,2
					C412.4,417.9,411.9,418.9,411.1,419.9z"/>
				<path fill="#D97F4A" d="M450,408.7c-2.4-6.2-13.5-5.6-16.7-5.7c0,0,12.2,1.2,13.9,6.3c2,6.3-0.1,10.1-2.3,12.4v4.3
					c0,0.5-0.4,1-0.9,1.3c0.4,0.2,0.8,0.3,1.3,0.3c1.3,0,2.3-0.7,2.3-1.6v-4.3C449.8,419.3,452.4,414.9,450,408.7z"/>
				<path fill="#D97F4A" d="M424,426c0,0.5-0.3,1-0.9,1.3c0.4,0.2,0.9,0.3,1.4,0.3c1.2,0,2.1-0.8,2.1-1.6v-7.5
					c-1.5,0-2.7,0.9-2.7,1.9v5.6H424z"/>
			</g>
			<path fill="#FFE9C8" d="M417.5,405.9c-1.8-0.3-2.4-1.9-1.1-2.9c0.7-0.5,1.6-1.3,2.1-2.1c1.1-1.6,1.7-3.1,3.1-3.2
				c1.4,0,2,4.5-1.6,7.6C419.4,405.8,418.4,406.1,417.5,405.9L417.5,405.9z"/>
			<path fill="#FFDCA7" d="M421.6,397.8c-0.4,0-0.8,0.2-1.1,0.4c0.4,1.5-0.1,4.3-2.6,6.4c-0.5,0.4-1.1,0.6-1.8,0.6
				c0.3,0.3,0.8,0.6,1.4,0.7c0,0,0,0,0.1,0c0.9,0.1,1.8-0.1,2.4-0.6C423.5,402.2,422.9,397.7,421.6,397.8z"/>
			<path fill="#433F43" d="M411.1,405c-0.8,0-1.5,0.6-1.5,1.3s0.7,1.3,1.5,1.3s1.5-0.6,1.5-1.3C412.7,405.6,412,405,411.1,405z"/>
		</g>
		<g>
			<path fill="#E6E2E6" d="M392.2,320.7h8.8c6.8-4.9,6.2-9,6.2-9c8.5-5.5-0.4-14.8-2.7-17.4c-2.3-2.6-1.2-16.1-12.3-16.1
				c-11.1,0-9.9,13.5-12.3,16.1c-2.3,2.6-11.2,11.9-2.7,17.4c0,0-0.5,4.1,6.2,9H392.2z"/>
			<path fill="#E6E2E6" d="M392.2,320.7h8.8c6.8-4.9,6.2-9,6.2-9c8.5-5.5-0.4-14.8-2.7-17.4c-2.3-2.6-1.2-16.1-12.3-16.1
				c-11.1,0-9.9,13.5-12.3,16.1c-2.3,2.6-11.2,11.9-2.7,17.4c0,0-0.5,4.1,6.2,9H392.2z"/>
			<path fill="#8C808A" d="M392.2,278.2c-10.7,0-10,12.6-12.1,15.8c0.9-0.1,1.9-0.3,2.8-0.8c2.3-1.4,0.8-8.7,5.1-8.7
				c2.5,0,2.3,2.7,2.4,5l1.8,0.4c0,0,1.8-0.3,1.8-0.4c0.1-2.3-0.1-5,2.4-5c4.2,0,2.8,7.3,5.1,8.7c0.8,0.5,1.8,0.7,2.8,0.8
				C402.2,290.8,402.9,278.2,392.2,278.2z"/>
			<path fill="#FFA812" d="M390.4,289.5c0.1,1.6,0.4,2.9,1.8,2.9s1.7-1.3,1.8-2.9H390.4z"/>
			<path fill="#D8D1D7" d="M407.2,311.8c0-0.1,0-0.1,0-0.2c3.3-2.1,4-4.8,3.4-7.5c-0.4,1.6-1.9,3.2-3.9,4.5c0,0,0,0,0,0.1
				c-0.9-4.5-2.4-7.9-2.5-8.1c-0.1-0.3-0.5-0.5-0.9-0.4c-0.3,0.1-0.5,0.5-0.4,0.9c0,0,1.4,3.5,2.4,7.9c0.5,2.4-0.3,4.9-2.1,6.7
				c-0.6,0.6-1.4,1.3-2.3,1.9h-17.6c-0.9-0.6-1.6-1.3-2.3-1.9c-1.8-1.7-2.6-4.3-2.1-6.7c0.9-4.5,2.4-7.9,2.4-8
				c0.1-0.3,0-0.7-0.4-0.9c-0.3-0.1-0.7,0-0.9,0.4c-0.1,0.2-1.6,3.8-2.5,8.4c0-0.1,0-0.1,0-0.1c-2-1.3-3.5-3.2-3.9-4.7
				c-0.6,2.7,0.1,5.4,3.4,7.5c0,0.2,0,0.4,0,0.6c0.1,1.3,1,4.6,6.2,8.4h17.6c2.8-2,4.3-3.9,5.2-5.4c0.7-1.3,1-2.4,1-3
				C407.2,312.1,407.2,312,407.2,311.8z"/>
			<path fill="#433F43" d="M387.5,287.1c-0.8,0-1.4,0.7-1.4,1.6s0.6,1.6,1.4,1.6s1.4-0.7,1.4-1.6
				C388.9,287.9,388.3,287.1,387.5,287.1z"/>
			<path fill="#433F43" d="M396.9,287.1c-0.8,0-1.4,0.7-1.4,1.6s0.6,1.6,1.4,1.6s1.4-0.7,1.4-1.6
				C398.2,287.9,397.6,287.1,396.9,287.1z"/>
			<path fill="#8C808A" d="M381.2,321.5c-1.2,0-1.9-1.4-1.1-2.3c1.1-1.2,2.8-2.4,5-1.9c2.1,0.5,3.1,1.6,3.5,2.5
				c0.4,0.8-0.2,1.7-1.1,1.7L381.2,321.5L381.2,321.5z"/>
			<path fill="#7B7179" d="M388.4,319.4c-0.2,0.2-0.5,0.4-0.9,0.4h-6.3c-0.5,0-0.9-0.2-1.1-0.5c-0.8,0.9-0.1,2.3,1.1,2.3h6.3
				c0.9,0,1.5-0.9,1.1-1.7C388.6,319.7,388.5,319.5,388.4,319.4z"/>
			<path fill="#8C808A" d="M403.2,321.5c1.2,0,1.9-1.4,1.1-2.3c-1.1-1.2-2.8-2.4-5-1.9c-2.1,0.5-3.1,1.6-3.5,2.5
				c-0.4,0.8,0.2,1.7,1.1,1.7L403.2,321.5L403.2,321.5z"/>
			<path fill="#7B7179" d="M395.9,319.4c0.2,0.2,0.5,0.4,0.9,0.4h6.3c0.5,0,0.9-0.2,1.1-0.5c0.8,0.9,0.1,2.3-1.1,2.3h-6.3
				c-0.9,0-1.5-0.9-1.1-1.7C395.8,319.7,395.8,319.5,395.9,319.4z"/>
		</g>
		<g>
			<path fill="#AEE295" d="M358,200.7c0,0-4.3,0-6.3,3.8c-1.9,3.5-3.9,4.9-3.7,8.3c0.2,3.4,4.4,4.1,5.7,5.7l-0.1,12.1
				c0,6.3,5,11.4,11.2,11.4s11.2-5.1,11.2-11.3v-3.3c0-2.2,1.7-3.9,3.9-3.9c2.4-0.1,8.1,0.2,8.9-5.9c0.5-4-1.7-6.2-3.2-7.2
				c-0.5-0.3-1,0.2-0.8,0.7c1,2.3,2.3,6.5-2.2,6.5h-4.1c-5.2,0-9.3,4.2-9.4,9.4v4.1c0,1.9-1.5,3.4-3.4,3.4c-1.8,0-3.3-1.5-3.4-3.4
				v-12.5c1.2-1.7,5.5-2.3,5.7-5.7s-1.9-4.8-3.7-8.3C362.3,200.7,358,200.7,358,200.7"/>
			<path fill="#98DB7C" d="M388.9,215.2c-0.8,6.1-6.5,5.9-8.9,5.9c-2.1,0-3.9,1.7-3.9,3.9v2.3c0-2.2,1.7-3.9,3.9-3.9
				c2.4-0.1,8.1,0.2,8.9-5.9C389,216.6,389,215.9,388.9,215.2L388.9,215.2z"/>
			<path fill="#98DB7C" d="M364.9,239.7c-6.1,0-11-4.8-11.2-10.9v1.8c0,6.3,5,11.4,11.2,11.4s11.2-5.1,11.2-11.3v-2.3
				C376.1,234.7,371.1,239.7,364.9,239.7z"/>
			<path fill="#FF4755" d="M357.9,210.9c-0.8,0-1.3,0.3-1.7,0.6v3.9c0,0.3,0.3,0.4,0.5,0.3l1.2-1l1.2,1c0.2,0.2,0.5,0,0.5-0.3v-3.9
				C359.2,211.2,358.7,210.9,357.9,210.9z"/>
			<path fill="#FC2B3A" d="M357.9,210.9c-0.8,0-1.3,0.3-1.7,0.6v2.3c0.4-0.3,0.9-0.6,1.7-0.6s1.3,0.3,1.7,0.6v-2.3
				C359.2,211.2,358.7,210.9,357.9,210.9z"/>
			<path fill="#433F43" d="M354,207c-0.7,0-1.3,0.7-1.3,1.6c0,0.9,0.6,1.6,1.3,1.6c0.7,0,1.3-0.7,1.3-1.6S354.7,207,354,207z"/>
			<path fill="#433F43" d="M362.1,207c-0.7,0-1.3,0.7-1.3,1.6c0,0.9,0.6,1.6,1.3,1.6c0.7,0,1.3-0.7,1.3-1.6S362.8,207,362.1,207z"/>
			<path fill="#4FC223" d="M361.7,213.5c-1,0-1.6-0.6-2-1.1c-0.5-0.5-0.8-0.9-1.8-0.9c-0.9,0-1.3,0.4-1.8,0.9c-0.4,0.5-1,1.1-2,1.1
				c-1.7,0-2.6-1.3-2.6-1.3c-0.2-0.3-0.1-0.7,0.2-0.9c0.3-0.2,0.7-0.1,0.9,0.2c0,0,0.5,0.8,1.6,0.8c0.5,0,0.7-0.2,1.1-0.7
				c0.5-0.5,1.2-1.3,2.7-1.3s2.2,0.8,2.7,1.3c0.4,0.5,0.7,0.7,1.1,0.7c1,0,1.5-0.7,1.6-0.8c0.2-0.3,0.6-0.4,0.9-0.2s0.4,0.6,0.2,0.9
				C364.3,212.3,363.4,213.5,361.7,213.5z"/>
		</g>
		<g>
			<path fill="#DD8858" d="M499,153.5c0,0-1-6.7,7.5-8.1c7.1-1.2,11.6,1,12.9,1.8c0.2,0.1,0.2,0.4,0,0.5l-2.6,1.6
				c0,0,5.7-0.5,10.1,2c0.2,0.1,0.2,0.4-0.1,0.5l-3.3,1.1c0,0,4,0.8,6.7,3.6c0.2,0.2,0,0.5-0.3,0.5h-3c0,0,3.9,3.9,3.8,8.2
				c0,0.2-0.2,0.3-0.4,0.3l-6.8-1.4"/>
			<path fill="#D97F4A" d="M530.7,164l-31.5-13.1c-0.4,1.5-0.2,2.6-0.2,2.6l24.5,10.6l6.8,1.4c0.2,0,0.4-0.1,0.4-0.3
				C530.8,164.8,530.8,164.4,530.7,164z"/>
			<path fill="#FFCB9D" d="M523.5,164.1l-18.2-7.9c2.2-1.2,1.3-3.9-1.5-3.8c-1.7,0.1-2.2,1.3-2.3,2.2l-2.5-1.1c0,0-2.9,4.3-5.1,4.5
				c-1.1,0.1-2,0-2.7-0.1s-1.4,0.2-1.7,0.7c-0.4,0.7-0.5,1.7,0.4,2.6c1.8,1.7,6.7,4,9.8,4.3l-1.1,3.1c0,0-3.3,1.1-3.2,2.2h5.4
				c0.3,0,0.6-0.2,0.8-0.4l1.8-4.4c0,0,6.5,1.1,11.5,1c0.3,1,1.1,1.6,1.1,1.6c-3.8,0.3-3.8,2.2-3.8,2.2h9.7c0.2,0,0.5-0.1,0.6-0.2
				C526,166.8,523.5,164.1,523.5,164.1z"/>
			<path fill="#FFBA7E" d="M523.5,164.1L521,163c0.8,2.2,1.3,5.5-1,7.8h1.9c0.2,0,0.5-0.1,0.6-0.2
				C526,166.8,523.5,164.1,523.5,164.1z"/>
			<path fill="#FFBA7E" d="M500.5,167.6l-1.3,3.1h1.7c0.3,0,0.6-0.2,0.8-0.4l1.7-4.1l0,0C502.1,166.1,500.9,166.7,500.5,167.6z"/>
			<path fill="#433F43" d="M497.8,158c-0.7,0-1.3,0.6-1.3,1.3s0.6,1.3,1.3,1.3s1.3-0.6,1.3-1.3S498.6,158,497.8,158z"/>
		</g>
		<g>
			<path fill="#FFE9C8" d="M464.3,217.9c-0.9,0-1.9,0-3.1-0.2c-0.7-0.1-1.3-0.3-1.8-0.5c0.5,1.6,1.3,4.3,2.1,5.8
				c1.2,2.3,2.6,4.7,2.6,0.3C464,221,464.2,219.2,464.3,217.9z"/>
			<path fill="#FFDCA7" d="M461.2,219.8c1.1,0.2,2.1,0.2,2.9,0.2c0.1-0.8,0.1-1.5,0.2-2.1c-0.9,0-1.9,0-3.1-0.2
				c-0.7-0.1-1.3-0.3-1.8-0.5c0.2,0.7,0.5,1.5,0.7,2.4C460.5,219.7,460.8,219.7,461.2,219.8z"/>
			<path fill="#CAC0C9" d="M495.7,226.1c-7.3-16.8-24.3-21.2-30.7-19.6c-6.6,1.7-11.3,10-3.7,11.1c1.2,0.2,2.3,0.2,3.1,0.2
				c0,0,2,14.3,16.2,14.4c14.2,0,12.2-2.2,17.8,0.1c5.7,2.3,8.5,4.1,9.5,1C509,230.5,505.7,227.3,495.7,226.1z"/>
			<path fill="#BBB0BA" d="M507.9,231.3c-1.1,3.1-4,1.3-9.8-1.1c-5.8-2.4-3.7-0.1-18.2-0.2c-8.4,0-12.7-4.9-14.7-9.1
				c1.5,4.2,5.4,11.2,15.4,11.3c14.2,0,12.2-2.2,17.8,0.1c5.7,2.3,8.5,4.1,9.5,1C508.2,232.7,508.2,232,507.9,231.3z"/>
			<path fill="#433F43" d="M457.7,215.8c1.1-0.2,1.8-1,1.8-1.8s-0.7-1.5-1.7-1.8l0,0C457.2,213.5,457.1,214.8,457.7,215.8z"/>
			<path fill="#CAC0C9" d="M482.5,226.7c0,0,1.2,4.2,4.3,5.8c3.1,1.6,5.5,2.6,4.1,3.7c-1.4,1.1-15.6,1.5-18.3-9"/>
			<path fill="#BBB0BA" d="M490.4,234.3c-2.6,0.6-11.7,0.2-16.8-4.6c4.2,7.9,16.1,7.5,17.4,6.5C491.8,235.6,491.4,235,490.4,234.3z"
				/>
			<path fill="#BBB0BA" d="M468.1,226.4c-0.7,1.4-1.7,3.2-3.4,4.1c-3.1,1.6-5.6,2.3-4.3,3.2c1.2,0.8,7.8,1.8,14.3-2.4
				C471.7,230.2,469.6,228.4,468.1,226.4z"/>
			<path fill="#AB9FAA" d="M468.1,226.4c-0.3,0.7-0.7,1.4-1.3,2.1c1.4,1.6,3.2,3,5.6,4c0.7-0.4,1.5-0.8,2.2-1.3
				C471.7,230.2,469.6,228.4,468.1,226.4z"/>
			<path fill="#433F43" d="M465.2,210.8c-0.9,0-1.6,0.7-1.6,1.5s0.7,1.5,1.6,1.5s1.6-0.7,1.6-1.5S466.1,210.8,465.2,210.8z"/>
		</g>
		<g display="none">
			<g display="inline">
				<path fill="#FFCB9D" d="M279.1,416.2c-0.4-0.2-0.8-0.6-1.1-0.9c-0.5,1-1.3,3-1.4,5.2c-0.1,1.7,1.5,3.1,3.5,3.1
					c1.7,0,3.1-1,3.4-2.3c0.2-0.9,0.7-2,1.4-3.2C282.2,417.6,280.4,416.9,279.1,416.2z"/>
				<path fill="#FFCB9D" d="M312.1,420.5c-0.4-3.3-1.2-6.5-1.2-6.5c0.2,1-0.4,1.9-1.4,2.3c-1.1,0.4-2.7,1-4.9,1.5
					c0.2,1,0.3,2.2,0.4,3.2c0.2,1.5,1.7,2.6,3.5,2.6C310.7,423.6,312.3,422.2,312.1,420.5z"/>
				<path fill="#FFCB9D" d="M278,415.3c-0.7-0.8-1-1.7-0.8-2.7c0.1-0.5,0.2-1,0.3-1.6c-3.2-1.6-6.8-2.7-8.1-0.3
					c-2.1,3.9,3.8,6.9,7.3,8.3C277.1,417.4,277.6,416.1,278,415.3z"/>
			</g>
			<path display="inline" fill="#FFBA7E" d="M277.2,412.6c0.1-0.5,0.2-1,0.3-1.6c-0.7-0.3-1.4-0.7-2-0.9c-2.4,5.3,1.6,7.6,1.6,7.6
				l0,0c0.3-1,0.6-1.8,0.9-2.3C277.3,414.5,277,413.6,277.2,412.6z"/>
			<path display="inline" fill="#AEE295" d="M279.1,416.2c-1.4-0.8-2.2-2.2-2-3.6c0.6-3.6,3-11.2,12.7-12.5
				c15.7-2.2,20,9.6,21.1,13.9c0.2,1-0.4,1.9-1.4,2.3c-2.8,1.1-8.8,2.9-17.4,2.6C285.1,418.7,281.2,417.3,279.1,416.2z"/>
			<path display="inline" fill="#FFBA7E" d="M285,418.2c-2.8-0.6-4.6-1.3-5.8-2c-0.4-0.2-0.8-0.6-1.1-0.9c-0.3,0.5-0.6,1.3-0.9,2.3
				c1.4,0.8,3.6,1.7,6.9,2.4C284.3,419.4,284.6,418.8,285,418.2z"/>
			<path display="inline" fill="#FFBA7E" d="M309.5,416.3c-1.1,0.4-2.7,1-4.9,1.5c0.1,0.6,0.2,1.3,0.3,1.9c3-0.6,5.2-1.4,6.7-2
				c0,0,0,0,0.1,0c-0.4-2.1-0.8-3.7-0.8-3.7C311.2,414.9,310.6,415.9,309.5,416.3z"/>
			<path display="inline" fill="#98DB7C" d="M310.8,413.3c-0.2,0.5-0.7,0.8-1.2,1.1c-2.8,1.1-8.8,2.9-17.4,2.6
				c-7-0.2-10.9-1.6-13-2.7c-0.9-0.5-1.6-1.3-1.9-2.2c0,0.2-0.1,0.4-0.1,0.5c-0.2,1.4,0.5,2.8,2,3.6c2.1,1.2,6,2.5,13,2.7
				c8.6,0.3,14.6-1.5,17.4-2.6c1.1-0.4,1.6-1.4,1.4-2.3C310.9,413.8,310.8,413.6,310.8,413.3z"/>
			<path display="inline" fill="#82D361" d="M310,411l-2.3,1.1l-4.2-2V406l2.4-1.4c-0.3-0.3-0.6-0.6-0.9-0.8l-2.2,1.3l-4.2-2v-2.6
				c-0.4-0.1-0.9-0.2-1.3-0.3v2.9l-4.3,2l-4.3-2v-2.8c-0.5,0.1-0.9,0.2-1.3,0.3v2.5l-4.2,2l-1.8-1.2c-0.3,0.3-0.6,0.6-0.8,0.8
				l1.9,1.3v4.1l-5.3,1.9c0,0.2-0.1,0.4-0.1,0.6s0,0.4,0,0.6l6.1-2.2l4.3,2v5.6c0.4,0.1,0.9,0.1,1.3,0.1V413l4.3-2l4.3,2v5.8
				c0.4,0,0.9-0.1,1.3-0.1V413l4.3-2l4.2,2v4.1c0.5-0.1,0.9-0.3,1.3-0.4V413l2-1C310.2,411.7,310.1,411.3,310,411z M292.4,410.1
				l-4.3,2l-4.3-2V406l4.3-2l4.3,2V410.1z M302.2,410.1l-4.3,2l-4.3-2V406l4.3-2l4.3,2V410.1z"/>
			<path fill="#433F43" d="M273.2,411.1c-0.7,0-1.3,0.6-1.3,1.4s0.6,1.4,1.3,1.4c0.7,0,1.3-0.6,1.3-1.4
				C274.5,411.7,273.9,411.1,273.2,411.1z"/>
		</g>
		<g>
			<path fill="#D8D1D7" d="M458.4,462.1c-0.2-0.5-0.3-1-0.2-1.4c0.1-0.6,0.3-1.1,0.8-1.5c-0.6-0.4-1.4-0.7-2.2-0.8
				c-2-0.1-3.7,1-3.8,2.6c-0.1,0.8,0.3,1.7,0.9,2.5C455,462.8,456.4,462.3,458.4,462.1z"/>
			<path fill="#E6E2E6" d="M497,475.5c-6.9-7-15.8-3-23.4-4.8c-5.9-1.5-5-6-9-7.8c0.4-0.6,0.7-1.2,0.8-1.7c0.1-1.5-1.3-2.8-3.3-3
				c-2-0.1-3.7,1-3.8,2.6c0,0.4,0,0.9,0.2,1.4c-7.9,0.7-7.8,6.4-12.6,5.9c-5.1-0.6-7,0.8-7.8,4.8s1.6,8.4,9.2,9.7
				c2.5,0.4,5,0.2,7.1-0.3c0.7,6.8,4.7,12,6.7,14c0.6,0.6,1.6,1,2.6,1h2.1c1.5,0,2.7-0.8,3.1-1.9l1.2-3.8h15.6l1.2,3.8
				c0.3,1.1,1.6,1.9,3.1,1.9h2.5c1.3,0,2.4-0.6,2.9-1.5C497.5,491.8,502.5,481.1,497,475.5z"/>
			<g>
				<path fill="#D8D1D7" d="M462,461.1c-0.1,0.6-0.3,1.2-0.8,1.7c4,1.8,3.1,6.3,9,7.8c2.4,0.6,5,0.6,7.5,0.5
					c-1.4-0.1-2.8-0.2-4.2-0.5c-5.9-1.5-5-6-9-7.8c0.4-0.6,0.7-1.2,0.8-1.7c0.1-1.5-1.3-2.8-3.3-3c-0.7,0-1.4,0.1-1.9,0.3
					C461.3,459,462.1,460,462,461.1z"/>
				<path fill="#D8D1D7" d="M465.5,495.3c-0.3,0.9-1.3,1.6-2.4,1.8c0.2,0,0.4,0.1,0.6,0.1h2.1c1.5,0,2.7-0.8,3.1-1.9l1.2-3.8
					c-2,0-3.7,1-4.2,2.5L465.5,495.3z"/>
				<path fill="#D8D1D7" d="M497,475.5c-4.3-4.4-9.4-4.4-14.4-4.3c3.9,0.1,7.7,0.9,11,4.3c5.6,5.7,0.6,16.3-1.6,20.2
					c-0.4,0.8-1.4,1.3-2.5,1.5c0.1,0,0.3,0,0.4,0h2.5c1.3,0,2.4-0.6,2.9-1.5C497.5,491.8,502.5,481.1,497,475.5z"/>
				<path fill="#D8D1D7" d="M461.3,478.4c0,0-3.2,2.4-6.9,3.7c0.1,0-0.1,0,0,0c0,0.5,0.1,1,0.2,1.5c4-1.4,7.8-4,7.9-4.1
					c0.4-0.3,0.4-0.7,0.1-1C462.3,478.1,461.7,478.1,461.3,478.4z"/>
			</g>
			<path fill="#433F43" d="M456.5,467.2c-1.1,0-1.9,0.8-1.9,1.8s0.8,1.8,1.9,1.8s1.9-0.8,1.9-1.8S457.5,467.2,456.5,467.2z"/>
			<path fill="#433F43" d="M442.5,473.2c-0.5,0-0.9-0.3-0.9-0.7v-1c0-0.4,0.4-0.7,0.9-0.7s0.9,0.3,0.9,0.7v1
				C443.4,472.8,443,473.2,442.5,473.2z"/>
		</g>
		<g>
			<path fill="#D97F4A" d="M627.2,292.3c-1.5-1.5-3.1-2-3.2-2c-0.4-0.1-0.9,0-1,0.4c-0.2,0.3,0.1,0.7,0.5,0.9c0,0,1.3,0.5,2.6,1.7
				c1.7,1.7,2.5,3.9,2.4,6.6c0,0.4,0.3,0.7,0.8,0.7l0,0c0.4,0,0.8-0.3,0.8-0.7C630.2,296,628.6,293.6,627.2,292.3z"/>
			<path fill="#DD8858" d="M591.2,275.5l-12.4,6.7c-0.8,0.4-1.1,1.3-0.6,2.1c1,1.5,3.4,3.4,9.5,1.4c0,0,7.2,12.3,7.1,14.7
				c0,1.8,0,11.7,0,15.3c0,1.1,1.1,2,2.3,2c1.3,0,2.3-0.9,2.3-2v-13.2h16.2c0,0,2,3.1,5,4.2v9.1c0,1.1,1,1.9,2.3,1.9
				c1.2,0,2.3-0.9,2.3-1.9v-10.7c0,0,3.3-7.7,1.7-11.7c-1.7-4.1-4.3-3.4-5.9-5c-1.7-1.6-2.3-4.9-6.3-4.9s-5.1,3.1-5.1,3.1
				s-3.1-0.5-5.1,1.1s-3.6,2-4.7,0.7c-1.1-1.3-5.4-10.4-5.4-10.4s3.2-1.3,2.4-3C596,273.2,592.9,272,591.2,275.5z"/>
			<g>
				<path fill="#D97F4A" d="M594,274.9c0.4,1-0.4,1.8-1.2,2.4c-0.7,0.5-0.9,1.3-0.6,2c1.2,2.6,3.9,8.1,4.7,9.1
					c0.8,0.9,1.8,1,3.1,0.3c-0.1-0.1-0.2-0.2-0.3-0.3c-1.1-1.3-5.4-10.4-5.4-10.4s3.2-1.3,2.4-3c-0.6-1.3-2.4-2.3-4-1.3
					C593.3,274,593.7,274.4,594,274.9z"/>
				<path fill="#D97F4A" d="M596.6,315.7c0,0.7-0.4,1.3-0.9,1.6c0.4,0.3,0.9,0.4,1.4,0.4c1.3,0,2.4-1,2.4-2.1v-13.2
					c-1.6,0-2.8,1.1-2.8,2.4L596.6,315.7L596.6,315.7z"/>
				<path fill="#D97F4A" d="M626.9,293.3c-1.7-4.1-4.3-3.4-5.9-5c-1.7-1.6-2.3-4.9-6.3-4.9c-0.5,0-1,0.1-1.4,0.2
					c2.8,0.7,3.5,3.9,4.9,5.2c1.7,1.6,4.5,1.6,6.1,5.7c1.7,4.1-1.8,10.5-1.8,10.5v10.7c0,0.6-0.3,1.2-0.8,1.5
					c0.4,0.3,0.9,0.4,1.4,0.4c1.2,0,2.3-0.9,2.3-1.9V305C625.2,305,628.6,297.4,626.9,293.3z"/>
			</g>
			<path fill="#433F43" d="M587.3,279.9c-0.9,0-1.6,0.7-1.6,1.7s0.7,1.7,1.6,1.7c0.9,0,1.6-0.7,1.6-1.7
				C588.9,280.7,588.2,279.9,587.3,279.9z"/>
		</g>
		<g>
			<path fill="#D8D1D7" d="M182.3,484.5c-1,0-1.8-0.8-1.8-1.8v-8.1h3.7v8.1C184.1,483.7,183.3,484.5,182.3,484.5z"/>
			<path fill="#D8D1D7" d="M189.7,484.5h-0.1c-1,0-1.8-0.8-1.8-1.7v-8.1h3.7v8.1C191.5,483.7,190.7,484.5,189.7,484.5z"/>
			<g>
				<path fill="#E6E2E6" d="M186,484.5c-1,0-1.8-0.8-1.8-1.8v-8.1h3.7v8.1C187.8,483.7,187,484.5,186,484.5z"/>
				<path fill="#E6E2E6" d="M180.4,474.6c-1.2,0-2.2-0.5-3-1.2c-0.1,0.6-0.2,1.2-0.5,1.8c-0.5,1.3-1.3,3-3.5,3l0,0
					c-1.1,0-2-0.3-2.7-1c-0.7-0.6-1-1.5-1-2.4s-0.7-1.6-1.6-1.6c-0.9,0-1.6,0.7-1.6,1.6c0,1.8,0.7,3.4,2,4.6s3.1,1.9,5,1.9l0,0
					c1.8,0,3.3-0.6,4.5-1.8C179.2,478.4,180,476.7,180.4,474.6L180.4,474.6z"/>
				<path fill="#E6E2E6" d="M191.6,474.6c1.2,0,2.2-0.5,3-1.2c0.1,0.6,0.2,1.2,0.5,1.8c0.5,1.3,1.3,3,3.5,3l0,0c1.1,0,2-0.3,2.7-1
					c0.7-0.6,1-1.5,1-2.4s0.7-1.6,1.6-1.6s1.6,0.7,1.6,1.6c0,1.8-0.7,3.4-2,4.6s-3.1,1.9-5,1.9l0,0c-1.8,0-3.3-0.6-4.5-1.8
					C192.8,478.4,192,476.7,191.6,474.6L191.6,474.6z"/>
			</g>
			<path fill="#CAC0C9" d="M193.4,458.3h-14.8l-2.3,11.7c-0.5,2.4,1.5,4.6,4,4.6h11.2c2.6,0,4.5-2.2,4-4.6L193.4,458.3z"/>
			<path fill="#D8D1D7" d="M180.5,474.6L180.5,474.6c-1.3,0-2.3-0.5-3.1-1.2c-0.1,0.5-0.2,1.1-0.4,1.8c0.6,0.9,1.6,1.5,2.8,1.7
				C180.1,476.2,180.3,475.4,180.5,474.6z"/>
			<path fill="#CAC0C9" d="M180.5,474.6h3.7v2.3h-3.7V474.6z"/>
			<path fill="#D8D1D7" d="M184.1,476.9h3.7v-2.3h-3.7V476.9z"/>
			<path fill="#CAC0C9" d="M187.8,474.6h3.7v2.3h-3.7V474.6z"/>
			<path fill="#D8D1D7" d="M195,475.1c-0.2-0.6-0.4-1.2-0.4-1.8c-0.7,0.8-1.8,1.2-3,1.2h-0.1c0.2,0.8,0.4,1.6,0.7,2.2
				C193.4,476.7,194.4,476,195,475.1z"/>
			<path fill="#E6E2E6" d="M186,458.3h8.5c1.7,0,2.7-1.8,1.7-3.1l-8.2-11.7c-0.9-1.3-3-1.3-4,0l-8.2,11.7c-0.9,1.3,0.1,3.1,1.7,3.1
				H186z"/>
			<path fill="#D8D1D7" d="M196.2,455.1c-0.4,0.5-1,0.8-1.7,0.8h-16.9c-0.7,0-1.3-0.3-1.7-0.8l0,0c-0.9,1.3,0.1,3.1,1.7,3.1h16.9
				C196.1,458.3,197.1,456.5,196.2,455.1L196.2,455.1z"/>
			<path fill="#BBB0BA" d="M193.8,460.5l-0.4-2.3h-14.8l-0.4,2.3H193.8z"/>
			<path fill="#433F43" d="M182.3,468.6c-0.8,0-1.3,0.7-1.3,1.6s0.6,1.6,1.3,1.6c0.8,0,1.3-0.7,1.3-1.6
				C183.7,469.3,183.1,468.6,182.3,468.6z"/>
			<path fill="#433F43" d="M189.7,468.6c-0.8,0-1.3,0.7-1.3,1.6s0.6,1.6,1.3,1.6s1.3-0.7,1.3-1.6S190.4,468.6,189.7,468.6z"/>
		</g>
		<g>
			<path fill="#AD5E2E" d="M142.4,294.4c-5.5,0.2-7.9,3.9-9.6,7.5c0.3,1.6,0.1,3.4-0.8,5.2c5,4.1,6.4,9.6,6.6,13.9
				c0.1,2.3-0.8,4.3-2.3,5.5c5.1,1.2,8.5-1.2,9.4-5.1c1-4.3-0.9-6.7-2.3-8.7c-1.4-2,0.1-4.7,0.1-4.7c2.1,4.3,8.2,3.9,8.9-1.7
				C153.1,299.9,150,294.1,142.4,294.4z"/>
			<path fill="#A05528" d="M152.3,304.2c-0.7,5.6-6.8,6-8.9,1.7c0,0-1,1.8-0.5,3.6c0.2-0.9,0.5-1.5,0.5-1.5c2.1,4.3,8.2,3.9,8.9-1.7
				c0.1-1,0.2-2.1,0.1-3C152.3,303.5,152.3,303.8,152.3,304.2z"/>
			<path fill="#A05528" d="M145.6,319.3c-0.8,3.5-3.6,5.8-7.9,5.4c-0.4,0.7-0.9,1.4-1.5,1.9c5.1,1.2,8.5-1.2,9.4-5.1
				c0.3-1.3,0.3-2.4,0.2-3.3C145.8,318.4,145.7,318.8,145.6,319.3z"/>
			<path fill="#DD8858" d="M138.5,321c-0.2-4.3-1.6-9.9-6.6-13.9c2.3-4.6,0-9.3-3.5-9.5s-8.8,2.2-8.4,6.8c0.2,2,2.3,3.4,4.7,4
				c-1,3.7-3,13.7,3.3,19.5h4.8C136.1,327.8,138.7,324.7,138.5,321z"/>
			<path fill="#FFE9C8" d="M128.1,327.8h1.4c0.9-9.8-4.7-19.5-4.7-19.5C123.8,312,121.8,322,128.1,327.8z"/>
			<path fill="#DD8858" d="M130.4,327.8h-7.7c-0.8,0-1.4-0.9-1.1-1.8c0.2-0.7,0.6-1.5,1.4-2c1.9-1.1,4-0.8,4-0.8s-3.1-7.1,3.8-9.1"
				/>
			<path fill="#D97F4A" d="M138.5,320.2c-0.4,3.1-2.8,5.5-5.6,5.5h-10.1c-0.3,0-0.6-0.2-0.8-0.4c-0.1,0.2-0.2,0.5-0.3,0.7
				c-0.2,0.9,0.3,1.8,1.1,1.8h10.1c3.3,0,5.9-3.1,5.7-6.8C138.5,320.7,138.5,320.5,138.5,320.2z"/>
			<path fill="#DD8858" d="M127.7,308.3c0,0-1.9,2.9-6.3,4.7c-3.1,1.3-2,5.9,6.6,0.6"/>
			<path fill="#D97F4A" d="M120.4,313.7c-1.7,1.7,0.2,4.5,7.6-0.1c-0.1-1-0.9-1.6-1.6-1.2C123.2,314.1,121.3,314.2,120.4,313.7z"/>
			<path fill="#433F43" d="M125.2,301.6c-0.6,0-1,0.7-1,1.5s0.4,1.5,1,1.5s1-0.7,1-1.5S125.8,301.6,125.2,301.6z"/>
			<path fill="#CA6D36" d="M127.5,296.5c-0.4-1-1.1-1.7-1.5-1.6c-0.9,0.1-2.1,2.7-2.7,4c1.1-0.6,2.4-1.1,3.6-1.2
				C127.1,297.3,127.3,296.9,127.5,296.5z"/>
			<path fill="#DD8858" d="M126.3,298.9c0,0,1.6-3.9,2.8-4s3.2,4.2,1,5.8"/>
			<path fill="#914D24" d="M143.6,304.7c0.3-0.6,0.7-0.9,0.7-0.9c0.2-0.2,0.3-0.5,0.2-0.8s-0.4-0.4-0.7-0.2c0,0-2.5,1.7-0.9,5.5
				l0.2,0.4c0.2-0.4,0.3-0.7,0.3-0.7l0.1-0.1c0.1-0.3,0.2-0.6,0.1-1C143.3,306.1,143.3,305.3,143.6,304.7z"/>
		</g>
	</g>
	<g>
		<path fill="#FFCB9D" d="M276.4,420.4c-0.5-0.3-0.9-0.7-1.3-1.1c-0.6,1.3-1.4,3.7-1.6,6.4c-0.1,2.1,1.7,3.8,4,3.8
			c1.9,0,3.5-1.2,3.9-2.8c0.3-1.1,0.8-2.4,1.6-3.9C279.9,422.1,277.8,421.2,276.4,420.4z"/>
		<path fill="#FFCB9D" d="M310.6,420.5c-1.3,0.5-3.1,1.2-5.5,1.8c0.2,1.2,0.4,2.7,0.5,3.9c0.2,1.8,1.9,3.2,3.9,3.2"/>
		<path fill="#FFCB9D" d="M265.4,413.5c-2.4,4.8,4.3,8.5,8.3,10.2c0.3-1.9,0.9-3.5,1.4-4.5c-0.8-0.9-1.1-2.1-0.9-3.3
			c0.1-0.6,0.2-1.3,0.4-2C270.9,411.9,266.9,410.7,265.4,413.5"/>
		<path fill="#FFBA7E" d="M274.2,415.9c0.1-0.6,0.2-1.3,0.4-2c-0.8-0.4-1.5-0.8-2.3-1.1c-2.7,6.5,1.8,9.3,1.8,9.3l0,0
			c0.3-1.2,0.7-2.2,1-2.9C274.3,418.3,274,417.1,274.2,415.9z"/>
		<path fill="#AEE295" d="M310.6,420.5c-3.1,1.3-9.9,3.6-19.6,3.2c-7.9-0.3-12.3-2-14.6-3.4c-1.6-1-2.5-2.7-2.2-4.4
			c0.7-4.5,3.3-13.8,14.3-15.4c17.7-2.7,22.6,11.8,23.8,17.1"/>
		<path fill="#FFBA7E" d="M283,422.8c-3.1-0.7-5.2-1.6-6.6-2.4c-0.5-0.3-0.9-0.7-1.3-1.1c-0.3,0.7-0.7,1.7-1,2.9
			c1.6,1,4.1,2.1,7.8,2.9C282.2,424.3,282.5,423.6,283,422.8z"/>
		<path fill="#FFBA7E" d="M310.6,420.5c-1.3,0.5-3.1,1.2-5.5,1.8c0.1,0.7,0.2,1.6,0.3,2.4c3.4-0.8,5.9-1.7,7.5-2.4"/>
		<path fill="#98DB7C" d="M310.6,418.1c-3.1,1.3-9.9,3.6-19.6,3.2c-7.9-0.3-12.3-2-14.6-3.4c-1.1-0.6-1.8-1.6-2.1-2.7
			c0,0.2-0.1,0.4-0.1,0.7c-0.3,1.7,0.6,3.5,2.2,4.4c2.4,1.4,6.8,3.1,14.6,3.4c9.7,0.3,16.5-1.9,19.6-3.2"/>
		<path fill="#82D361" d="M311.1,413.9l-2.6,1.4l-4.7-2.5v-5l2.7-1.7c-0.3-0.3-0.6-0.7-1-1l-2.5,1.5l-4.8-2.5V401
			c-0.5-0.1-1-0.3-1.5-0.4v3.6l-4.8,2.5l-4.8-2.5v-3.5c-0.5,0.1-1,0.2-1.5,0.4v3.1l-4.7,2.5l-2-1.5c-0.3,0.3-0.6,0.7-0.9,1l2.1,1.5
			v5l-6,2.4c0,0.3-0.1,0.5-0.1,0.8c0,0.2,0,0.5,0,0.7l6.8-2.7l4.8,2.5v6.8c0.5,0.1,1,0.1,1.5,0.2v-7l4.8-2.5l4.8,2.5v7.2
			c0.5,0,1-0.1,1.5-0.1v-7l4.8-2.5l4.7,2.5v5.1c0.5-0.2,1-0.3,1.5-0.5"/>
		<polygon fill="#82D361" points="291.4,412.8 286.6,415.3 281.7,412.8 281.7,407.8 286.6,405.3 291.4,407.8 		"/>
		<polygon fill="#82D361" points="302.4,412.8 297.6,415.3 292.8,412.8 292.8,407.8 297.6,405.3 302.4,407.8 		"/>
		<path fill="#433F43" d="M269.7,414.1c-0.8,0-1.5,0.7-1.5,1.7c0,0.9,0.7,1.7,1.5,1.7c0.8,0,1.5-0.7,1.5-1.7
			C271.2,414.8,270.5,414.1,269.7,414.1z"/>
	</g>
	<g>
		<path fill="#FFE9C8" d="M621.5,325.1c-6.1,0-8.5,5.3-7.7,10.7c0.9,5.9,5.3,5.3,2.2,9.6c-3,4.4-6.7,14.1,2.4,19.2
			c10.1,5.6,30.1,0.2,24.4-20.9c-0.2-0.9-1.2-1.2-1.7-0.6c-0.7,0.8-1.8,1.6-2.8,1.5c-1.9-0.4-5.2-3.2-11.1,0.7
			c-6.4,4.2,0.9-6.5,0.9-11.9C628.1,330.1,626.4,325.1,621.5,325.1z"/>
		<path fill="#FFDCA7" d="M618.4,362c-3.8-2.1-5.3-5-5.7-8c-0.4,3.9,0.8,7.9,5.7,10.6c9.1,5.1,26.3,1.2,25.3-15.3
			C642.8,363.6,627,366.8,618.4,362z"/>
		<path fill="#FFCF86" d="M628.5,357.3c-1.6,0-2.8-0.5-3.7-1c-1.5-1-2.3-2.3-2.3-2.3c-0.2-0.3-0.1-0.8,0.2-1
			c0.3-0.2,0.6-0.1,0.8,0.2c0,0,0.6,1.1,1.9,1.9c1.7,1.1,3.8,1.1,6.2,0.2c3.2-1.2,4.8-4.7,5.2-6.4c0.1-0.4,0.4-0.6,0.7-0.5
			c0.3,0.1,0.5,0.5,0.4,0.9c-0.5,1.9-2.3,5.9-6,7.3C630.6,357.2,629.5,357.3,628.5,357.3z"/>
		<path fill="#FFA812" d="M615,334.6c0.1,1.2,1.6,0.9,1.6,2.4s-1.2,4.3-6.2,3.4c-5.9-1-7.1-10.6-3.8-11c2.2-0.3,1.1,3.3,4,3.4
			c2.8,0.2,3.4-2.4,4.3-1.3C615.7,332.4,614.9,333.6,615,334.6z"/>
		<path fill="#FF9A00" d="M616.3,336c-0.7,1.3-2.3,2.4-5.8,1.8c-3.2-0.6-5-3.7-5.5-6.5c-0.6,3,1.2,8.3,5.5,9.1
			c5,0.9,6.2-1.9,6.2-3.4C616.6,336.5,616.5,336.2,616.3,336z"/>
		<g>
			<path fill="#433F43" d="M612.2,334.5c-0.5,0.1-1,0.1-1,0.1c-0.3,0-0.6,0.3-0.6,0.7c0,0.4,0.3,0.7,0.6,0.7h0c0.1,0,0.7,0,1.3-0.2
				c0.3-0.1,0.5-0.5,0.4-0.9C612.8,334.7,612.5,334.4,612.2,334.5z"/>
			<path fill="#433F43" d="M621.2,330.8c-0.7,0-1.2,0.8-1.2,1.8c0,1,0.5,1.8,1.2,1.8c0.7,0,1.2-0.8,1.2-1.8
				C622.3,331.6,621.8,330.8,621.2,330.8z"/>
		</g>
	</g>
</g>
</svg>
